<svg width="2048" height="1536" viewBox="0 0 2048 1536" fill="none" xmlns="http://www.w3.org/2000/svg">
<g clip-path="url(#clip0_1_541)">
<rect width="2048" height="1536" fill="#015DA7"/>
<path d="M1233.22 2236H630L1628.78 909H2232L1233.22 2236Z" fill="url(#paint0_linear_1_541)"/>
<path d="M267.566 2349.3H163L1158.28 1027H1262.84L267.566 2349.3Z" fill="url(#paint1_linear_1_541)"/>
<path d="M121.566 2349.3H17L1012.28 1027H1116.84L121.566 2349.3Z" fill="url(#paint2_linear_1_541)"/>
<path d="M-240.008 2241H-972L240.008 631H972L-240.008 2241Z" fill="url(#paint3_linear_1_541)"/>
<path d="M1403.76 743H1066L1625.24 0H1963L1403.76 743Z" fill="url(#paint4_linear_1_541)"/>
<path d="M2115.15 769H1498L2519.85 -589H3137L2115.15 769Z" fill="url(#paint5_linear_1_541)"/>
<path d="M383.566 581H279L1274.28 -741.301H1378.84L383.566 581Z" fill="url(#paint6_linear_1_541)"/>
<path d="M666.566 457.301H562L1557.28 -865H1661.84L666.566 457.301Z" fill="url(#paint7_linear_1_541)"/>
<path d="M977.566 354.301H873L1868.28 -968H1972.84L977.566 354.301Z" fill="url(#paint8_linear_1_541)"/>
<path d="M1052.72 581H948.159L1943.43 -741.301H2048L1052.72 581Z" fill="url(#paint9_linear_1_541)"/>
<path d="M-625.008 1573H-1357L-144.992 -37H587L-625.008 1573Z" fill="url(#paint10_linear_1_541)"/>
</g>
<defs>
<linearGradient id="paint0_linear_1_541" x1="2232" y1="909" x2="920.772" y2="2618.35" gradientUnits="userSpaceOnUse">
<stop stop-color="#01527E"/>
<stop offset="1" stop-color="#015DA7"/>
</linearGradient>
<linearGradient id="paint1_linear_1_541" x1="1759.37" y1="1027" x2="452.796" y2="2730.33" gradientUnits="userSpaceOnUse">
<stop stop-color="#01527E"/>
<stop offset="1" stop-color="#015BA0"/>
</linearGradient>
<linearGradient id="paint2_linear_1_541" x1="1613.37" y1="1027" x2="306.796" y2="2730.33" gradientUnits="userSpaceOnUse">
<stop stop-color="#01527E"/>
<stop offset="1" stop-color="#015BA0"/>
</linearGradient>
<linearGradient id="paint3_linear_1_541" x1="972" y1="631" x2="-618.79" y2="2705.17" gradientUnits="userSpaceOnUse">
<stop stop-color="#01527F"/>
<stop offset="1" stop-color="#015DA7"/>
</linearGradient>
<linearGradient id="paint4_linear_1_541" x1="1963" y1="7.92752e-05" x2="1228.84" y2="957.101" gradientUnits="userSpaceOnUse">
<stop stop-color="#015280"/>
<stop offset="1" stop-color="#015BA0"/>
</linearGradient>
<linearGradient id="paint5_linear_1_541" x1="3137" y1="-589" x2="1795.05" y2="1159.95" gradientUnits="userSpaceOnUse">
<stop stop-color="#015280"/>
<stop offset="1" stop-color="#015BA0"/>
</linearGradient>
<linearGradient id="paint6_linear_1_541" x1="1875.37" y1="-741.3" x2="568.796" y2="962.031" gradientUnits="userSpaceOnUse">
<stop stop-color="#01527E"/>
<stop offset="1" stop-color="#015BA0"/>
</linearGradient>
<linearGradient id="paint7_linear_1_541" x1="2158.37" y1="-865" x2="851.796" y2="838.332" gradientUnits="userSpaceOnUse">
<stop stop-color="#01527E"/>
<stop offset="1" stop-color="#015BA0"/>
</linearGradient>
<linearGradient id="paint8_linear_1_541" x1="2469.37" y1="-968" x2="1162.8" y2="735.332" gradientUnits="userSpaceOnUse">
<stop stop-color="#01527E"/>
<stop offset="1" stop-color="#015BA0"/>
</linearGradient>
<linearGradient id="paint9_linear_1_541" x1="2544.53" y1="-741.3" x2="1237.95" y2="962.031" gradientUnits="userSpaceOnUse">
<stop stop-color="#01527E"/>
<stop offset="1" stop-color="#015BA0"/>
</linearGradient>
<linearGradient id="paint10_linear_1_541" x1="587" y1="-36.9998" x2="-1003.79" y2="2037.17" gradientUnits="userSpaceOnUse">
<stop stop-color="#01527F"/>
<stop offset="1" stop-color="#015DA7"/>
</linearGradient>
<clipPath id="clip0_1_541">
<rect width="2048" height="1536" fill="white"/>
</clipPath>
</defs>
</svg>
