<svg width="658" height="542" viewBox="0 0 658 542" fill="none" xmlns="http://www.w3.org/2000/svg">
<path d="M2.67773 450.492L498.759 163.924L656.31 254.906L160.228 541.473L2.67773 450.492Z" fill="#D2E6DF"/>
<path d="M2.68113 437.105C2.58029 437.105 2.47945 437.105 2.34499 437.071C2.24414 437.071 2.1433 437.004 2.04246 436.97C1.94161 436.937 1.84077 436.869 1.73993 436.802C1.63909 436.735 1.57186 436.668 1.47101 436.6C1.16848 436.298 0.966797 435.86 0.966797 435.423C0.966797 434.986 0.966797 435.188 0.966797 435.087C0.966797 434.986 1.03403 434.885 1.06764 434.784C1.10125 434.683 1.16848 434.582 1.23571 434.481C1.30294 434.38 1.37017 434.313 1.4374 434.212C1.73993 433.91 2.17692 433.708 2.6139 433.708C3.05089 433.708 3.48788 433.876 3.79041 434.212C3.85764 434.28 3.92487 434.38 3.99209 434.481C4.05932 434.582 4.09294 434.683 4.16017 434.784C4.19378 434.885 4.22739 434.986 4.26101 435.087C4.26101 435.188 4.26101 435.322 4.26101 435.423C4.26101 435.86 4.09294 436.298 3.75679 436.6C3.68956 436.668 3.58872 436.735 3.48788 436.802C3.38703 436.869 3.28619 436.903 3.18535 436.97C3.0845 437.004 2.98366 437.038 2.88282 437.071C2.78198 437.071 2.68113 437.105 2.54667 437.105H2.68113Z" fill="#025FA9"/>
<path d="M15.8234 427.855C15.3528 427.048 15.6217 426.005 16.4284 425.568C17.2352 425.097 18.2772 425.366 18.7142 426.173C19.1848 426.981 18.9159 428.023 18.1091 428.461C17.8402 428.629 17.5713 428.696 17.2688 428.696C16.6973 428.696 16.1259 428.393 15.8234 427.855ZM30.412 419.413C29.9414 418.606 30.2103 417.563 31.0171 417.126C31.8238 416.655 32.8659 416.924 33.3029 417.731C33.7735 418.538 33.5045 419.581 32.6978 420.018C32.4289 420.153 32.16 420.254 31.8574 420.254C31.286 420.254 30.7145 419.951 30.412 419.413ZM45.0007 410.971C44.5301 410.163 44.799 409.121 45.6057 408.683C46.4125 408.213 47.4545 408.482 47.8915 409.289C48.3621 410.096 48.0932 411.139 47.2864 411.576C47.0175 411.744 46.7486 411.811 46.4461 411.811C45.8746 411.811 45.3032 411.509 45.0007 410.971ZM59.5893 402.528C59.1187 401.721 59.3876 400.678 60.1944 400.241C61.0011 399.77 62.0432 400.039 62.4802 400.847C62.9508 401.654 62.6819 402.696 61.8751 403.134C61.6062 403.302 61.3373 403.369 61.0347 403.369C60.4633 403.369 59.8919 403.066 59.5893 402.528ZM74.178 394.086C73.7074 393.279 73.9763 392.27 74.783 391.799C75.5898 391.328 76.6318 391.597 77.0688 392.404C77.5394 393.212 77.2705 394.254 76.4638 394.691C76.1948 394.86 75.9259 394.927 75.6234 394.927C75.0519 394.927 74.4805 394.624 74.178 394.086ZM88.7666 385.644C88.296 384.836 88.5649 383.827 89.3717 383.357C90.1784 382.886 91.1869 383.155 91.6575 383.962C92.1281 384.769 91.8592 385.812 91.0524 386.249C90.7835 386.417 90.5146 386.485 90.212 386.485C89.6406 386.485 89.0692 386.182 88.7666 385.644ZM103.355 377.201C102.885 376.394 103.154 375.385 103.96 374.914C104.767 374.443 105.776 374.712 106.246 375.52C106.717 376.327 106.448 377.336 105.641 377.807C105.372 377.975 105.07 378.042 104.801 378.042C104.229 378.042 103.658 377.74 103.355 377.201ZM117.944 368.759C117.473 367.952 117.742 366.943 118.549 366.472C119.356 366.001 120.364 366.27 120.835 367.077C121.305 367.885 121.036 368.927 120.23 369.365C119.961 369.533 119.692 369.6 119.389 369.6C118.818 369.6 118.246 369.297 117.944 368.759ZM132.533 360.317C132.062 359.51 132.331 358.467 133.138 358.03C133.944 357.559 134.986 357.828 135.423 358.635C135.894 359.442 135.625 360.485 134.818 360.922C134.549 361.09 134.281 361.158 133.978 361.158C133.407 361.158 132.835 360.855 132.533 360.317ZM147.121 351.875C146.651 351.067 146.92 350.025 147.726 349.587C148.533 349.117 149.541 349.386 150.012 350.193C150.483 351 150.214 352.043 149.407 352.48C149.138 352.615 148.869 352.715 148.567 352.715C147.995 352.715 147.424 352.413 147.121 351.875ZM161.71 343.432C161.239 342.625 161.508 341.582 162.315 341.145C163.122 340.674 164.164 340.943 164.601 341.751C165.071 342.558 164.802 343.6 163.996 344.038C163.727 344.206 163.458 344.273 163.155 344.273C162.584 344.273 162.012 343.97 161.71 343.432ZM176.299 334.99C175.828 334.183 176.097 333.174 176.904 332.703C177.71 332.232 178.752 332.501 179.189 333.308C179.66 334.115 179.391 335.158 178.584 335.595C178.315 335.764 178.046 335.831 177.744 335.831C177.173 335.831 176.601 335.528 176.299 334.99ZM190.887 326.548C190.417 325.74 190.686 324.731 191.492 324.26C192.299 323.79 193.341 324.059 193.778 324.866C194.249 325.673 193.98 326.716 193.173 327.153C192.904 327.321 192.635 327.389 192.333 327.389C191.761 327.389 191.19 327.086 190.887 326.548ZM205.476 318.105C205.005 317.298 205.274 316.289 206.081 315.818C206.888 315.347 207.896 315.616 208.367 316.424C208.837 317.231 208.568 318.274 207.762 318.711C207.493 318.879 207.224 318.946 206.921 318.946C206.35 318.946 205.778 318.644 205.476 318.105ZM220.065 309.663C219.594 308.856 219.863 307.847 220.67 307.376C221.476 306.905 222.518 307.174 222.955 307.981C223.426 308.789 223.157 309.831 222.35 310.268C222.081 310.403 221.812 310.504 221.51 310.504C220.938 310.504 220.367 310.201 220.065 309.663ZM234.653 301.221C234.183 300.414 234.451 299.404 235.258 298.934C236.065 298.463 237.073 298.732 237.544 299.539C238.015 300.346 237.746 301.389 236.939 301.826C236.67 301.994 236.368 302.062 236.099 302.062C235.527 302.062 234.956 301.759 234.653 301.221ZM249.242 292.778C248.771 291.971 249.04 290.962 249.847 290.491C250.654 290.02 251.662 290.29 252.133 291.097C252.603 291.904 252.334 292.947 251.528 293.384C251.259 293.552 250.99 293.619 250.687 293.619C250.116 293.619 249.544 293.317 249.242 292.778ZM263.83 284.336C263.36 283.529 263.629 282.52 264.436 282.049C265.242 281.578 266.251 281.847 266.721 282.654C267.192 283.462 266.923 284.504 266.116 284.942C265.847 285.11 265.545 285.177 265.276 285.177C264.704 285.177 264.133 284.874 263.83 284.336ZM278.419 275.894C277.949 275.087 278.217 274.078 279.024 273.607C279.831 273.136 280.873 273.405 281.31 274.212C281.781 275.019 281.512 276.062 280.705 276.499C280.436 276.667 280.167 276.735 279.865 276.735C279.293 276.735 278.722 276.432 278.419 275.894ZM293.008 267.452C292.537 266.644 292.806 265.602 293.613 265.164C294.42 264.694 295.462 264.963 295.899 265.77C296.369 266.577 296.1 267.586 295.294 268.057C295.025 268.225 294.756 268.292 294.453 268.292C293.882 268.292 293.31 267.99 293.008 267.452ZM307.596 259.009C307.126 258.202 307.395 257.159 308.202 256.722C309.008 256.251 310.05 256.52 310.487 257.328C310.958 258.135 310.689 259.144 309.882 259.615C309.613 259.783 309.344 259.85 309.042 259.85C308.47 259.85 307.899 259.547 307.596 259.009ZM322.185 250.567C321.714 249.76 321.983 248.717 322.79 248.28C323.597 247.809 324.605 248.078 325.076 248.885C325.547 249.692 325.278 250.702 324.471 251.172C324.202 251.341 323.933 251.408 323.63 251.408C323.059 251.408 322.488 251.105 322.185 250.567ZM336.774 242.125C336.303 241.317 336.572 240.308 337.379 239.838C338.186 239.367 339.228 239.636 339.665 240.443C340.135 241.25 339.866 242.293 339.06 242.73C338.791 242.898 338.522 242.966 338.219 242.966C337.648 242.966 337.076 242.663 336.774 242.125ZM351.362 233.716C350.892 232.909 351.161 231.866 351.967 231.429C352.774 230.958 353.783 231.227 354.253 232.034C354.724 232.842 354.455 233.851 353.648 234.321C353.379 234.49 353.077 234.557 352.808 234.557C352.236 234.557 351.665 234.254 351.362 233.716ZM365.951 225.274C365.48 224.466 365.749 223.424 366.556 222.987C367.363 222.516 368.371 222.785 368.842 223.592C369.312 224.399 369.044 225.408 368.237 225.879C367.968 226.014 367.699 226.115 367.396 226.115C366.825 226.115 366.254 225.812 365.951 225.274ZM380.54 216.831C380.069 216.024 380.338 214.982 381.145 214.544C381.952 214.073 382.96 214.342 383.431 215.15C383.901 215.957 383.632 216.966 382.825 217.437C382.557 217.571 382.254 217.672 381.985 217.672C381.414 217.672 380.842 217.37 380.54 216.831ZM395.128 208.389C394.658 207.582 394.927 206.539 395.733 206.102C396.54 205.631 397.549 205.9 398.019 206.707C398.49 207.515 398.221 208.557 397.414 208.995C397.145 209.163 396.876 209.23 396.574 209.23C396.002 209.23 395.431 208.927 395.128 208.389ZM409.717 199.947C409.246 199.14 409.515 198.097 410.322 197.66C411.129 197.189 412.171 197.458 412.608 198.265C413.078 199.072 412.81 200.115 412.003 200.552C411.734 200.72 411.465 200.788 411.162 200.788C410.591 200.788 410.02 200.485 409.717 199.947ZM424.306 191.505C423.835 190.697 424.104 189.688 424.911 189.217C425.717 188.746 426.76 189.016 427.197 189.823C427.667 190.63 427.398 191.673 426.591 192.11C426.323 192.278 426.054 192.345 425.751 192.345C425.18 192.345 424.608 192.043 424.306 191.505ZM438.894 183.062C438.424 182.255 438.693 181.246 439.499 180.775C440.306 180.304 441.348 180.573 441.785 181.381C442.256 182.188 441.987 183.197 441.18 183.668C440.911 183.802 440.642 183.903 440.34 183.903C439.768 183.903 439.197 183.6 438.894 183.062ZM453.483 174.62C453.012 173.813 453.281 172.804 454.088 172.333C454.895 171.862 455.937 172.131 456.374 172.938C456.844 173.745 456.576 174.754 455.769 175.225C455.5 175.36 455.231 175.461 454.928 175.461C454.357 175.461 453.785 175.158 453.483 174.62ZM468.072 166.211C467.601 165.404 467.87 164.361 468.677 163.924C469.483 163.453 470.525 163.722 470.962 164.53C471.433 165.337 471.164 166.379 470.357 166.817C470.089 166.951 469.82 167.052 469.517 167.052C468.946 167.052 468.374 166.749 468.072 166.211ZM482.66 157.769C482.19 156.962 482.459 155.953 483.265 155.482C484.072 155.011 485.081 155.28 485.551 156.087C486.022 156.894 485.753 157.937 484.946 158.374C484.677 158.543 484.408 158.61 484.106 158.61C483.534 158.61 482.963 158.307 482.66 157.769Z" fill="#025FA9"/>
<path d="M498.762 150.538C498.325 150.538 497.888 150.369 497.585 150.033C497.283 149.73 497.081 149.293 497.081 148.856C497.081 148.419 497.081 148.654 497.081 148.519C497.081 148.419 497.148 148.318 497.182 148.217C497.215 148.116 497.283 148.015 497.35 147.914C497.417 147.813 497.484 147.746 497.552 147.645C497.619 147.578 497.72 147.51 497.821 147.443C497.921 147.376 498.022 147.342 498.123 147.275C498.224 147.241 498.325 147.208 498.426 147.174C498.963 147.073 499.569 147.241 499.938 147.645C500.241 147.948 500.442 148.385 500.442 148.822C500.442 149.259 500.274 149.697 499.938 149.999C499.636 150.302 499.199 150.504 498.762 150.504V150.538Z" fill="#025FA9"/>
<path d="M641.151 233.077C640.344 232.606 640.075 231.597 640.546 230.79C641.016 229.982 642.025 229.713 642.832 230.184C643.638 230.655 643.907 231.664 643.437 232.471C643.134 233.01 642.563 233.312 641.991 233.312C641.689 233.312 641.42 233.245 641.151 233.077ZM626.831 224.803C626.024 224.332 625.755 223.323 626.226 222.516C626.697 221.708 627.705 221.439 628.512 221.91C629.319 222.381 629.587 223.39 629.117 224.197C628.814 224.735 628.243 225.038 627.671 225.038C627.369 225.038 627.1 224.971 626.831 224.803ZM612.511 216.529C611.705 216.058 611.436 215.049 611.906 214.241C612.377 213.434 613.385 213.165 614.192 213.636C614.999 214.107 615.268 215.116 614.797 215.923C614.495 216.461 613.923 216.764 613.352 216.764C613.049 216.764 612.78 216.697 612.511 216.529ZM598.192 208.254C597.385 207.784 597.116 206.775 597.587 205.967C598.057 205.16 599.066 204.891 599.872 205.362C600.679 205.833 600.948 206.842 600.477 207.649C600.175 208.187 599.603 208.49 599.032 208.49C598.729 208.49 598.46 208.423 598.192 208.254ZM583.872 199.98C583.065 199.509 582.796 198.5 583.267 197.693C583.737 196.886 584.746 196.617 585.553 197.088C586.359 197.559 586.628 198.568 586.158 199.375C585.855 199.913 585.284 200.216 584.712 200.216C584.41 200.216 584.141 200.149 583.872 199.98ZM569.552 191.706C568.745 191.235 568.476 190.226 568.947 189.419C569.418 188.612 570.426 188.343 571.233 188.814C572.04 189.285 572.308 190.294 571.838 191.101C571.535 191.639 570.964 191.942 570.392 191.942C570.124 191.942 569.821 191.874 569.552 191.706ZM555.232 183.432C554.426 182.961 554.157 181.952 554.627 181.145C555.098 180.338 556.106 180.069 556.913 180.54C557.72 181.01 557.989 182.019 557.518 182.827C557.216 183.365 556.644 183.668 556.073 183.668C555.77 183.668 555.501 183.6 555.232 183.432ZM540.913 175.158C540.106 174.687 539.837 173.678 540.308 172.871C540.778 172.064 541.787 171.795 542.593 172.265C543.4 172.736 543.669 173.745 543.198 174.553C542.896 175.091 542.324 175.393 541.753 175.393C541.484 175.393 541.182 175.326 540.913 175.158ZM526.593 166.884C525.786 166.413 525.517 165.404 525.988 164.597C526.458 163.789 527.467 163.52 528.274 163.991C529.08 164.462 529.349 165.471 528.879 166.278C528.576 166.817 528.005 167.119 527.433 167.119C527.164 167.119 526.862 167.052 526.593 166.884ZM512.273 158.61C511.466 158.139 511.197 157.13 511.668 156.323C512.139 155.515 513.147 155.246 513.954 155.717C514.761 156.188 515.03 157.197 514.559 158.004C514.256 158.542 513.685 158.845 513.114 158.845C512.845 158.845 512.542 158.778 512.273 158.61Z" fill="#025FA9"/>
<path d="M656.315 241.553C656.215 241.553 656.08 241.553 655.979 241.553C655.878 241.553 655.778 241.486 655.677 241.452C655.576 241.418 655.475 241.351 655.374 241.284C655.273 241.216 655.206 241.149 655.105 241.082C655.005 241.015 654.971 240.914 654.904 240.813C654.836 240.712 654.803 240.611 654.736 240.51C654.702 240.409 654.668 240.308 654.635 240.207C654.635 240.107 654.635 240.006 654.635 239.871C654.635 239.737 654.635 239.669 654.635 239.535C654.635 239.434 654.702 239.333 654.736 239.232C654.769 239.131 654.836 239.03 654.904 238.929C654.971 238.828 655.038 238.761 655.105 238.66C655.173 238.593 655.273 238.526 655.374 238.458C655.475 238.391 655.576 238.358 655.677 238.29C655.778 238.257 655.878 238.223 655.979 238.189C656.181 238.156 656.416 238.156 656.618 238.189C656.719 238.189 656.82 238.257 656.921 238.29C657.021 238.324 657.122 238.391 657.223 238.458C657.324 238.526 657.391 238.593 657.492 238.66C657.559 238.728 657.626 238.828 657.694 238.929C657.761 239.03 657.795 239.131 657.862 239.232C657.895 239.333 657.929 239.434 657.963 239.535C657.963 239.636 657.996 239.737 657.996 239.871C657.996 240.006 657.996 240.107 657.963 240.207C657.963 240.308 657.895 240.409 657.862 240.51C657.828 240.611 657.761 240.712 657.694 240.813C657.626 240.914 657.559 240.981 657.492 241.082C657.425 241.183 657.324 241.216 657.223 241.284C657.122 241.351 657.021 241.385 656.921 241.452C656.82 241.486 656.719 241.519 656.618 241.553C656.517 241.553 656.416 241.553 656.282 241.553H656.315Z" fill="#025FA9"/>
<path d="M173.342 518.87C172.871 518.063 173.14 517.021 173.947 516.583C174.754 516.112 175.762 516.382 176.233 517.189C176.703 517.996 176.434 519.039 175.628 519.476C175.359 519.644 175.056 519.711 174.787 519.711C174.216 519.711 173.644 519.409 173.342 518.87ZM187.931 510.428C187.46 509.621 187.729 508.578 188.536 508.141C189.342 507.67 190.351 507.939 190.821 508.746C191.292 509.554 191.023 510.563 190.216 511.034C189.947 511.202 189.679 511.269 189.376 511.269C188.805 511.269 188.233 510.966 187.931 510.428ZM202.519 501.986C202.049 501.179 202.318 500.136 203.124 499.699C203.931 499.228 204.973 499.497 205.41 500.304C205.881 501.111 205.612 502.154 204.805 502.591C204.536 502.759 204.267 502.827 203.965 502.827C203.393 502.827 202.822 502.524 202.519 501.986ZM217.108 493.544C216.637 492.736 216.906 491.727 217.713 491.256C218.52 490.786 219.562 491.055 219.999 491.862C220.469 492.669 220.2 493.678 219.394 494.149C219.125 494.317 218.856 494.384 218.553 494.384C217.982 494.384 217.41 494.082 217.108 493.544ZM231.697 485.135C231.226 484.328 231.495 483.285 232.302 482.848C233.108 482.377 234.15 482.646 234.587 483.453C235.058 484.26 234.789 485.269 233.982 485.74C233.713 485.909 233.444 485.976 233.142 485.976C232.57 485.976 231.999 485.673 231.697 485.135ZM246.285 476.693C245.815 475.885 246.083 474.843 246.89 474.405C247.697 473.935 248.739 474.204 249.176 475.011C249.647 475.818 249.378 476.861 248.571 477.298C248.302 477.466 248.033 477.533 247.731 477.533C247.159 477.533 246.588 477.231 246.285 476.693ZM260.874 468.25C260.403 467.443 260.672 466.4 261.479 465.963C262.286 465.492 263.328 465.761 263.765 466.569C264.235 467.376 263.966 468.385 263.16 468.856C262.891 468.99 262.622 469.091 262.319 469.091C261.748 469.091 261.176 468.788 260.874 468.25ZM275.462 459.808C274.992 459.001 275.261 457.958 276.068 457.521C276.874 457.05 277.883 457.319 278.353 458.126C278.824 458.934 278.555 459.976 277.748 460.413C277.479 460.582 277.21 460.649 276.908 460.649C276.336 460.649 275.765 460.346 275.462 459.808ZM290.051 451.366C289.581 450.559 289.849 449.516 290.656 449.079C291.463 448.608 292.471 448.877 292.942 449.684C293.413 450.491 293.144 451.534 292.337 451.971C292.068 452.139 291.765 452.207 291.497 452.207C290.925 452.207 290.354 451.904 290.051 451.366ZM304.64 442.923C304.169 442.116 304.438 441.107 305.245 440.636C306.052 440.165 307.06 440.434 307.531 441.242C308.001 442.049 307.732 443.092 306.926 443.529C306.657 443.697 306.388 443.764 306.085 443.764C305.514 443.764 304.942 443.462 304.64 442.923ZM319.228 434.481C318.758 433.674 319.027 432.631 319.834 432.194C320.64 431.723 321.682 431.992 322.119 432.799C322.59 433.607 322.321 434.649 321.514 435.087C321.245 435.255 320.976 435.322 320.674 435.322C320.102 435.322 319.531 435.019 319.228 434.481ZM333.817 426.072C333.346 425.265 333.615 424.223 334.422 423.785C335.229 423.314 336.237 423.583 336.708 424.391C337.179 425.198 336.91 426.241 336.103 426.678C335.834 426.812 335.565 426.913 335.263 426.913C334.691 426.913 334.12 426.611 333.817 426.072ZM348.406 417.63C347.935 416.823 348.204 415.78 349.011 415.343C349.818 414.872 350.86 415.141 351.297 415.948C351.767 416.756 351.498 417.798 350.692 418.236C350.423 418.404 350.154 418.471 349.851 418.471C349.28 418.471 348.708 418.168 348.406 417.63ZM362.994 409.188C362.524 408.381 362.793 407.338 363.599 406.901C364.406 406.43 365.448 406.699 365.885 407.506C366.356 408.313 366.087 409.356 365.28 409.793C365.011 409.962 364.742 410.029 364.44 410.029C363.868 410.029 363.297 409.726 362.994 409.188ZM377.583 400.746C377.112 399.938 377.381 398.929 378.188 398.458C378.995 397.988 380.037 398.257 380.474 399.064C380.945 399.871 380.676 400.914 379.869 401.351C379.6 401.519 379.331 401.586 379.028 401.586C378.457 401.586 377.886 401.284 377.583 400.746ZM392.172 392.303C391.701 391.496 391.97 390.453 392.777 390.016C393.584 389.545 394.592 389.814 395.063 390.622C395.533 391.429 395.264 392.471 394.458 392.909C394.189 393.077 393.92 393.144 393.617 393.144C393.046 393.144 392.474 392.841 392.172 392.303ZM406.76 383.861C406.29 383.054 406.559 382.011 407.365 381.574C408.172 381.103 409.214 381.372 409.651 382.179C410.122 382.986 409.853 383.996 409.046 384.466C408.777 384.635 408.508 384.702 408.206 384.702C407.634 384.702 407.063 384.399 406.76 383.861ZM421.349 375.419C420.878 374.611 421.147 373.569 421.954 373.132C422.761 372.661 423.769 372.93 424.24 373.737C424.71 374.544 424.442 375.587 423.635 376.024C423.366 376.192 423.097 376.26 422.794 376.26C422.223 376.26 421.652 375.957 421.349 375.419ZM435.938 366.976C435.467 366.169 435.736 365.16 436.543 364.689C437.349 364.218 438.358 364.487 438.829 365.295C439.299 366.102 439.03 367.111 438.223 367.582C437.955 367.75 437.686 367.817 437.383 367.817C436.812 367.817 436.24 367.515 435.938 366.976ZM450.526 358.534C450.056 357.727 450.325 356.684 451.131 356.247C451.938 355.776 452.947 356.045 453.417 356.852C453.888 357.66 453.619 358.702 452.812 359.14C452.543 359.308 452.274 359.375 451.972 359.375C451.4 359.375 450.829 359.072 450.526 358.534ZM465.115 350.092C464.644 349.285 464.913 348.242 465.72 347.805C466.527 347.334 467.569 347.603 468.006 348.41C468.476 349.217 468.208 350.26 467.401 350.697C467.132 350.832 466.863 350.933 466.56 350.933C465.989 350.933 465.418 350.63 465.115 350.092ZM479.704 341.65C479.233 340.842 479.502 339.833 480.309 339.362C481.115 338.891 482.157 339.161 482.594 339.968C483.065 340.775 482.796 341.818 481.989 342.255C481.721 342.423 481.452 342.49 481.149 342.49C480.578 342.49 480.006 342.188 479.704 341.65ZM494.292 333.207C493.822 332.4 494.091 331.391 494.897 330.92C495.704 330.449 496.746 330.718 497.183 331.525C497.654 332.333 497.385 333.375 496.578 333.813C496.309 333.981 496.04 334.048 495.738 334.048C495.166 334.048 494.595 333.745 494.292 333.207ZM508.881 324.765C508.41 323.958 508.679 322.949 509.486 322.478C510.293 322.007 511.335 322.276 511.772 323.083C512.242 323.89 511.973 324.933 511.167 325.37C510.898 325.539 510.629 325.606 510.326 325.606C509.755 325.606 509.183 325.303 508.881 324.765ZM523.47 316.323C522.999 315.515 523.268 314.473 524.075 314.035C524.881 313.565 525.923 313.834 526.36 314.641C526.831 315.448 526.562 316.457 525.755 316.928C525.486 317.096 525.218 317.163 524.915 317.163C524.344 317.163 523.772 316.861 523.47 316.323ZM538.058 307.88C537.588 307.073 537.857 306.064 538.663 305.593C539.47 305.122 540.479 305.391 540.949 306.199C541.42 307.006 541.151 308.015 540.344 308.486C540.075 308.654 539.773 308.721 539.504 308.721C538.932 308.721 538.361 308.418 538.058 307.88ZM552.647 299.438C552.176 298.631 552.445 297.622 553.252 297.151C554.059 296.68 555.067 296.949 555.538 297.756C556.008 298.564 555.739 299.606 554.933 300.043C554.664 300.212 554.395 300.279 554.092 300.279C553.521 300.279 552.949 299.976 552.647 299.438ZM567.236 290.996C566.765 290.188 567.034 289.179 567.841 288.709C568.647 288.238 569.656 288.507 570.126 289.314C570.597 290.121 570.328 291.164 569.521 291.601C569.252 291.769 568.95 291.837 568.681 291.837C568.11 291.837 567.538 291.534 567.236 290.996ZM581.824 282.553C581.354 281.746 581.623 280.737 582.429 280.266C583.236 279.795 584.244 280.064 584.715 280.872C585.186 281.679 584.917 282.722 584.11 283.159C583.841 283.327 583.572 283.394 583.27 283.394C582.698 283.394 582.127 283.092 581.824 282.553ZM596.413 274.111C595.942 273.304 596.211 272.261 597.018 271.824C597.825 271.353 598.867 271.622 599.304 272.429C599.774 273.237 599.505 274.246 598.699 274.717C598.43 274.885 598.161 274.952 597.858 274.952C597.287 274.952 596.715 274.649 596.413 274.111ZM611.001 265.669C610.531 264.862 610.8 263.819 611.607 263.382C612.413 262.911 613.455 263.18 613.892 263.987C614.363 264.794 614.094 265.803 613.287 266.274C613.018 266.442 612.749 266.51 612.447 266.51C611.875 266.51 611.304 266.207 611.001 265.669ZM625.59 257.227C625.12 256.419 625.388 255.377 626.195 254.939C627.002 254.469 628.044 254.738 628.481 255.545C628.952 256.352 628.683 257.361 627.876 257.832C627.607 258 627.338 258.067 627.036 258.067C626.464 258.067 625.893 257.765 625.59 257.227ZM640.179 248.784C639.708 247.977 639.977 246.934 640.784 246.497C641.591 246.026 642.633 246.295 643.07 247.103C643.54 247.91 643.271 248.952 642.465 249.39C642.196 249.558 641.927 249.625 641.624 249.625C641.053 249.625 640.481 249.322 640.179 248.784Z" fill="#025FA9"/>
<path d="M160.23 528.12C159.793 528.12 159.356 527.952 159.054 527.616C158.986 527.548 158.919 527.447 158.852 527.346C158.785 527.246 158.751 527.145 158.717 527.044C158.684 526.943 158.65 526.842 158.617 526.741C158.617 526.64 158.583 526.506 158.583 526.405C158.583 526.304 158.583 526.169 158.617 526.068C158.617 525.967 158.684 525.867 158.717 525.766C158.751 525.665 158.818 525.564 158.852 525.463C158.919 525.362 158.986 525.295 159.054 525.194C159.121 525.127 159.222 525.059 159.323 524.992C159.423 524.925 159.524 524.891 159.625 524.824C159.726 524.79 159.827 524.757 159.928 524.723C160.129 524.689 160.365 524.689 160.6 524.723C160.701 524.723 160.802 524.79 160.902 524.824C161.003 524.858 161.104 524.925 161.205 524.992C161.306 525.059 161.373 525.127 161.474 525.194C161.541 525.261 161.608 525.362 161.676 525.463C161.743 525.564 161.776 525.665 161.844 525.766C161.877 525.867 161.911 525.967 161.944 526.068C161.944 526.169 161.978 526.304 161.978 526.405C161.978 526.506 161.978 526.64 161.944 526.741C161.944 526.842 161.877 526.943 161.844 527.044C161.81 527.145 161.743 527.246 161.676 527.346C161.608 527.447 161.541 527.515 161.474 527.616C161.171 527.918 160.734 528.12 160.297 528.12H160.23Z" fill="#025FA9"/>
<path d="M145.072 519.611C144.265 519.14 143.996 518.131 144.467 517.324C144.937 516.516 145.946 516.247 146.752 516.718C147.559 517.189 147.828 518.198 147.357 519.005C147.055 519.543 146.483 519.846 145.912 519.846C145.61 519.846 145.341 519.779 145.072 519.611ZM130.752 511.337C129.945 510.866 129.676 509.857 130.147 509.049C130.617 508.242 131.626 507.973 132.433 508.444C133.239 508.915 133.508 509.924 133.038 510.731C132.735 511.269 132.164 511.572 131.592 511.572C131.323 511.572 131.021 511.505 130.752 511.337ZM116.432 503.062C115.625 502.592 115.357 501.583 115.827 500.775C116.298 499.968 117.306 499.699 118.113 500.17C118.92 500.641 119.189 501.65 118.718 502.457C118.415 502.995 117.844 503.298 117.273 503.298C116.97 503.298 116.701 503.231 116.432 503.062ZM102.112 494.788C101.306 494.317 101.037 493.308 101.507 492.501C101.978 491.694 102.986 491.425 103.793 491.896C104.6 492.367 104.869 493.376 104.398 494.183C104.096 494.721 103.524 495.024 102.953 495.024C102.65 495.024 102.381 494.956 102.112 494.788ZM87.7927 486.514C86.986 486.043 86.7171 485.034 87.1877 484.227C87.6583 483.42 88.6667 483.151 89.4735 483.622C90.2802 484.093 90.5491 485.102 90.0785 485.909C89.776 486.447 89.2045 486.75 88.6331 486.75C88.3642 486.75 88.0617 486.682 87.7927 486.514ZM73.473 478.24C72.6663 477.769 72.3973 476.76 72.8679 475.953C73.3385 475.146 74.347 474.877 75.1537 475.347C75.9605 475.818 76.2294 476.827 75.7588 477.635C75.4562 478.173 74.8848 478.476 74.3134 478.476C74.0108 478.476 73.7419 478.408 73.473 478.24ZM59.1533 469.966C58.3465 469.495 58.0776 468.486 58.5482 467.679C59.0188 466.872 60.0272 466.602 60.834 467.073C61.6407 467.544 61.9096 468.553 61.439 469.361C61.1365 469.899 60.5651 470.201 59.9936 470.201C59.7247 470.201 59.4222 470.134 59.1533 469.966ZM44.8335 461.692C44.0268 461.221 43.7579 460.212 44.2285 459.405C44.6991 458.597 45.7075 458.328 46.5142 458.799C47.321 459.27 47.5899 460.279 47.1193 461.086C46.8168 461.625 46.2453 461.927 45.6739 461.927C45.3713 461.927 45.1024 461.86 44.8335 461.692ZM30.5138 453.418C29.707 452.947 29.4381 451.938 29.9087 451.131C30.3793 450.323 31.3878 450.054 32.1945 450.525C33.0013 450.996 33.2702 452.005 32.7996 452.812C32.497 453.35 31.9256 453.653 31.3541 453.653C31.0516 453.653 30.7827 453.586 30.5138 453.418ZM16.194 445.144C15.3873 444.673 15.1184 443.664 15.589 442.856C16.0596 442.049 17.068 441.78 17.8748 442.251C18.6815 442.722 18.9504 443.731 18.4798 444.538C18.1773 445.076 17.6059 445.379 17.0344 445.379C16.7319 445.379 16.463 445.312 16.194 445.144Z" fill="#025FA9"/>
<path d="M138.347 294.259C137.406 294.259 136.666 293.519 136.666 292.577V190.294C136.666 189.352 137.406 188.612 138.347 188.612C139.288 188.612 140.027 189.352 140.027 190.294V292.577C140.027 293.519 139.288 294.259 138.347 294.259Z" fill="#015DA7"/>
<path d="M107.054 312.32C106.113 312.32 105.373 311.58 105.373 310.638V236.037C105.373 235.095 106.113 234.355 107.054 234.355C107.995 234.355 108.734 235.095 108.734 236.037V310.638C108.734 311.58 107.995 312.32 107.054 312.32Z" fill="#015DA7"/>
<path d="M75.7608 330.382C74.8196 330.382 74.0801 329.642 74.0801 328.701V267.755C74.0801 266.813 74.8196 266.073 75.7608 266.073C76.702 266.073 77.4415 266.813 77.4415 267.755V328.701C77.4415 329.642 76.702 330.382 75.7608 330.382Z" fill="#015DA7"/>
<path d="M44.503 348.477C43.5618 348.477 42.8223 347.737 42.8223 346.795V290.356C42.8223 289.415 43.5618 288.675 44.503 288.675C45.4442 288.675 46.1837 289.415 46.1837 290.356V346.795C46.1837 347.737 45.4442 348.477 44.503 348.477Z" fill="#015DA7"/>
<path d="M13.1944 366.54C12.2532 366.54 11.5137 365.8 11.5137 364.858V303.912C11.5137 302.97 12.2532 302.23 13.1944 302.23C14.1356 302.23 14.8751 302.97 14.8751 303.912V364.858C14.8751 365.8 14.1356 366.54 13.1944 366.54Z" fill="#015DA7"/>
<path d="M13.0949 305.325C12.3554 305.325 11.6831 304.82 11.4814 304.08C11.2461 303.172 11.7503 302.264 12.6579 301.995C58.2054 289.415 94.4418 250.029 116.829 219.22C127.754 204.185 138.04 187.435 145.771 172.03C153.267 157.164 155.351 149.697 155.217 148.318C154.88 147.544 155.183 146.636 155.923 146.199C156.729 145.728 157.771 145.997 158.208 146.804C158.645 147.544 159.519 149.058 155.149 159.72C147.956 177.277 131.115 208.053 107.35 237.013C93.9039 253.393 79.7859 267.317 65.3653 278.35C48.3564 291.4 30.9105 300.447 13.5319 305.257C13.3974 305.291 13.2294 305.325 13.0949 305.325Z" fill="#015DA7"/>
<path d="M520.041 73.2449C519.1 73.2449 518.36 72.5049 518.36 71.5631V14.0479C518.36 13.1061 519.1 12.3661 520.041 12.3661C520.982 12.3661 521.722 13.1061 521.722 14.0479V71.5631C521.722 72.5049 520.982 73.2449 520.041 73.2449Z" fill="#015DA7"/>
<path d="M488.744 91.3073C487.803 91.3073 487.063 90.5673 487.063 89.6256V28.6796C487.063 27.7378 487.803 26.9979 488.744 26.9979C489.685 26.9979 490.425 27.7378 490.425 28.6796V89.6256C490.425 90.5673 489.685 91.3073 488.744 91.3073Z" fill="#015DA7"/>
<path d="M457.482 109.369C456.541 109.369 455.802 108.629 455.802 107.687V34.1281C455.802 33.1863 456.541 32.4464 457.482 32.4464C458.424 32.4464 459.163 33.1863 459.163 34.1281V107.687C459.163 108.629 458.424 109.369 457.482 109.369Z" fill="#015DA7"/>
<path d="M426.186 127.464C425.244 127.464 424.505 126.724 424.505 125.783V23.6343C424.505 22.6925 425.244 21.9526 426.186 21.9526C427.127 21.9526 427.866 22.6925 427.866 23.6343V125.783C427.866 126.724 427.127 127.464 426.186 127.464Z" fill="#015DA7"/>
<path d="M459.838 35.2044C453.754 35.2044 447.939 34.4644 442.493 32.9509C427.199 28.7129 414.66 18.3534 406.257 3.01605C405.82 2.20882 406.122 1.16614 406.929 0.728892C407.736 0.291641 408.778 0.594353 409.215 1.40158C417.148 15.9318 428.98 25.7194 443.401 29.6883C464.006 35.4062 490.226 29.4865 519.201 12.5683C520.008 12.0974 521.016 12.3665 521.487 13.1737C521.958 13.9809 521.689 14.99 520.882 15.4609C505.487 24.4413 490.864 30.4283 477.385 33.2536C471.301 34.5317 465.418 35.1708 459.805 35.1708L459.838 35.2044Z" fill="#015DA7"/>
<path d="M518.562 302.095L547.067 285.614L415.399 209.566L386.928 226.013L518.562 302.095Z" fill="white"/>
<path d="M518.563 303.777C518.26 303.777 517.991 303.71 517.722 303.541L386.088 227.493C385.584 227.191 385.248 226.653 385.248 226.047C385.248 225.442 385.584 224.904 386.088 224.601L414.593 208.153C415.098 207.851 415.77 207.851 416.274 208.153L547.908 284.201C548.412 284.504 548.749 285.042 548.749 285.648C548.749 286.253 548.412 286.791 547.908 287.094L519.403 303.541C519.134 303.676 518.865 303.777 518.563 303.777ZM390.29 226.047L518.563 300.144L543.706 285.614L415.434 211.517L390.29 226.047Z" fill="#015DA7"/>
<path d="M547.062 285.614V240.847L415.395 164.799V209.566L547.062 285.614Z" fill="white"/>
<path d="M547.065 287.296C546.762 287.296 546.493 287.229 546.224 287.061L414.59 211.013C414.086 210.71 413.75 210.172 413.75 209.566V164.799C413.75 164.193 414.086 163.655 414.59 163.352C415.095 163.05 415.767 163.05 416.271 163.352L547.905 239.4C548.409 239.703 548.745 240.241 548.745 240.847V285.614C548.745 286.22 548.409 286.758 547.905 287.061C547.636 287.195 547.367 287.296 547.065 287.296ZM417.111 208.591L545.384 282.688V241.788L417.111 167.691V208.591Z" fill="#015DA7"/>
<path d="M547.067 240.847L518.562 257.294L386.928 181.246L415.399 164.799L547.067 240.847Z" fill="white"/>
<path d="M518.563 258.976C518.26 258.976 517.991 258.908 517.722 258.74L386.088 182.692C385.584 182.389 385.248 181.851 385.248 181.246C385.248 180.64 385.584 180.102 386.088 179.8L414.593 163.352C415.098 163.05 415.77 163.05 416.274 163.352L547.908 239.4C548.412 239.703 548.749 240.241 548.749 240.847C548.749 241.452 548.412 241.99 547.908 242.293L519.403 258.74C519.134 258.875 518.865 258.976 518.563 258.976ZM390.29 181.246L518.563 255.343L543.706 240.813L415.434 166.716L390.29 181.246Z" fill="#015DA7"/>
<path d="M518.562 257.294V302.095L386.928 226.014V181.246L518.562 257.294Z" fill="#71ADD2"/>
<path d="M518.563 303.777C518.26 303.777 517.991 303.71 517.722 303.542L386.088 227.494C385.584 227.191 385.248 226.653 385.248 226.047V181.28C385.248 180.674 385.584 180.136 386.088 179.833C386.593 179.531 387.265 179.531 387.769 179.833L519.403 255.881C519.907 256.184 520.243 256.722 520.243 257.328V302.095C520.243 302.701 519.907 303.239 519.403 303.542C519.134 303.676 518.865 303.777 518.563 303.777ZM388.609 225.072L516.882 299.169V258.269L388.609 184.172V225.072Z" fill="#015DA7"/>
<path d="M547.068 240.846V285.614L518.562 302.095V257.294L547.068 240.846Z" fill="white"/>
<path d="M518.564 303.777C518.261 303.777 517.992 303.71 517.723 303.542C517.219 303.239 516.883 302.701 516.883 302.095V257.328C516.883 256.722 517.219 256.184 517.723 255.881L546.228 239.434C546.732 239.131 547.405 239.131 547.909 239.434C548.413 239.737 548.749 240.275 548.749 240.88V285.648C548.749 286.253 548.413 286.791 547.909 287.094L519.404 303.542C519.135 303.676 518.866 303.777 518.564 303.777ZM520.244 258.269V299.169L545.388 284.639V243.739L520.244 258.269Z" fill="#015DA7"/>
<path d="M523.502 254.469L542.124 243.672L410.49 167.624L391.834 178.387L523.502 254.469Z" fill="white"/>
<path d="M523.5 256.15C523.198 256.15 522.929 256.083 522.66 255.915L391.026 179.867C390.522 179.564 390.186 179.026 390.186 178.421C390.186 177.815 390.522 177.277 391.026 176.974L409.682 166.211C410.186 165.909 410.858 165.909 411.363 166.211L542.997 242.259C543.501 242.562 543.837 243.1 543.837 243.706C543.837 244.311 543.501 244.849 542.997 245.152L524.341 255.915C524.072 256.049 523.803 256.15 523.5 256.15ZM395.228 178.421L523.5 252.518L538.795 243.672L410.522 169.575L395.228 178.421Z" fill="#015DA7"/>
<path d="M542.122 243.672V226.451L410.488 150.403V167.624L542.122 243.672Z" fill="white"/>
<path d="M542.123 245.354C541.821 245.354 541.552 245.287 541.283 245.118L409.649 169.07C409.145 168.768 408.809 168.23 408.809 167.624V150.403C408.809 149.798 409.145 149.26 409.649 148.957C410.153 148.654 410.825 148.654 411.33 148.957L542.964 225.005C543.468 225.308 543.804 225.846 543.804 226.451V243.672C543.804 244.278 543.468 244.816 542.964 245.118C542.695 245.253 542.426 245.354 542.123 245.354ZM412.17 166.649L540.443 240.746V227.393L412.17 153.296V166.649Z" fill="#015DA7"/>
<path d="M542.124 226.451L523.502 237.214L391.834 161.166L410.49 150.403L542.124 226.451Z" fill="white"/>
<path d="M523.5 238.896C523.198 238.896 522.929 238.829 522.66 238.661L391.026 162.613C390.522 162.31 390.186 161.772 390.186 161.166C390.186 160.561 390.522 160.023 391.026 159.72L409.682 148.957C410.186 148.654 410.858 148.654 411.363 148.957L542.997 225.005C543.501 225.308 543.837 225.846 543.837 226.451C543.837 227.057 543.501 227.595 542.997 227.897L524.341 238.661C524.072 238.795 523.803 238.896 523.5 238.896ZM395.228 161.166L523.5 235.263L538.795 226.418L410.522 152.32L395.228 161.166Z" fill="#015DA7"/>
<path d="M523.502 237.214V254.469L391.834 178.387V161.166L523.502 237.214Z" fill="#D2E6DF"/>
<path d="M523.5 256.15C523.198 256.15 522.929 256.083 522.66 255.915L391.026 179.867C390.522 179.564 390.186 179.026 390.186 178.421V161.2C390.186 160.594 390.522 160.056 391.026 159.753C391.53 159.451 392.202 159.451 392.707 159.753L524.341 235.801C524.845 236.104 525.181 236.642 525.181 237.248V254.469C525.181 255.074 524.845 255.612 524.341 255.915C524.072 256.049 523.803 256.15 523.5 256.15ZM393.547 177.445L521.82 251.542V238.189L393.547 164.092V177.445Z" fill="#015DA7"/>
<path d="M542.126 226.452V243.673L523.504 254.469V237.215L542.126 226.452Z" fill="white"/>
<path d="M523.501 256.151C523.199 256.151 522.93 256.084 522.661 255.916C522.156 255.613 521.82 255.075 521.82 254.469V237.248C521.82 236.643 522.156 236.105 522.661 235.802L541.317 225.039C541.821 224.736 542.493 224.736 542.997 225.039C543.502 225.342 543.838 225.88 543.838 226.485V243.706C543.838 244.312 543.502 244.85 542.997 245.153L524.341 255.916C524.072 256.05 523.804 256.151 523.501 256.151ZM525.182 238.224V251.577L540.476 242.731V229.378L525.182 238.224Z" fill="#015DA7"/>
<path d="M280.777 439.459L309.282 422.978L177.648 346.93L149.143 363.378L280.777 439.459Z" fill="white"/>
<path d="M280.778 441.141C280.475 441.141 280.206 441.074 279.937 440.906L148.303 364.858C147.799 364.555 147.463 364.017 147.463 363.411C147.463 362.806 147.799 362.268 148.303 361.965L176.808 345.518C177.312 345.215 177.985 345.215 178.489 345.518L310.123 421.566C310.627 421.868 310.963 422.406 310.963 423.012C310.963 423.617 310.627 424.156 310.123 424.458L281.618 440.906C281.349 441.04 281.08 441.141 280.778 441.141ZM152.505 363.411L280.778 437.508L305.921 422.978L177.649 348.881L152.505 363.411Z" fill="#015DA7"/>
<path d="M309.28 422.978V378.211L177.646 302.129V346.931L309.28 422.978Z" fill="white"/>
<path d="M309.282 424.66C308.979 424.66 308.71 424.593 308.441 424.425L176.807 348.377C176.303 348.074 175.967 347.536 175.967 346.931V302.163C175.967 301.557 176.303 301.019 176.807 300.717C177.311 300.414 177.984 300.414 178.488 300.717L310.122 376.764C310.626 377.067 310.962 377.605 310.962 378.211V422.978C310.962 423.584 310.626 424.122 310.122 424.425C309.853 424.559 309.584 424.66 309.282 424.66ZM179.328 345.955L307.601 420.052V379.153L179.328 305.055V345.955Z" fill="#015DA7"/>
<path d="M309.282 378.211L280.777 394.658L149.143 318.61L177.648 302.129L309.282 378.211Z" fill="white"/>
<path d="M280.778 396.34C280.475 396.34 280.206 396.273 279.937 396.104L148.303 320.056C147.799 319.754 147.463 319.216 147.463 318.61C147.463 318.005 147.799 317.467 148.303 317.164L176.808 300.717C177.312 300.414 177.985 300.414 178.489 300.717L310.123 376.764C310.627 377.067 310.963 377.605 310.963 378.211C310.963 378.816 310.627 379.354 310.123 379.657L281.618 396.104C281.349 396.239 281.08 396.34 280.778 396.34ZM152.505 318.61L280.778 392.707L305.921 378.177L177.649 304.08L152.505 318.61Z" fill="#015DA7"/>
<path d="M280.777 394.658V439.459L149.143 363.378V318.61L280.777 394.658Z" fill="#71ADD2"/>
<path d="M280.778 441.141C280.475 441.141 280.206 441.074 279.937 440.906L148.303 364.858C147.799 364.555 147.463 364.017 147.463 363.411V318.644C147.463 318.038 147.799 317.5 148.303 317.197C148.807 316.895 149.48 316.895 149.984 317.197L281.618 393.245C282.122 393.548 282.458 394.086 282.458 394.691V439.459C282.458 440.065 282.122 440.603 281.618 440.906C281.349 441.04 281.08 441.141 280.778 441.141ZM150.824 362.436L279.097 436.533V395.633L150.824 321.536V362.436Z" fill="#015DA7"/>
<path d="M309.281 378.211V422.978L280.776 439.459V394.658L309.281 378.211Z" fill="white"/>
<path d="M280.773 441.141C280.471 441.141 280.202 441.074 279.933 440.906C279.429 440.603 279.093 440.065 279.093 439.459V394.692C279.093 394.086 279.429 393.548 279.933 393.245L308.438 376.798C308.942 376.495 309.615 376.495 310.119 376.798C310.623 377.101 310.959 377.639 310.959 378.244V423.012C310.959 423.617 310.623 424.156 310.119 424.458L281.614 440.906C281.345 441.04 281.076 441.141 280.773 441.141ZM282.454 395.633V436.533L307.598 422.003V381.103L282.454 395.633Z" fill="#015DA7"/>
<path d="M285.718 391.832L304.374 381.036L172.706 304.988L154.084 315.751L285.718 391.832Z" fill="white"/>
<path d="M285.715 393.514C285.413 393.514 285.144 393.447 284.875 393.279L153.241 317.231C152.737 316.928 152.4 316.39 152.4 315.784C152.4 315.179 152.737 314.641 153.241 314.338L171.897 303.575C172.401 303.272 173.073 303.272 173.577 303.575L305.212 379.623C305.716 379.926 306.052 380.464 306.052 381.069C306.052 381.675 305.716 382.213 305.212 382.516L286.555 393.279C286.287 393.413 286.018 393.514 285.715 393.514ZM157.443 315.784L285.715 389.882L301.01 381.036L172.737 306.939L157.443 315.784Z" fill="#015DA7"/>
<path d="M304.373 381.036V363.815L172.705 287.767V304.988L304.373 381.036Z" fill="white"/>
<path d="M304.371 382.717C304.069 382.717 303.8 382.65 303.531 382.482L171.897 306.434C171.393 306.131 171.057 305.593 171.057 304.988V287.767C171.057 287.161 171.393 286.623 171.897 286.32C172.401 286.018 173.074 286.018 173.578 286.32L305.212 362.368C305.716 362.671 306.052 363.209 306.052 363.815V381.036C306.052 381.641 305.716 382.179 305.212 382.482C304.943 382.616 304.674 382.717 304.371 382.717ZM174.418 304.012L302.691 378.109V364.756L174.418 290.659V304.012Z" fill="#015DA7"/>
<path d="M304.374 363.815L285.718 374.578L154.084 298.53L172.706 287.767L304.374 363.815Z" fill="white"/>
<path d="M285.715 376.26C285.413 376.26 285.144 376.192 284.875 376.024L153.241 299.976C152.737 299.674 152.4 299.135 152.4 298.53C152.4 297.925 152.737 297.386 153.241 297.084L171.897 286.321C172.401 286.018 173.073 286.018 173.577 286.321L305.212 362.369C305.716 362.671 306.052 363.209 306.052 363.815C306.052 364.42 305.716 364.958 305.212 365.261L286.555 376.024C286.287 376.159 286.018 376.26 285.715 376.26ZM157.443 298.53L285.715 372.627L301.01 363.781L172.737 289.684L157.443 298.53Z" fill="#015DA7"/>
<path d="M285.718 374.578V391.833L154.084 315.751V298.53L285.718 374.578Z" fill="#D2E6DF"/>
<path d="M285.715 393.514C285.413 393.514 285.144 393.447 284.875 393.278L153.241 317.231C152.737 316.928 152.4 316.39 152.4 315.784V298.563C152.4 297.958 152.737 297.42 153.241 297.117C153.745 296.814 154.417 296.814 154.921 297.117L286.555 373.165C287.06 373.468 287.396 374.006 287.396 374.611V391.832C287.396 392.438 287.06 392.976 286.555 393.278C286.287 393.413 286.018 393.514 285.715 393.514ZM155.762 314.809L284.034 388.906V375.553L155.762 301.456V314.809Z" fill="#015DA7"/>
<path d="M304.37 363.815V381.036L285.714 391.833V374.578L304.37 363.815Z" fill="white"/>
<path d="M285.715 393.514C285.412 393.514 285.143 393.447 284.875 393.279C284.37 392.976 284.034 392.438 284.034 391.832V374.611C284.034 374.006 284.37 373.468 284.875 373.165L303.531 362.402C304.035 362.099 304.707 362.099 305.211 362.402C305.715 362.705 306.052 363.243 306.052 363.848V381.069C306.052 381.675 305.715 382.213 305.211 382.516L286.555 393.279C286.286 393.413 286.017 393.514 285.715 393.514ZM287.396 375.587V388.94L302.69 380.094V366.741L287.396 375.587Z" fill="#015DA7"/>
<path d="M562.726 214.578L651.704 163.151L520.036 87.1028L431.059 138.497L562.726 214.578Z" fill="white"/>
<path d="M562.729 216.26C562.426 216.26 562.157 216.193 561.888 216.025L430.254 139.977C429.75 139.674 429.414 139.136 429.414 138.53C429.414 137.925 429.75 137.387 430.254 137.084L519.232 85.6902C519.736 85.3875 520.408 85.3875 520.912 85.6902L652.547 161.738C653.051 162.041 653.387 162.579 653.387 163.184C653.387 163.79 653.051 164.328 652.547 164.631L563.569 216.025C563.3 216.159 563.031 216.26 562.729 216.26ZM434.456 138.53L562.729 212.627L648.345 163.151L520.072 89.0537L434.456 138.53Z" fill="#015DA7"/>
<path d="M651.703 163.151V147.612L520.035 71.564V87.1032L651.703 163.151Z" fill="white"/>
<path d="M651.705 164.833C651.403 164.833 651.134 164.765 650.865 164.597L519.231 88.5493C518.727 88.2466 518.391 87.7084 518.391 87.103V71.5638C518.391 70.9583 518.727 70.4202 519.231 70.1175C519.735 69.8148 520.407 69.8148 520.912 70.1175L652.546 146.165C653.05 146.468 653.386 147.006 653.386 147.612V163.151C653.386 163.756 653.05 164.294 652.546 164.597C652.277 164.732 652.008 164.833 651.705 164.833ZM521.752 86.1276L650.025 160.225V148.587L521.752 74.49V86.1276Z" fill="#015DA7"/>
<path d="M562.727 199.039V214.578L431.06 138.497V122.991L562.727 199.039Z" fill="white"/>
<path d="M562.73 216.26C562.427 216.26 562.158 216.193 561.889 216.024L430.255 139.977C429.751 139.674 429.415 139.136 429.415 138.53V122.991C429.415 122.386 429.751 121.847 430.255 121.545C430.76 121.242 431.432 121.242 431.936 121.545L563.57 197.593C564.074 197.895 564.41 198.434 564.41 199.039V214.578C564.41 215.184 564.074 215.722 563.57 216.024C563.301 216.159 563.032 216.26 562.73 216.26ZM432.776 137.555L561.049 211.652V200.014L432.776 125.917V137.555Z" fill="#015DA7"/>
<path d="M651.707 147.612V163.151L562.729 214.578V199.039L651.707 147.612Z" fill="white"/>
<path d="M562.728 216.26C562.425 216.26 562.156 216.193 561.887 216.025C561.383 215.722 561.047 215.184 561.047 214.578V199.039C561.047 198.434 561.383 197.896 561.887 197.593L650.865 146.199C651.369 145.896 652.041 145.896 652.545 146.199C653.05 146.502 653.386 147.04 653.386 147.645V163.185C653.386 163.79 653.05 164.328 652.545 164.631L563.568 216.025C563.299 216.159 563.03 216.26 562.728 216.26ZM564.408 200.015V211.652L650.024 162.176V150.538L564.408 200.015Z" fill="#015DA7"/>
<path d="M265.14 386.485L562.729 214.578L431.061 138.497L133.473 310.437L265.14 386.485Z" fill="white"/>
<path d="M265.143 388.167C264.84 388.167 264.571 388.099 264.303 387.931L132.668 311.883C132.164 311.581 131.828 311.042 131.828 310.437C131.828 309.832 132.164 309.293 132.668 308.991L430.257 137.084C430.761 136.781 431.433 136.781 431.938 137.084L563.572 213.132C564.076 213.435 564.412 213.973 564.412 214.578C564.412 215.184 564.076 215.722 563.572 216.024L265.983 387.931C265.714 388.066 265.445 388.167 265.143 388.167ZM136.87 310.437L265.143 384.534L559.37 214.578L431.097 140.481L136.837 310.437H136.87Z" fill="#015DA7"/>
<path d="M562.73 214.578V199.039L431.062 122.991V138.496L562.73 214.578Z" fill="white"/>
<path d="M562.733 216.26C562.43 216.26 562.161 216.193 561.892 216.024L430.258 139.976C429.754 139.674 429.418 139.136 429.418 138.53V122.991C429.418 122.385 429.754 121.847 430.258 121.545C430.763 121.242 431.435 121.242 431.939 121.545L563.573 197.593C564.077 197.895 564.413 198.433 564.413 199.039V214.578C564.413 215.183 564.077 215.722 563.573 216.024C563.304 216.159 563.035 216.26 562.733 216.26ZM432.779 137.555L561.052 211.652V200.014L432.779 125.917V137.555Z" fill="#015DA7"/>
<path d="M265.139 370.946V386.485L133.472 310.437V294.898L265.139 370.946Z" fill="white"/>
<path d="M265.142 388.166C264.839 388.166 264.57 388.099 264.302 387.931L132.668 311.883C132.163 311.58 131.827 311.042 131.827 310.437V294.897C131.827 294.292 132.163 293.754 132.668 293.451C133.172 293.148 133.844 293.148 134.348 293.451L265.982 369.499C266.486 369.802 266.823 370.34 266.823 370.945V386.485C266.823 387.09 266.486 387.628 265.982 387.931C265.713 388.065 265.444 388.166 265.142 388.166ZM135.189 309.461L263.461 383.558V371.921L135.189 297.824V309.461Z" fill="#015DA7"/>
<path d="M562.73 199.039V214.578L265.142 386.485V370.946L562.73 199.039Z" fill="white"/>
<path d="M265.143 388.167C264.84 388.167 264.571 388.099 264.302 387.931C263.798 387.629 263.462 387.09 263.462 386.485V370.946C263.462 370.34 263.798 369.802 264.302 369.499L561.891 197.593C562.395 197.29 563.067 197.29 563.571 197.593C564.076 197.895 564.412 198.434 564.412 199.039V214.578C564.412 215.184 564.076 215.722 563.571 216.025L265.983 387.931C265.714 388.066 265.445 388.167 265.143 388.167ZM266.823 371.921V383.559L561.05 213.603V201.965L266.823 371.921Z" fill="#015DA7"/>
<path d="M144.863 455.974L265.135 386.485L133.468 310.437L13.1953 379.893L144.863 455.974Z" fill="white"/>
<path d="M144.864 457.656C144.561 457.656 144.293 457.589 144.024 457.42L12.356 381.372C11.8518 381.07 11.5156 380.532 11.5156 379.926C11.5156 379.321 11.8518 378.783 12.356 378.48L132.628 308.991C133.133 308.688 133.805 308.688 134.309 308.991L265.943 385.039C266.447 385.341 266.783 385.88 266.783 386.485C266.783 387.09 266.447 387.629 265.943 387.931L145.671 457.42C145.402 457.555 145.133 457.656 144.83 457.656H144.864ZM16.5578 379.893L144.83 453.99L261.741 386.451L133.469 312.354L16.5578 379.893Z" fill="#015DA7"/>
<path d="M265.134 386.485V370.946L133.467 294.898V310.437L265.134 386.485Z" fill="white"/>
<path d="M265.137 388.167C264.834 388.167 264.566 388.099 264.297 387.931L132.663 311.883C132.158 311.58 131.822 311.042 131.822 310.437V294.898C131.822 294.292 132.158 293.754 132.663 293.451C133.167 293.149 133.839 293.149 134.343 293.451L265.977 369.499C266.482 369.802 266.818 370.34 266.818 370.946V386.485C266.818 387.09 266.482 387.628 265.977 387.931C265.708 388.066 265.44 388.167 265.137 388.167ZM135.184 309.461L263.456 383.559V371.921L135.184 297.824V309.461Z" fill="#015DA7"/>
<path d="M520.033 71.564C390.618 146.334 142.207 289.853 13.1953 364.354L144.829 440.402C273.707 365.935 522.353 222.315 651.667 147.612L520.033 71.564Z" fill="#D2E6DF"/>
<path d="M144.864 442.117C144.561 442.117 144.293 442.049 144.024 441.881L12.356 365.833C11.8518 365.531 11.5156 364.992 11.5156 364.387C11.5156 363.782 11.8518 363.243 12.356 362.941L519.194 70.1175C519.698 69.8148 520.371 69.8148 520.875 70.1175L652.509 146.165C653.013 146.468 653.349 147.006 653.349 147.612C653.349 148.217 653.013 148.755 652.509 149.058L145.704 441.881C145.435 442.016 145.167 442.117 144.864 442.117ZM16.5578 364.353L144.83 438.451L648.341 147.612L520.068 73.5146L16.5578 364.353Z" fill="#015DA7"/>
<path d="M144.863 440.435V455.974L13.1953 379.892V364.353L144.863 440.435Z" fill="#71ADD2"/>
<path d="M144.864 457.656C144.561 457.656 144.293 457.588 144.024 457.42L12.356 381.372C11.8518 381.07 11.5156 380.531 11.5156 379.926V364.387C11.5156 363.781 11.8518 363.243 12.356 362.94C12.8602 362.638 13.5325 362.638 14.0367 362.94L145.671 438.988C146.175 439.291 146.511 439.829 146.511 440.435V455.974C146.511 456.579 146.175 457.117 145.671 457.42C145.402 457.555 145.133 457.656 144.83 457.656H144.864ZM14.8771 378.917L143.15 453.014V441.376L14.8771 367.279V378.95V378.917Z" fill="#015DA7"/>
<path d="M265.14 370.946V386.485L144.867 455.974V440.435L265.14 370.946Z" fill="white"/>
<path d="M144.868 457.656C144.566 457.656 144.297 457.589 144.028 457.42C143.524 457.118 143.188 456.579 143.188 455.974V440.435C143.188 439.829 143.524 439.291 144.028 438.989L264.3 369.499C264.804 369.197 265.477 369.197 265.981 369.499C266.485 369.802 266.821 370.34 266.821 370.946V386.485C266.821 387.09 266.485 387.628 265.981 387.931L145.709 457.42C145.44 457.555 145.171 457.656 144.868 457.656ZM146.549 441.41V453.048L263.46 385.509V373.872L146.549 441.41Z" fill="#015DA7"/>
<path d="M376.1 156.39C375.158 156.39 374.419 155.65 374.419 154.708V52.425C374.419 51.4832 375.158 50.7433 376.1 50.7433C377.041 50.7433 377.78 51.4832 377.78 52.425V154.708C377.78 155.65 377.041 156.39 376.1 156.39Z" fill="#015DA7"/>
<path d="M344.842 174.451C343.901 174.451 343.161 173.711 343.161 172.77V98.1679C343.161 97.2262 343.901 96.4862 344.842 96.4862C345.783 96.4862 346.523 97.2262 346.523 98.1679V172.77C346.523 173.711 345.783 174.451 344.842 174.451Z" fill="#015DA7"/>
<path d="M313.545 192.513C312.604 192.513 311.864 191.773 311.864 190.832V129.886C311.864 128.944 312.604 128.204 313.545 128.204C314.486 128.204 315.226 128.944 315.226 129.886V190.832C315.226 191.773 314.486 192.513 313.545 192.513Z" fill="#015DA7"/>
<path d="M282.252 210.609C281.311 210.609 280.571 209.869 280.571 208.927V151.412C280.571 150.47 281.311 149.73 282.252 149.73C283.193 149.73 283.933 150.47 283.933 151.412V208.927C283.933 209.869 283.193 210.609 282.252 210.609Z" fill="#015DA7"/>
<path d="M250.99 228.671C250.049 228.671 249.31 227.931 249.31 226.989V166.043C249.31 165.101 250.049 164.361 250.99 164.361C251.931 164.361 252.671 165.101 252.671 166.043V226.989C252.671 227.931 251.931 228.671 250.99 228.671Z" fill="#015DA7"/>
<path d="M219.697 246.733C218.756 246.733 218.017 245.993 218.017 245.051V170.449C218.017 169.507 218.756 168.767 219.697 168.767C220.639 168.767 221.378 169.507 221.378 170.449V245.051C221.378 245.993 220.639 246.733 219.697 246.733Z" fill="#015DA7"/>
<path d="M188.4 264.828C187.459 264.828 186.72 264.088 186.72 263.146V160.998C186.72 160.056 187.459 159.316 188.4 159.316C189.342 159.316 190.081 160.056 190.081 160.998V263.113C190.081 264.054 189.342 264.794 188.4 264.794V264.828Z" fill="#015DA7"/>
<path d="M222.048 172.568C215.964 172.568 210.182 171.828 204.736 170.315C189.442 166.077 176.904 155.717 168.5 140.38C168.063 139.573 168.366 138.53 169.172 138.093C169.979 137.655 171.021 137.958 171.458 138.765C179.425 153.296 191.223 163.083 205.644 167.086C226.25 172.804 252.435 166.884 281.444 149.966C325.58 124.471 353.547 87.607 369.245 61.2038C386.254 32.5471 392.91 9.60828 392.977 9.37283C393.246 8.4647 394.154 7.96018 395.061 8.22926C395.969 8.49833 396.473 9.40647 396.204 10.3146C396.137 10.55 389.414 33.8252 372.17 62.8519C362.052 79.9047 350.354 95.5785 337.379 109.47C321.143 126.859 302.89 141.456 283.092 152.892C267.696 161.872 253.074 167.859 239.594 170.685C233.51 171.963 227.628 172.602 222.014 172.602L222.048 172.568Z" fill="#015DA7"/>
<path d="M408.81 152.152L421.987 144.551L407.734 136.445L394.558 144.046L408.81 152.152Z" fill="white"/>
<path d="M408.807 153.834C408.505 153.834 408.236 153.766 407.967 153.598L393.714 145.492C393.177 145.19 392.874 144.651 392.874 144.046C392.874 143.441 393.177 142.902 393.714 142.6L406.891 134.998C407.395 134.696 408.034 134.696 408.572 134.998L422.824 143.104C423.362 143.407 423.665 143.945 423.665 144.551C423.665 145.156 423.362 145.694 422.824 145.997L409.648 153.598C409.379 153.733 409.11 153.834 408.807 153.834ZM397.95 144.012L408.807 150.201L418.623 144.551L407.765 138.362L397.95 144.012Z" fill="#015DA7"/>
<path d="M421.985 144.551V10.3149L407.732 2.20898V136.445L421.985 144.551Z" fill="white"/>
<path d="M421.987 146.232C421.684 146.232 421.416 146.165 421.147 145.997L406.894 137.891C406.356 137.588 406.054 137.05 406.054 136.445V2.20872C406.054 1.6033 406.356 1.06515 406.894 0.762434C407.398 0.459722 408.037 0.459722 408.575 0.762434L422.827 8.86839C423.365 9.1711 423.668 9.70925 423.668 10.3147V144.551C423.668 145.156 423.365 145.694 422.827 145.997C422.558 146.165 422.289 146.232 421.987 146.232ZM409.415 135.469L420.306 141.658V11.2901L409.415 5.1013V135.469Z" fill="#015DA7"/>
<path d="M421.987 10.3149L408.81 17.95L394.558 9.81041L407.734 2.20898L421.987 10.3149Z" fill="white"/>
<path d="M408.807 19.6315C408.505 19.6315 408.236 19.5642 407.967 19.396L393.714 11.2901C393.177 10.9874 392.874 10.4492 392.874 9.84379C392.874 9.23837 393.177 8.70021 393.714 8.3975L406.891 0.762434C407.395 0.459722 408.034 0.459722 408.572 0.762434L422.824 8.86838C423.362 9.1711 423.665 9.70925 423.665 10.3147C423.665 10.9201 423.362 11.4583 422.824 11.761L409.648 19.3624C409.379 19.4969 409.11 19.5978 408.807 19.5978V19.6315ZM397.95 9.81015L408.807 15.9989L418.623 10.3483L407.765 4.15953L397.95 9.81015Z" fill="#015DA7"/>
<path d="M408.81 17.9498V152.152L394.558 144.046V9.81018L408.81 17.9498Z" fill="#71ADD2"/>
<path d="M408.807 153.834C408.505 153.834 408.236 153.766 407.967 153.598L393.714 145.492C393.177 145.19 392.874 144.651 392.874 144.046V9.81017C392.874 9.20474 393.177 8.66659 393.714 8.36387C394.219 8.06116 394.857 8.06116 395.395 8.36387L409.648 16.4698C410.185 16.7725 410.488 17.3107 410.488 17.9161V152.152C410.488 152.757 410.185 153.296 409.648 153.598C409.379 153.766 409.11 153.834 408.807 153.834ZM396.235 143.071L407.127 149.259V18.9252L396.235 12.7364V143.071Z" fill="#015DA7"/>
<path d="M421.986 10.3146V144.55L408.81 152.152V17.9496L421.986 10.3146Z" fill="white"/>
<path d="M408.808 153.834C408.505 153.834 408.236 153.766 407.967 153.598C407.463 153.296 407.127 152.757 407.127 152.152V17.9497C407.127 17.3443 407.463 16.8061 407.967 16.5034L421.144 8.90199C421.648 8.59928 422.321 8.59928 422.825 8.90199C423.329 9.2047 423.665 9.74286 423.665 10.3483V144.551C423.665 145.156 423.329 145.694 422.825 145.997L409.648 153.598C409.379 153.733 409.11 153.834 408.808 153.834ZM410.488 18.8915V149.259L420.304 143.575V13.2409L410.488 18.9251V18.8915Z" fill="#015DA7"/>
<path d="M171.023 289.516L184.199 281.915L169.981 273.809L156.804 281.411L171.023 289.516Z" fill="white"/>
<path d="M171.022 291.198C170.72 291.198 170.451 291.131 170.182 290.962L155.929 282.857C155.391 282.554 155.089 282.016 155.089 281.41C155.089 280.805 155.391 280.267 155.929 279.964L169.106 272.363C169.61 272.06 170.249 272.06 170.787 272.363L185.039 280.468C185.577 280.771 185.88 281.309 185.88 281.915C185.88 282.52 185.577 283.058 185.039 283.361L171.862 290.962C171.594 291.097 171.325 291.198 171.022 291.198ZM160.165 281.377L171.022 287.565L180.838 281.915L169.98 275.726L160.165 281.377Z" fill="#015DA7"/>
<path d="M184.202 281.915V147.679L169.983 139.573V273.809L184.202 281.915Z" fill="white"/>
<path d="M184.202 283.597C183.899 283.597 183.63 283.529 183.361 283.361L169.109 275.255C168.571 274.952 168.269 274.414 168.269 273.809V139.573C168.269 138.968 168.571 138.429 169.109 138.127C169.613 137.824 170.252 137.824 170.79 138.127L185.042 146.233C185.58 146.535 185.883 147.074 185.883 147.679V281.915C185.883 282.52 185.58 283.058 185.042 283.361C184.773 283.529 184.504 283.597 184.202 283.597ZM171.63 272.833L182.521 279.022V148.654L171.63 142.466V272.833Z" fill="#015DA7"/>
<path d="M184.199 147.679L171.023 155.314L156.804 147.175L169.981 139.573L184.199 147.679Z" fill="white"/>
<path d="M171.022 156.996C170.72 156.996 170.451 156.928 170.182 156.76L155.929 148.654C155.391 148.351 155.089 147.813 155.089 147.208C155.089 146.602 155.391 146.064 155.929 145.762L169.106 138.16C169.61 137.857 170.249 137.857 170.787 138.16L185.039 146.266C185.577 146.569 185.88 147.107 185.88 147.712C185.88 148.318 185.577 148.856 185.039 149.159L171.862 156.76C171.594 156.895 171.325 156.996 171.022 156.996ZM160.165 147.174L171.022 153.363L180.838 147.712L169.98 141.524L160.165 147.174Z" fill="#015DA7"/>
<path d="M171.023 155.314V289.516L156.804 281.41V147.174L171.023 155.314Z" fill="#71ADD2"/>
<path d="M171.022 291.198C170.72 291.198 170.451 291.131 170.182 290.963L155.929 282.857C155.391 282.554 155.089 282.016 155.089 281.41V147.174C155.089 146.569 155.391 146.031 155.929 145.728C156.433 145.425 157.072 145.425 157.61 145.728L171.862 153.834C172.4 154.137 172.703 154.675 172.703 155.28V289.516C172.703 290.122 172.4 290.66 171.862 290.963C171.594 291.131 171.325 291.198 171.022 291.198ZM158.45 280.435L169.341 286.624V156.289L158.45 150.101V280.469V280.435Z" fill="#015DA7"/>
<path d="M184.198 147.679V281.915L171.021 289.516V155.314L184.198 147.679Z" fill="white"/>
<path d="M171.023 291.198C170.72 291.198 170.451 291.131 170.182 290.962C169.678 290.66 169.342 290.121 169.342 289.516V155.314C169.342 154.708 169.678 154.17 170.182 153.868L183.359 146.266C183.863 145.963 184.536 145.963 185.04 146.266C185.544 146.569 185.88 147.107 185.88 147.712V281.948C185.88 282.554 185.544 283.092 185.04 283.395L171.863 290.996C171.594 291.131 171.325 291.231 171.023 291.231V291.198ZM172.703 156.256V286.59L182.519 280.906V150.605L172.703 156.289V156.256Z" fill="#015DA7"/>
<path d="M543.839 57.0667L535.637 52.3242V80.5437L543.839 85.2861V57.0667Z" fill="#D2E6DF"/>
<path d="M543.84 86.9678C543.537 86.9678 543.268 86.9006 542.999 86.7324L534.797 81.9899C534.293 81.6872 533.957 81.149 533.957 80.5436V52.2905C533.957 51.6851 534.293 51.1469 534.797 50.8442C535.302 50.5415 535.974 50.5415 536.478 50.8442L544.68 55.5867C545.184 55.8894 545.52 56.4276 545.52 57.033V85.2861C545.52 85.8915 545.184 86.4297 544.68 86.7324C544.411 86.8669 544.142 86.9678 543.84 86.9678ZM537.318 79.5682L542.159 82.3599V58.0084L537.318 55.2167V79.5682Z" fill="#015DA7"/>
<path d="M535.641 52.3241C406.225 127.06 157.815 270.579 28.8027 345.114V373.367C157.815 298.833 406.225 155.313 535.641 80.5436V52.2905V52.3241Z" fill="#D2E6DF"/>
<path d="M28.8038 375.049C28.5012 375.049 28.2323 374.981 27.9634 374.813C27.4592 374.51 27.123 373.972 27.123 373.367V345.114C27.123 344.508 27.4592 343.97 27.9634 343.667L534.801 50.8442C535.306 50.5415 535.978 50.5415 536.482 50.8442C536.986 51.1469 537.323 51.6851 537.323 52.2905V80.5436C537.323 81.149 536.986 81.6872 536.482 81.9899L29.6441 374.813C29.3752 374.948 29.1063 375.049 28.8038 375.049ZM30.4845 346.089V370.441L533.961 79.5682V55.2167L30.4845 346.089Z" fill="#015DA7"/>
<path d="M28.8027 345.114L37.0047 349.856V378.109L28.8027 373.367V345.114Z" fill="#71ADD2"/>
<path d="M37.0057 379.791C36.7032 379.791 36.4342 379.724 36.1653 379.556L27.9634 374.813C27.4592 374.511 27.123 373.972 27.123 373.367V345.114C27.123 344.509 27.4592 343.97 27.9634 343.668C28.4676 343.365 29.1399 343.365 29.6441 343.668L37.846 348.41C38.3503 348.713 38.6864 349.251 38.6864 349.856V378.11C38.6864 378.715 38.3503 379.253 37.846 379.556C37.5771 379.69 37.3082 379.791 37.0057 379.791ZM30.4845 372.392L35.325 375.183V350.832L30.4845 348.04V372.392Z" fill="#015DA7"/>
<path d="M37.0059 349.856C165.917 275.389 414.529 131.769 543.844 57.0668V85.3199C414.529 160.022 165.917 303.642 37.0059 378.109V349.856Z" fill="#D2E6DF"/>
<path d="M37.0069 379.791C36.7044 379.791 36.4354 379.724 36.1665 379.556C35.6623 379.253 35.3262 378.715 35.3262 378.109V349.856C35.3262 349.251 35.6623 348.713 36.1665 348.41L543.005 55.5868C543.509 55.2841 544.181 55.2841 544.685 55.5868C545.19 55.8895 545.526 56.4277 545.526 57.0331V85.2862C545.526 85.8916 545.19 86.4298 544.685 86.7325L37.8473 379.556C37.5783 379.69 37.3094 379.791 37.0069 379.791ZM38.6876 350.832V375.183L542.164 84.3108V59.9593L38.6876 350.832Z" fill="#015DA7"/>
<path d="M28.8008 345.114C157.813 270.579 406.223 127.06 535.639 52.3242L543.841 57.0667C414.526 131.769 165.914 275.389 37.0027 349.856L28.8008 345.114Z" fill="#D2E6DF"/>
<path d="M37.0037 351.538C36.7012 351.538 36.4323 351.471 36.1634 351.303L27.9615 346.56C27.4572 346.257 27.1211 345.719 27.1211 345.114C27.1211 344.508 27.4572 343.97 27.9615 343.668L534.8 50.8443C535.304 50.5416 535.976 50.5416 536.48 50.8443L544.682 55.5868C545.186 55.8895 545.523 56.4276 545.523 57.0331C545.523 57.6385 545.186 58.1766 544.682 58.4793L37.8441 351.303C37.5752 351.437 37.3063 351.538 37.0037 351.538ZM32.1633 345.114L37.0037 347.906L540.48 57.0667L535.64 54.275L32.1633 345.114Z" fill="#015DA7"/>
<path d="M639.2 112.094L630.965 107.351V135.604L639.2 140.347V112.094Z" fill="#D2E6DF"/>
<path d="M639.203 142.028C638.9 142.028 638.632 141.961 638.363 141.793L630.161 137.05C629.656 136.748 629.32 136.21 629.32 135.604V107.351C629.32 106.746 629.656 106.207 630.161 105.905C630.665 105.602 631.337 105.602 631.841 105.905L640.043 110.647C640.548 110.95 640.884 111.488 640.884 112.094V140.347C640.884 140.952 640.548 141.49 640.043 141.793C639.774 141.927 639.505 142.028 639.203 142.028ZM632.682 134.629L637.522 137.42V113.069L632.682 110.277V134.629Z" fill="#015DA7"/>
<path d="M630.969 107.351C501.553 182.121 253.109 325.64 124.131 400.141V428.394C253.109 353.859 501.553 210.374 630.969 135.604V107.351Z" fill="#D2E6DF"/>
<path d="M124.132 430.076C123.829 430.076 123.56 430.008 123.292 429.84C122.787 429.537 122.451 428.999 122.451 428.394V400.141C122.451 399.535 122.787 398.997 123.292 398.694L630.13 105.905C630.634 105.602 631.306 105.602 631.81 105.905C632.315 106.207 632.651 106.746 632.651 107.351V135.604C632.651 136.21 632.315 136.748 631.81 137.05L124.972 429.84C124.703 429.975 124.434 430.076 124.132 430.076ZM125.813 401.116V425.468L629.289 134.629V110.277L125.813 401.116Z" fill="#015DA7"/>
<path d="M124.131 400.141L132.333 404.917V433.136L124.131 428.394V400.141Z" fill="#71ADD2"/>
<path d="M132.334 434.818C132.031 434.818 131.762 434.751 131.493 434.582L123.292 429.84C122.787 429.537 122.451 428.999 122.451 428.394V400.141C122.451 399.535 122.787 398.997 123.292 398.694C123.796 398.392 124.468 398.392 124.972 398.694L133.174 403.437C133.678 403.74 134.015 404.278 134.015 404.883V433.136C134.015 433.742 133.678 434.28 133.174 434.582C132.905 434.717 132.636 434.818 132.334 434.818ZM125.813 427.418L130.653 430.21V405.858L125.813 403.067V427.418Z" fill="#015DA7"/>
<path d="M132.334 404.917C261.212 330.45 509.857 186.83 639.172 112.127V140.38C509.857 215.083 261.212 358.737 132.334 433.17V404.917Z" fill="#D2E6DF"/>
<path d="M132.335 434.818C132.032 434.818 131.764 434.751 131.495 434.583C130.99 434.28 130.654 433.742 130.654 433.136V404.883C130.654 404.278 130.99 403.74 131.495 403.437L638.366 110.647C638.871 110.345 639.543 110.345 640.047 110.647C640.551 110.95 640.887 111.488 640.887 112.094V140.347C640.887 140.952 640.551 141.49 640.047 141.793L133.175 434.583C132.906 434.717 132.638 434.818 132.335 434.818ZM134.016 405.859V430.21L637.526 139.371V115.02L134.016 405.859Z" fill="#015DA7"/>
<path d="M124.13 400.141C253.108 325.606 501.552 182.121 630.968 107.351L639.17 112.094C509.855 186.796 261.209 330.45 132.332 404.883L124.13 400.141Z" fill="#D2E6DF"/>
<path d="M132.333 406.599C132.03 406.599 131.761 406.531 131.492 406.363L123.291 401.621C122.786 401.318 122.45 400.78 122.45 400.174C122.45 399.569 122.786 399.031 123.291 398.728L630.129 105.905C630.633 105.602 631.305 105.602 631.809 105.905L640.011 110.647C640.516 110.95 640.852 111.488 640.852 112.093C640.852 112.699 640.516 113.237 640.011 113.54L133.173 406.363C132.904 406.498 132.635 406.599 132.333 406.599ZM127.492 400.174L132.333 402.966L635.843 112.093L631.003 109.302L127.492 400.141V400.174Z" fill="#015DA7"/>
<path d="M104.839 390.79L94.25 384.702L133.949 361.764L144.537 367.885L104.839 390.79Z" fill="white"/>
<path d="M104.84 392.472C104.537 392.472 104.268 392.405 103.999 392.236L93.4107 386.115C92.9065 385.812 92.5703 385.274 92.5703 384.669C92.5703 384.063 92.9065 383.525 93.4107 383.222L133.076 360.284C133.58 359.981 134.252 359.981 134.756 360.284L145.345 366.405C145.849 366.708 146.185 367.246 146.185 367.851C146.185 368.457 145.849 368.995 145.345 369.298L105.68 392.236C105.411 392.371 105.142 392.472 104.84 392.472ZM97.6125 384.669L104.84 388.839L141.143 367.851L133.916 363.681L97.6125 384.669Z" fill="#015DA7"/>
<path d="M166.083 355.406L155.494 349.318L195.193 326.379L205.748 332.501L166.083 355.406Z" fill="white"/>
<path d="M166.084 357.088C165.781 357.088 165.512 357.021 165.243 356.853L154.655 350.731C154.151 350.428 153.814 349.89 153.814 349.285C153.814 348.679 154.151 348.141 154.655 347.839L194.32 324.9C194.824 324.597 195.496 324.597 196.001 324.9L206.589 331.021C207.093 331.324 207.429 331.862 207.429 332.467C207.429 333.073 207.093 333.611 206.589 333.914L166.924 356.853C166.655 356.987 166.386 357.088 166.084 357.088ZM158.857 349.285L166.084 353.456L202.387 332.467L195.16 328.297L158.857 349.285Z" fill="#015DA7"/>
<path d="M227.329 320.057L216.74 313.935L256.439 290.996L266.994 297.118L227.329 320.057Z" fill="white"/>
<path d="M227.326 321.738C227.023 321.738 226.754 321.671 226.486 321.503L215.897 315.381C215.393 315.079 215.057 314.541 215.057 313.935C215.057 313.33 215.393 312.792 215.897 312.489L255.562 289.55C256.066 289.247 256.739 289.247 257.243 289.55L267.831 295.672C268.335 295.974 268.672 296.512 268.672 297.118C268.672 297.723 268.335 298.261 267.831 298.564L228.166 321.503C227.897 321.637 227.628 321.738 227.326 321.738ZM220.099 313.935L227.326 318.106L263.629 297.118L256.402 292.947L220.099 313.935Z" fill="#015DA7"/>
<path d="M288.573 284.673L277.984 278.551L317.649 255.646L328.238 261.734L288.573 284.673Z" fill="white"/>
<path d="M288.574 286.355C288.271 286.355 288.003 286.287 287.734 286.119L277.145 279.998C276.641 279.695 276.305 279.157 276.305 278.551C276.305 277.946 276.641 277.408 277.145 277.105L316.81 254.166C317.314 253.864 317.987 253.864 318.491 254.166L329.079 260.288C329.584 260.59 329.92 261.129 329.92 261.734C329.92 262.339 329.584 262.878 329.079 263.18L289.414 286.119C289.145 286.254 288.876 286.355 288.574 286.355ZM281.347 278.551L288.574 282.722L324.878 261.734L317.65 257.563L281.347 278.551Z" fill="#015DA7"/>
<path d="M349.819 249.289L339.23 243.168L378.895 220.263L389.484 226.351L349.819 249.289Z" fill="white"/>
<path d="M349.816 250.971C349.514 250.971 349.245 250.904 348.976 250.736L338.387 244.614C337.883 244.311 337.547 243.773 337.547 243.168C337.547 242.562 337.883 242.024 338.387 241.721L378.052 218.783C378.556 218.48 379.229 218.48 379.733 218.783L390.321 224.904C390.826 225.207 391.162 225.745 391.162 226.35C391.162 226.956 390.826 227.494 390.321 227.797L350.656 250.736C350.388 250.87 350.119 250.971 349.816 250.971ZM342.589 243.168L349.816 247.338L386.12 226.35L378.893 222.18L342.589 243.168Z" fill="#015DA7"/>
<path d="M411.031 213.906L400.477 207.784L440.142 184.879L450.73 191L411.031 213.906Z" fill="white"/>
<path d="M411.031 215.587C410.728 215.587 410.46 215.52 410.191 215.352L399.602 209.23C399.098 208.928 398.762 208.389 398.762 207.784C398.762 207.179 399.098 206.64 399.602 206.338L439.267 183.399C439.771 183.096 440.444 183.096 440.948 183.399L451.536 189.52C452.041 189.823 452.377 190.361 452.377 190.967C452.377 191.572 452.041 192.11 451.536 192.413L411.871 215.352C411.602 215.486 411.334 215.587 411.031 215.587ZM403.804 207.784L411.031 211.955L447.335 190.967L440.107 186.796L403.804 207.784Z" fill="#015DA7"/>
<path d="M472.272 178.522L461.717 172.434L501.382 149.495L511.97 155.617L472.272 178.522Z" fill="white"/>
<path d="M472.275 180.204C471.973 180.204 471.704 180.136 471.435 179.968L460.846 173.847C460.342 173.544 460.006 173.006 460.006 172.4C460.006 171.795 460.342 171.257 460.846 170.954L500.511 148.015C501.015 147.713 501.688 147.713 502.192 148.015L512.78 154.137C513.285 154.439 513.621 154.978 513.621 155.583C513.621 156.188 513.285 156.727 512.78 157.029L473.115 179.968C472.847 180.103 472.578 180.204 472.275 180.204ZM465.048 172.4L472.275 176.571L508.579 155.583L501.352 151.412L465.048 172.4Z" fill="#015DA7"/>
<path d="M533.52 143.138L522.932 137.05L562.63 114.112L573.219 120.233L533.52 143.138Z" fill="white"/>
<path d="M533.521 144.82C533.219 144.82 532.95 144.753 532.681 144.584L522.092 138.463C521.588 138.16 521.252 137.622 521.252 137.017C521.252 136.411 521.588 135.873 522.092 135.57L561.757 112.631C562.262 112.329 562.934 112.329 563.438 112.631L574.027 118.753C574.531 119.056 574.867 119.594 574.867 120.199C574.867 120.805 574.531 121.343 574.027 121.646L534.362 144.584C534.093 144.719 533.824 144.82 533.521 144.82ZM526.294 137.017L533.521 141.187L569.825 120.199L562.598 116.029L526.294 137.017Z" fill="#015DA7"/>
<path d="M287.365 213.67L184.202 156.155V171.021L287.365 228.537V213.67Z" fill="white"/>
<path d="M287.366 230.218C287.097 230.218 286.794 230.151 286.559 230.016L183.396 172.468C182.859 172.165 182.522 171.593 182.522 170.988V156.121C182.522 155.516 182.825 154.977 183.363 154.675C183.867 154.372 184.506 154.372 185.044 154.675L288.206 212.224C288.744 212.526 289.08 213.098 289.08 213.704V228.57C289.08 229.176 288.778 229.714 288.24 230.016C287.971 230.185 287.668 230.252 287.399 230.252L287.366 230.218ZM185.884 170.012L285.685 225.678V214.645L185.884 158.98V170.012Z" fill="#015DA7"/>
<path d="M184.199 156.155L171.022 163.756V178.623L184.199 171.021V156.155Z" fill="white"/>
<path d="M171.023 180.304C170.721 180.304 170.452 180.237 170.183 180.069C169.679 179.766 169.343 179.228 169.343 178.623V163.756C169.343 163.151 169.679 162.613 170.183 162.31L183.36 154.708C183.864 154.406 184.536 154.406 185.041 154.708C185.545 155.011 185.881 155.549 185.881 156.155V171.021C185.881 171.627 185.545 172.165 185.041 172.468L171.864 180.069C171.595 180.204 171.326 180.304 171.023 180.304ZM172.704 164.732V175.73L182.52 170.046V159.047L172.704 164.732Z" fill="#015DA7"/>
<path d="M171.022 163.756L274.185 221.305V236.171L171.022 178.622V163.756Z" fill="#71ADD2"/>
<path d="M274.186 237.853C273.917 237.853 273.615 237.786 273.379 237.651L170.217 180.102C169.679 179.8 169.343 179.228 169.343 178.622V163.756C169.343 163.15 169.645 162.612 170.183 162.31C170.687 162.007 171.326 162.007 171.864 162.31L275.026 219.858C275.564 220.161 275.9 220.733 275.9 221.338V236.205C275.9 236.81 275.598 237.349 275.06 237.651C274.791 237.819 274.489 237.887 274.22 237.887L274.186 237.853ZM172.704 177.647L272.505 233.312V222.28L172.704 166.615V177.647Z" fill="#015DA7"/>
<path d="M274.185 221.305L287.361 213.67V228.536L274.185 236.171V221.305Z" fill="white"/>
<path d="M274.186 237.853C273.883 237.853 273.614 237.786 273.345 237.618C272.841 237.315 272.505 236.777 272.505 236.171V221.305C272.505 220.699 272.841 220.161 273.345 219.858L286.522 212.257C287.026 211.954 287.699 211.954 288.203 212.257C288.707 212.56 289.043 213.098 289.043 213.703V228.57C289.043 229.175 288.707 229.713 288.203 230.016L275.026 237.618C274.757 237.752 274.488 237.853 274.186 237.853ZM275.866 222.28V233.279L285.682 227.594V216.596L275.866 222.28Z" fill="#015DA7"/>
<path d="M171.021 163.756L184.198 156.155L287.361 213.67L274.184 221.305L171.021 163.756Z" fill="white"/>
<path d="M274.185 222.987C273.916 222.987 273.614 222.92 273.378 222.785L170.216 165.236C169.678 164.933 169.342 164.395 169.342 163.79C169.342 163.184 169.644 162.613 170.182 162.31L183.359 154.708C183.863 154.406 184.502 154.406 185.006 154.708L288.169 212.257C288.707 212.56 289.043 213.098 289.043 213.704C289.043 214.309 288.74 214.881 288.202 215.184L275.026 222.785C274.757 222.92 274.488 223.02 274.185 223.02V222.987ZM174.418 163.756L274.152 219.388L283.933 213.737L184.199 158.106L174.418 163.756Z" fill="#015DA7"/>
<path d="M287.365 254.065L184.202 196.516V211.383L287.365 268.932V254.065Z" fill="white"/>
<path d="M287.366 270.613C287.097 270.613 286.794 270.546 286.559 270.412L183.396 212.863C182.859 212.56 182.522 211.988 182.522 211.383V196.516C182.522 195.911 182.825 195.373 183.363 195.07C183.867 194.767 184.506 194.767 185.044 195.07L288.206 252.619C288.744 252.922 289.08 253.493 289.08 254.099V268.965C289.08 269.571 288.778 270.109 288.24 270.412C287.971 270.58 287.668 270.647 287.399 270.647L287.366 270.613ZM185.884 210.407L285.685 266.073V255.041L185.884 199.375V210.407Z" fill="#015DA7"/>
<path d="M184.199 196.516L171.022 204.118V219.018L184.199 211.383V196.516Z" fill="white"/>
<path d="M171.023 220.699C170.721 220.699 170.452 220.632 170.183 220.464C169.679 220.161 169.343 219.623 169.343 219.018V204.151C169.343 203.546 169.679 203.008 170.183 202.705L183.36 195.103C183.864 194.801 184.536 194.801 185.041 195.103C185.545 195.406 185.881 195.944 185.881 196.55V211.416C185.881 212.022 185.545 212.56 185.041 212.863L171.864 220.464C171.595 220.599 171.326 220.699 171.023 220.699ZM172.704 205.127V216.125L182.52 210.441V199.442L172.704 205.127Z" fill="#015DA7"/>
<path d="M171.022 204.118L274.185 261.667V276.533L171.022 219.018V204.118Z" fill="#71ADD2"/>
<path d="M274.186 278.215C273.917 278.215 273.615 278.147 273.379 278.013L170.217 220.464C169.679 220.161 169.343 219.589 169.343 218.984V204.117C169.343 203.512 169.645 202.974 170.183 202.671C170.687 202.368 171.326 202.368 171.864 202.671L275.026 260.22C275.564 260.523 275.9 261.095 275.9 261.7V276.567C275.9 277.172 275.598 277.71 275.06 278.013C274.791 278.181 274.489 278.248 274.22 278.248L274.186 278.215ZM172.704 218.009L272.505 273.674V262.642L172.704 206.976V218.009Z" fill="#015DA7"/>
<path d="M274.185 261.667L287.361 254.065V268.932L274.185 276.533V261.667Z" fill="white"/>
<path d="M274.186 278.215C273.883 278.215 273.614 278.148 273.345 277.979C272.841 277.677 272.505 277.138 272.505 276.533V261.667C272.505 261.061 272.841 260.523 273.345 260.22L286.522 252.619C287.026 252.316 287.699 252.316 288.203 252.619C288.707 252.922 289.043 253.46 289.043 254.065V268.932C289.043 269.537 288.707 270.075 288.203 270.378L275.026 277.979C274.757 278.114 274.488 278.215 274.186 278.215ZM275.866 262.642V273.64L285.682 267.956V256.958L275.866 262.642Z" fill="#015DA7"/>
<path d="M171.021 204.118L184.198 196.516L287.361 254.065L274.184 261.667L171.021 204.118Z" fill="white"/>
<path d="M274.185 263.348C273.916 263.348 273.614 263.281 273.378 263.147L170.216 205.598C169.678 205.295 169.342 204.757 169.342 204.151C169.342 203.546 169.644 202.974 170.182 202.671L183.359 195.07C183.863 194.767 184.502 194.767 185.006 195.07L288.169 252.619C288.707 252.922 289.043 253.46 289.043 254.065C289.043 254.671 288.74 255.242 288.202 255.545L275.026 263.147C274.757 263.281 274.488 263.382 274.185 263.382V263.348ZM174.418 204.118L274.152 259.749L283.933 254.099L184.199 198.467L174.418 204.118Z" fill="#015DA7"/>
<path d="M525.147 75.9694L421.984 18.4205V33.287L525.147 90.8359V75.9694Z" fill="white"/>
<path d="M525.148 92.5177C524.879 92.5177 524.577 92.4504 524.341 92.3159L421.179 34.767C420.641 34.4643 420.305 33.8925 420.305 33.2871V18.4205C420.305 17.8151 420.607 17.277 421.145 16.9743C421.649 16.6715 422.288 16.6715 422.826 16.9743L525.988 74.5231C526.526 74.8259 526.862 75.3976 526.862 76.0031V90.8696C526.862 91.475 526.56 92.0132 526.022 92.3159C525.753 92.484 525.451 92.5513 525.182 92.5513L525.148 92.5177ZM423.666 32.3117L523.467 87.977V76.9448L423.666 21.2795V32.3117Z" fill="#015DA7"/>
<path d="M421.985 18.4205L408.809 26.0556V40.9221L421.985 33.287V18.4205Z" fill="white"/>
<path d="M408.807 42.6038C408.504 42.6038 408.235 42.5365 407.966 42.3684C407.462 42.0656 407.126 41.5275 407.126 40.9221V26.0555C407.126 25.4501 407.462 24.912 407.966 24.6093L421.143 17.0078C421.647 16.7051 422.32 16.7051 422.824 17.0078C423.328 17.3105 423.664 17.8487 423.664 18.4541V33.3206C423.664 33.9261 423.328 34.4642 422.824 34.7669L409.647 42.3684C409.378 42.5029 409.109 42.6038 408.807 42.6038ZM410.487 27.031V38.0295L420.303 32.3452V21.3467L410.487 27.031Z" fill="#015DA7"/>
<path d="M408.809 26.0559L511.971 83.5712V98.4377L408.809 40.9225V26.0559Z" fill="#71ADD2"/>
<path d="M511.969 100.119C511.7 100.119 511.398 100.052 511.163 99.9172L408 42.3683C407.462 42.0656 407.126 41.4938 407.126 40.8884V26.0219C407.126 25.4164 407.429 24.8783 407.966 24.5756C408.471 24.2729 409.109 24.2729 409.647 24.5756L512.81 82.1245C513.348 82.4272 513.684 82.999 513.684 83.6044V98.4709C513.684 99.0763 513.381 99.6145 512.843 99.9172C512.574 100.085 512.272 100.153 512.003 100.153L511.969 100.119ZM410.487 39.913L510.289 95.5783V84.5462L410.487 28.8808V39.913Z" fill="#015DA7"/>
<path d="M511.968 83.5709L525.145 75.9695V90.836L511.968 98.4374V83.5709Z" fill="white"/>
<path d="M511.969 100.119C511.666 100.119 511.397 100.052 511.128 99.8837C510.624 99.581 510.288 99.0429 510.288 98.4374V83.5709C510.288 82.9655 510.624 82.4274 511.128 82.1246L524.305 74.5232C524.81 74.2205 525.482 74.2205 525.986 74.5232C526.49 74.8259 526.826 75.3641 526.826 75.9695V90.836C526.826 91.4414 526.49 91.9796 525.986 92.2823L512.809 99.8837C512.54 100.018 512.271 100.119 511.969 100.119ZM513.65 84.5463V95.5449L523.465 89.8606V78.8621L513.65 84.5463Z" fill="#015DA7"/>
<path d="M408.81 26.0557L421.986 18.4206L525.149 75.9695L511.972 83.5709L408.81 26.0557Z" fill="white"/>
<path d="M511.97 85.2527C511.701 85.2527 511.399 85.1855 511.164 85.0509L408.001 27.5021C407.463 27.1993 407.127 26.6612 407.127 26.0558C407.127 25.4503 407.429 24.8786 407.967 24.5758L421.144 16.9744C421.648 16.6717 422.287 16.6717 422.791 16.9744L525.954 74.5233C526.492 74.826 526.828 75.3642 526.828 75.9696C526.828 76.575 526.525 77.1468 525.988 77.4495L512.811 85.0509C512.542 85.1855 512.273 85.2864 511.97 85.2864V85.2527ZM412.203 26.0221L511.937 81.6538L521.718 76.0032L422.018 20.3715L412.236 26.0221H412.203Z" fill="#015DA7"/>
<path d="M525.146 116.331L421.983 58.8157V73.6822L525.146 131.231V116.331Z" fill="white"/>
<path d="M525.147 132.913C524.878 132.913 524.576 132.846 524.34 132.711L421.178 75.1621C420.64 74.8594 420.304 74.2876 420.304 73.6822V58.8157C420.304 58.2103 420.606 57.6721 421.144 57.3694C421.648 57.0667 422.287 57.0667 422.825 57.3694L525.987 114.918C526.525 115.221 526.861 115.793 526.861 116.398V131.265C526.861 131.87 526.559 132.408 526.021 132.711C525.752 132.879 525.45 132.946 525.181 132.946L525.147 132.913ZM423.665 72.7068L523.466 128.372V117.34L423.665 61.6746V72.7068Z" fill="#015DA7"/>
<path d="M421.985 58.8158L408.809 66.4173V81.2838L421.985 73.6823V58.8158Z" fill="white"/>
<path d="M408.807 82.9656C408.504 82.9656 408.235 82.8983 407.966 82.7302C407.462 82.4275 407.126 81.8893 407.126 81.2839V66.4174C407.126 65.8119 407.462 65.2738 407.966 64.9711L421.143 57.3696C421.647 57.0669 422.32 57.0669 422.824 57.3696C423.328 57.6724 423.664 58.2105 423.664 58.8159V73.6824C423.664 74.2879 423.328 74.826 422.824 75.1287L409.647 82.7302C409.378 82.8647 409.109 82.9656 408.807 82.9656ZM410.487 67.3928V78.3913L420.303 72.707V61.7085L410.487 67.3928Z" fill="#015DA7"/>
<path d="M408.808 66.4174L511.97 123.966V138.833L408.808 81.284V66.4174Z" fill="#71ADD2"/>
<path d="M511.968 140.515C511.699 140.515 511.397 140.447 511.162 140.313L407.999 82.7638C407.461 82.4611 407.125 81.8893 407.125 81.2839V66.4174C407.125 65.812 407.428 65.2738 407.965 64.9711C408.47 64.6684 409.108 64.6684 409.646 64.9711L512.809 122.52C513.347 122.823 513.683 123.394 513.683 124V138.866C513.683 139.472 513.38 140.01 512.842 140.313C512.573 140.481 512.271 140.548 512.002 140.548L511.968 140.515ZM410.486 80.3085L510.288 135.974V124.942L410.486 69.2763V80.3085Z" fill="#015DA7"/>
<path d="M511.967 123.966L525.144 116.331V131.231L511.967 138.833V123.966Z" fill="white"/>
<path d="M511.968 140.514C511.665 140.514 511.396 140.447 511.127 140.279C510.623 139.976 510.287 139.438 510.287 138.833V123.966C510.287 123.361 510.623 122.822 511.127 122.52L524.304 114.918C524.809 114.616 525.481 114.616 525.985 114.918C526.489 115.221 526.825 115.759 526.825 116.365V131.231C526.825 131.837 526.489 132.375 525.985 132.677L512.808 140.279C512.539 140.413 512.27 140.514 511.968 140.514ZM513.649 124.941V135.94L523.464 130.256V119.257L513.649 124.941Z" fill="#015DA7"/>
<path d="M408.809 66.4173L421.985 58.8158L525.148 116.331L511.971 123.966L408.809 66.4173Z" fill="white"/>
<path d="M511.969 125.648C511.7 125.648 511.398 125.581 511.163 125.446L408 67.8973C407.462 67.5946 407.126 67.0564 407.126 66.451C407.126 65.8456 407.429 65.2738 407.966 64.9711L421.143 57.3696C421.647 57.0669 422.286 57.0669 422.79 57.3696L525.953 114.919C526.491 115.221 526.827 115.759 526.827 116.365C526.827 116.97 526.524 117.542 525.987 117.845L512.81 125.446C512.541 125.581 512.272 125.682 511.969 125.682V125.648ZM412.202 66.4174L511.936 122.049L521.718 116.398L421.984 60.7667L412.202 66.4174Z" fill="#015DA7"/>
<path d="M270.018 369.802C269.076 369.802 268.337 369.062 268.337 368.121V265.838C268.337 264.896 269.076 264.156 270.018 264.156C270.959 264.156 271.698 264.896 271.698 265.838V368.121C271.698 369.062 270.959 369.802 270.018 369.802Z" fill="#015DA7"/>
<path d="M238.729 387.898C237.787 387.898 237.048 387.158 237.048 386.216V311.614C237.048 310.673 237.787 309.933 238.729 309.933C239.67 309.933 240.409 310.673 240.409 311.614V386.216C240.409 387.158 239.67 387.898 238.729 387.898Z" fill="#015DA7"/>
<path d="M207.432 405.96C206.49 405.96 205.751 405.22 205.751 404.278V343.332C205.751 342.39 206.49 341.65 207.432 341.65C208.373 341.65 209.112 342.39 209.112 343.332V404.278C209.112 405.22 208.373 405.96 207.432 405.96Z" fill="#015DA7"/>
<path d="M176.174 424.021C175.233 424.021 174.493 423.281 174.493 422.339V366.741C174.493 365.799 175.233 365.06 176.174 365.06C177.115 365.06 177.855 365.799 177.855 366.741V422.339C177.855 423.281 177.115 424.021 176.174 424.021Z" fill="#015DA7"/>
<path d="M144.877 442.117C143.936 442.117 143.196 441.377 143.196 440.435V379.489C143.196 378.547 143.936 377.807 144.877 377.807C145.818 377.807 146.558 378.547 146.558 379.489V440.435C146.558 441.377 145.818 442.117 144.877 442.117Z" fill="#015DA7"/>
<path d="M144.772 380.902C144.032 380.902 143.36 380.397 143.158 379.657C142.923 378.749 143.427 377.841 144.335 377.572C189.882 364.993 226.119 325.606 248.506 294.797C259.43 279.762 269.716 263.012 277.448 247.608C284.944 232.741 287.028 225.274 286.893 223.895C286.557 223.122 286.86 222.213 287.599 221.776C288.406 221.305 289.448 221.574 289.885 222.382C290.322 223.122 291.196 224.635 286.826 235.297C279.633 252.855 262.792 283.63 239.026 312.59C225.581 328.97 211.463 342.895 197.042 353.927C180.033 366.977 162.587 376.025 145.209 380.834C145.074 380.868 144.906 380.902 144.772 380.902Z" fill="#015DA7"/>
<path d="M526.22 220.094L539.397 212.493L525.145 204.387L511.968 211.989L526.22 220.094Z" fill="white"/>
<path d="M526.221 221.776C525.919 221.776 525.65 221.709 525.381 221.54L511.128 213.435C510.591 213.132 510.288 212.594 510.288 211.988C510.288 211.383 510.591 210.845 511.128 210.542L524.305 202.941C524.81 202.638 525.448 202.638 525.986 202.941L540.239 211.046C540.776 211.349 541.079 211.887 541.079 212.493C541.079 213.098 540.776 213.636 540.239 213.939L527.062 221.54C526.793 221.675 526.524 221.776 526.221 221.776ZM515.364 211.955L526.221 218.143L536.037 212.493L525.179 206.304L515.364 211.955Z" fill="#015DA7"/>
<path d="M539.4 212.493V78.2572L525.147 70.1512V204.387L539.4 212.493Z" fill="white"/>
<path d="M539.397 214.175C539.095 214.175 538.826 214.107 538.557 213.939L524.304 205.833C523.766 205.53 523.464 204.992 523.464 204.387V70.151C523.464 69.5456 523.766 69.0074 524.304 68.7047C524.808 68.402 525.447 68.402 525.985 68.7047L540.237 76.8106C540.775 77.1134 541.078 77.6515 541.078 78.2569V212.493C541.078 213.098 540.775 213.636 540.237 213.939C539.969 214.107 539.7 214.175 539.397 214.175ZM526.825 203.411L537.716 209.6V79.266L526.825 73.0772V203.445V203.411Z" fill="#015DA7"/>
<path d="M539.397 78.2572L526.22 85.8923L511.968 77.7527L525.145 70.1512L539.397 78.2572Z" fill="white"/>
<path d="M526.221 87.5738C525.919 87.5738 525.65 87.5065 525.381 87.3383L511.128 79.2324C510.591 78.9297 510.288 78.3915 510.288 77.7861C510.288 77.1807 510.591 76.6425 511.128 76.3398L524.305 68.7384C524.81 68.4357 525.448 68.4357 525.986 68.7384L540.239 76.8443C540.776 77.147 541.079 77.6852 541.079 78.2906C541.079 78.896 540.776 79.4342 540.239 79.7369L527.062 87.3383C526.793 87.4729 526.524 87.5738 526.221 87.5738ZM515.364 77.7525L526.221 83.9412L536.037 78.2906L525.179 72.1019L515.364 77.7525Z" fill="#015DA7"/>
<path d="M526.22 85.892V220.094L511.968 211.988V77.7524L526.22 85.892Z" fill="#71ADD2"/>
<path d="M526.221 221.776C525.919 221.776 525.65 221.709 525.381 221.541L511.128 213.435C510.591 213.132 510.288 212.594 510.288 211.988V77.7524C510.288 77.147 510.591 76.6088 511.128 76.3061C511.633 76.0034 512.271 76.0034 512.809 76.3061L527.062 84.4121C527.6 84.7148 527.902 85.2529 527.902 85.8584V220.094C527.902 220.7 527.6 221.238 527.062 221.541C526.793 221.709 526.524 221.776 526.221 221.776ZM513.65 211.013L524.541 217.202V86.8674L513.65 80.6786V211.047V211.013Z" fill="#015DA7"/>
<path d="M539.399 78.2568V212.493L526.223 220.094V85.8918L539.399 78.2568Z" fill="white"/>
<path d="M526.22 221.776C525.917 221.776 525.648 221.709 525.379 221.54C524.875 221.238 524.539 220.7 524.539 220.094V85.8919C524.539 85.2865 524.875 84.7483 525.379 84.4456L538.556 76.8442C539.06 76.5414 539.733 76.5414 540.237 76.8442C540.741 77.1469 541.077 77.685 541.077 78.2905V212.526C541.077 213.132 540.741 213.67 540.237 213.973L527.06 221.574C526.791 221.709 526.522 221.81 526.22 221.81V221.776ZM527.901 86.8337V217.168L537.716 211.484V81.183L527.901 86.8673V86.8337Z" fill="#015DA7"/>
<path d="M507.762 232.438C506.821 232.438 506.081 231.698 506.081 230.756V128.507C506.081 127.565 506.821 126.825 507.762 126.825C508.703 126.825 509.442 127.565 509.442 128.507V230.79C509.442 231.731 508.703 232.471 507.762 232.471V232.438Z" fill="#015DA7"/>
<path d="M476.504 250.533C475.563 250.533 474.823 249.793 474.823 248.851V174.25C474.823 173.308 475.563 172.568 476.504 172.568C477.445 172.568 478.185 173.308 478.185 174.25V248.851C478.185 249.793 477.445 250.533 476.504 250.533Z" fill="#015DA7"/>
<path d="M445.207 268.595C444.266 268.595 443.526 267.855 443.526 266.913V205.967C443.526 205.026 444.266 204.286 445.207 204.286C446.148 204.286 446.888 205.026 446.888 205.967V266.913C446.888 267.855 446.148 268.595 445.207 268.595Z" fill="#015DA7"/>
<path d="M413.914 286.657C412.973 286.657 412.233 285.917 412.233 284.976V227.46C412.233 226.519 412.973 225.779 413.914 225.779C414.855 225.779 415.595 226.519 415.595 227.46V284.976C415.595 285.917 414.855 286.657 413.914 286.657Z" fill="#015DA7"/>
<path d="M382.652 304.752C381.711 304.752 380.972 304.012 380.972 303.071V242.125C380.972 241.183 381.711 240.443 382.652 240.443C383.594 240.443 384.333 241.183 384.333 242.125V303.071C384.333 304.012 383.594 304.752 382.652 304.752Z" fill="#015DA7"/>
<path d="M351.359 322.815C350.418 322.815 349.679 322.075 349.679 321.133V247.574C349.679 246.632 350.418 245.892 351.359 245.892C352.301 245.892 353.04 246.632 353.04 247.574V321.133C353.04 322.075 352.301 322.815 351.359 322.815Z" fill="#015DA7"/>
<path d="M320.063 340.876C319.121 340.876 318.382 340.136 318.382 339.194V237.079C318.382 236.138 319.121 235.398 320.063 235.398C321.004 235.398 321.743 236.138 321.743 237.079V339.194C321.743 340.136 321.004 340.876 320.063 340.876Z" fill="#015DA7"/>
<path d="M353.712 248.65C347.628 248.65 341.846 247.91 336.4 246.396C321.106 242.159 308.568 231.799 300.164 216.462C299.727 215.654 300.03 214.612 300.836 214.175C301.643 213.737 302.685 214.04 303.122 214.847C311.089 229.377 322.887 239.165 337.308 243.168C357.914 248.885 384.099 242.966 413.108 226.048C457.311 200.519 485.279 163.622 500.977 137.185C517.985 108.528 524.574 85.6902 524.641 85.4547C524.91 84.5466 525.818 84.0421 526.725 84.3111C527.633 84.5802 528.137 85.4883 527.868 86.3965C527.801 86.6319 521.078 109.907 503.834 138.934C493.716 155.987 482.018 171.66 469.043 185.551C452.807 202.941 434.554 217.538 414.756 228.974C399.36 237.954 384.738 243.941 371.259 246.766C365.174 248.045 359.292 248.684 353.678 248.684L353.712 248.65Z" fill="#015DA7"/>
<path d="M651.713 149.293C650.772 149.293 650.032 148.553 650.032 147.611V90.0961C650.032 89.1543 650.772 88.4144 651.713 88.4144C652.654 88.4144 653.394 89.1543 653.394 90.0961V147.611C653.394 148.553 652.654 149.293 651.713 149.293Z" fill="#015DA7"/>
<path d="M620.404 167.389C619.463 167.389 618.724 166.649 618.724 165.707V104.761C618.724 103.819 619.463 103.08 620.404 103.08C621.346 103.08 622.085 103.819 622.085 104.761V165.707C622.085 166.649 621.346 167.389 620.404 167.389Z" fill="#015DA7"/>
<path d="M589.143 185.451C588.201 185.451 587.462 184.711 587.462 183.769V110.21C587.462 109.268 588.201 108.528 589.143 108.528C590.084 108.528 590.823 109.268 590.823 110.21V183.769C590.823 184.711 590.084 185.451 589.143 185.451Z" fill="#015DA7"/>
<path d="M557.85 203.512C556.908 203.512 556.169 202.773 556.169 201.831V99.716C556.169 98.7742 556.908 98.0342 557.85 98.0342C558.791 98.0342 559.53 98.7742 559.53 99.716V201.831C559.53 202.773 558.791 203.512 557.85 203.512Z" fill="#015DA7"/>
<path d="M591.499 111.286C585.415 111.286 579.6 110.546 574.154 109.033C558.86 104.795 546.322 94.4351 537.918 79.0977C537.481 78.2905 537.784 77.2478 538.59 76.8106C539.397 76.3733 540.439 76.676 540.876 77.4832C548.809 92.0134 560.641 101.801 575.062 105.77C595.668 111.488 621.887 105.568 650.862 88.65C651.669 88.1791 652.678 88.4481 653.148 89.2554C653.619 90.0626 653.35 91.0716 652.543 91.5425C637.148 100.523 622.525 106.51 609.046 109.335C602.962 110.613 597.079 111.252 591.466 111.252L591.499 111.286Z" fill="#015DA7"/>
<path d="M288.435 357.458L301.612 349.857L287.359 341.751L274.183 349.352L288.435 357.458Z" fill="white"/>
<path d="M288.436 359.14C288.134 359.14 287.865 359.072 287.596 358.904L273.343 350.798C272.805 350.496 272.503 349.957 272.503 349.352C272.503 348.747 272.805 348.208 273.343 347.906L286.52 340.304C287.024 340.002 287.663 340.002 288.201 340.304L302.453 348.41C302.991 348.713 303.294 349.251 303.294 349.857C303.294 350.462 302.991 351 302.453 351.303L289.277 358.904C289.008 359.039 288.739 359.14 288.436 359.14ZM277.579 349.318L288.436 355.507L298.252 349.857L287.394 343.668L277.579 349.318Z" fill="#015DA7"/>
<path d="M301.615 349.857V215.621L287.362 207.515V341.751L301.615 349.857Z" fill="white"/>
<path d="M301.612 351.538C301.309 351.538 301.04 351.471 300.772 351.303L286.519 343.197C285.981 342.894 285.679 342.356 285.679 341.75V207.515C285.679 206.909 285.981 206.371 286.519 206.068C287.023 205.766 287.662 205.766 288.2 206.068L302.452 214.174C302.99 214.477 303.293 215.015 303.293 215.62V349.856C303.293 350.462 302.99 351 302.452 351.303C302.183 351.471 301.914 351.538 301.612 351.538ZM289.04 340.775L299.931 346.964V216.596L289.04 210.407V340.775Z" fill="#015DA7"/>
<path d="M301.612 215.621L288.435 223.256L274.183 215.116L287.359 207.515L301.612 215.621Z" fill="white"/>
<path d="M288.436 224.937C288.134 224.937 287.865 224.87 287.596 224.702L273.343 216.596C272.805 216.293 272.503 215.755 272.503 215.149C272.503 214.544 272.805 214.006 273.343 213.703L286.52 206.102C287.024 205.799 287.663 205.799 288.201 206.102L302.453 214.208C302.991 214.51 303.294 215.048 303.294 215.654C303.294 216.259 302.991 216.797 302.453 217.1L289.277 224.702C289.008 224.836 288.739 224.937 288.436 224.937ZM277.579 215.116L288.436 221.305L298.252 215.654L287.394 209.465L277.579 215.116Z" fill="#015DA7"/>
<path d="M288.435 223.256V357.458L274.183 349.352V215.116L288.435 223.256Z" fill="#71ADD2"/>
<path d="M288.436 359.14C288.134 359.14 287.865 359.072 287.596 358.904L273.343 350.798C272.805 350.496 272.503 349.957 272.503 349.352V215.116C272.503 214.511 272.805 213.973 273.343 213.67C273.848 213.367 274.486 213.367 275.024 213.67L289.277 221.776C289.814 222.079 290.117 222.617 290.117 223.222V357.458C290.117 358.063 289.814 358.602 289.277 358.904C289.008 359.072 288.739 359.14 288.436 359.14ZM275.864 348.377L286.755 354.565V224.198L275.864 218.009V348.377Z" fill="#015DA7"/>
<path d="M301.613 215.621V349.857L288.437 357.458V223.256L301.613 215.621Z" fill="white"/>
<path d="M288.434 359.14C288.131 359.14 287.862 359.073 287.593 358.905C287.089 358.602 286.753 358.064 286.753 357.458V223.222C286.753 222.617 287.089 222.079 287.593 221.776L300.77 214.175C301.274 213.872 301.947 213.872 302.451 214.175C302.955 214.477 303.291 215.015 303.291 215.621V349.857C303.291 350.462 302.955 351 302.451 351.303L289.274 358.905C289.005 359.039 288.736 359.14 288.434 359.14ZM290.114 224.198V354.532L299.93 348.848V218.513L290.114 224.198Z" fill="#015DA7"/>
</svg>
