<svg width="1361" height="184" viewBox="0 0 1361 184" fill="none" xmlns="http://www.w3.org/2000/svg">
<g clip-path="url(#clip0_1_556)">
<path d="M137.235 0L0 182.738H5.29768H43.1383H48.6882L185.923 0H137.235Z" fill="white"/>
<path d="M214.43 0L77.1948 182.738H82.7448H120.585H125.883L263.118 0H214.43Z" fill="white"/>
<path d="M416.751 75.2153H393.542V45.9369H329.718V75.2153H306.761V0H329.718V25.4925H393.542V0H416.751V75.2153Z" fill="white"/>
<path d="M541.625 75.2153H515.389L508.073 61.8381H454.844L447.528 75.2153H421.544L460.898 6.31001C463.421 1.7668 465.692 0 472.251 0H491.171C496.721 0 499.748 1.5144 502.523 6.31001L541.877 75.2153H541.625ZM479.314 20.4444C477.548 20.4444 476.791 21.2016 475.53 22.9684L464.682 42.6557H497.73L486.882 22.9684C486.125 21.454 484.864 20.4444 483.35 20.4444H479.062H479.314Z" fill="white"/>
<path d="M656.408 55.0233C665.995 55.0233 673.815 62.8477 673.815 72.439V93.893H654.138V75.7202H563.825C554.239 75.7202 546.418 67.8957 546.418 58.3045V0H569.375V55.0233H633.199V0H656.156V55.0233H656.408Z" fill="white"/>
<path d="M789.102 75.2153H766.146V20.4444H702.321V75.2153H679.365V12.62C679.365 5.80521 684.915 0 691.978 0H776.994C783.805 0 789.607 5.55281 789.607 12.62V75.2153H789.102Z" fill="white"/>
<path d="M900.606 32.5597C900.606 44.6749 893.038 50.9849 877.902 50.9849H821.645V75.4678H798.689V0H877.902C893.038 0 900.606 6.05761 900.606 18.4252V32.5597ZM821.645 20.4444V30.7929H873.109C875.884 30.7929 877.397 29.7833 877.397 28.0165V23.2209C877.397 21.454 875.884 20.4444 873.109 20.4444H821.645Z" fill="white"/>
<path d="M1023.21 51.4897C1023.21 67.391 1013.88 75.4678 994.955 75.4678H936.681C917.76 75.4678 908.427 67.391 908.427 51.4897V23.9781C908.427 8.07682 917.76 0 936.681 0H994.955C1013.88 0 1023.21 8.07682 1023.21 23.9781V51.4897ZM931.635 55.0233H1000.25V20.4444H931.635V55.0233Z" fill="white"/>
<path d="M1138.25 19.4348H1060.04C1057.27 19.4348 1055.75 20.6968 1055.75 23.2209V28.5213H1137.49V46.6941H1055.75V52.2469C1055.75 54.7709 1057.27 56.0329 1060.04 56.0329H1138.5V75.4678H1032.8V0H1138.25V19.4348Z" fill="white"/>
<path d="M1215.19 35.0837L1255.55 75.4678H1224.52L1200.56 50.9849C1197.53 47.7037 1193.24 45.9369 1188.7 45.9369H1170.28V75.4678H1147.33V0H1170.28V26.5021H1187.69C1191.98 26.5021 1196.01 24.7353 1199.29 21.9588L1222 0H1252.78L1215.19 34.8313V35.0837Z" fill="white"/>
<path d="M1361 20.4444H1320.13V75.2153H1297.18V20.4444H1255.55V0H1361V20.4444Z" fill="white"/>
<path d="M414.985 128.977H329.718V163.808H415.237V184H329.213C314.077 184 306.509 177.942 306.509 165.575V126.957C306.509 114.842 314.077 108.532 329.213 108.532H414.733V128.977H414.985Z" fill="white"/>
<path d="M530.273 128.977H489.405V184H466.196V128.977H424.824V108.532H530.273V128.977Z" fill="white"/>
<path d="M641.524 141.092C641.524 153.207 633.956 159.517 618.82 159.517H562.563V184H539.607V108.785H618.82C633.956 108.785 641.524 114.842 641.524 127.21V141.344V141.092ZM562.563 128.977V139.325H614.027C616.802 139.325 618.315 138.316 618.315 136.549V131.753C618.315 129.986 616.802 128.977 614.027 128.977H562.563Z" fill="white"/>
<path d="M764.38 160.022C764.38 175.923 755.046 184 736.126 184H678.103C659.183 184 649.849 175.923 649.849 160.022V132.51C649.849 116.609 659.183 108.532 678.103 108.532H736.126C755.046 108.532 764.38 116.609 764.38 132.51V160.022ZM672.806 163.556H741.423V128.977H672.806V163.556Z" fill="white"/>
<path d="M880.929 184H858.225V128.977H856.711C853.432 128.977 850.909 130.491 849.143 133.268L826.186 168.856C818.114 181.476 811.302 184 794.653 184H790.868C781.282 184 773.462 176.176 773.462 166.837V108.785H796.166V163.808H797.68C800.707 163.808 803.23 162.294 804.996 159.77L828.709 124.181C835.773 113.58 841.827 109.037 854.693 109.037H863.27C872.856 109.037 880.425 116.861 880.425 126.2V184.252L880.929 184ZM847.882 89.8546C847.882 95.4074 843.845 105.756 832.998 105.756H818.366C807.266 105.756 803.23 95.4074 803.23 89.8546H815.843C815.843 92.631 817.105 94.1454 821.645 94.1454H830.223C834.259 94.1454 835.52 92.631 835.52 89.8546H848.134H847.882Z" fill="white"/>
</g>
<defs>
<clipPath id="clip0_1_556">
<rect width="1361" height="184" fill="white"/>
</clipPath>
</defs>
</svg>
