<svg width="389" height="582" viewBox="0 0 389 582" fill="none" xmlns="http://www.w3.org/2000/svg">
<path d="M2.44238 471.452L198.297 359.83L388.509 469.467L192.695 581.089L2.44238 471.452Z" fill="#D2E6DF"/>
<path d="M2.20663 454.911C2.08418 454.911 1.96173 454.911 1.79847 454.872C1.67602 454.872 1.55357 454.792 1.43112 454.753C1.30867 454.713 1.18622 454.634 1.06378 454.555C0.941326 454.475 0.859694 454.396 0.737245 454.317C0.369898 453.961 0.125 453.446 0.125 452.931C0.125 452.416 0.125 452.654 0.125 452.535C0.125 452.416 0.206633 452.297 0.247449 452.178C0.288265 452.06 0.369898 451.941 0.451531 451.822C0.533163 451.703 0.614796 451.624 0.696429 451.505C1.06378 451.149 1.59439 450.911 2.125 450.911C2.65561 450.911 3.18622 451.109 3.55357 451.505C3.6352 451.584 3.71684 451.703 3.79847 451.822C3.8801 451.941 3.92092 452.06 4.00255 452.178C4.04337 452.297 4.08418 452.416 4.125 452.535C4.125 452.654 4.125 452.812 4.125 452.931C4.125 453.446 3.92092 453.961 3.51276 454.317C3.43112 454.396 3.30867 454.475 3.18622 454.555C3.06378 454.634 2.94133 454.673 2.81888 454.753C2.69643 454.792 2.57398 454.832 2.45153 454.872C2.32908 454.872 2.20663 454.911 2.04337 454.911H2.20663Z" fill="#015DA7"/>
<path d="M18.4012 443.91C17.8399 442.949 18.1606 441.708 19.1228 441.187C20.0849 440.626 21.3277 440.947 21.8488 441.908C22.4101 442.869 22.0894 444.11 21.1272 444.631C20.8065 444.831 20.4858 444.911 20.125 444.911C19.4435 444.911 18.762 444.551 18.4012 443.91Z" fill="#015DA7"/>
<path d="M36.4012 433.91C35.8399 432.949 36.1606 431.708 37.1228 431.187C38.0849 430.626 39.3277 430.947 39.8488 431.908C40.4101 432.869 40.0894 434.11 39.1272 434.631C38.8065 434.791 38.4858 434.911 38.125 434.911C37.4435 434.911 36.762 434.551 36.4012 433.91Z" fill="#015DA7"/>
<path d="M53.4012 423.91C52.8399 422.949 53.1606 421.708 54.1228 421.187C55.0849 420.626 56.3277 420.947 56.8488 421.908C57.4101 422.869 57.0894 424.11 56.1272 424.631C55.8065 424.831 55.4858 424.911 55.125 424.911C54.4435 424.911 53.762 424.551 53.4012 423.91Z" fill="#015DA7"/>
<path d="M71.4012 413.91C70.8399 412.949 71.1606 411.708 72.1228 411.187C73.0849 410.626 74.3277 410.947 74.8488 411.908C75.4101 412.869 75.0894 414.11 74.1272 414.631C73.8065 414.831 73.4858 414.911 73.125 414.911C72.4435 414.911 71.762 414.551 71.4012 413.91Z" fill="#015DA7"/>
<path d="M88.4012 403.91C87.8399 402.949 88.1606 401.748 89.1228 401.187C90.0849 400.626 91.3277 400.947 91.8488 401.908C92.4101 402.869 92.0894 404.11 91.1272 404.631C90.8065 404.831 90.4858 404.911 90.125 404.911C89.4435 404.911 88.762 404.551 88.4012 403.91Z" fill="#015DA7"/>
<path d="M106.401 393.66C105.84 392.458 106.161 390.957 107.123 390.256C108.085 389.555 109.288 389.956 109.849 391.157C110.41 392.358 110.089 393.91 109.127 394.561C108.807 394.811 108.486 394.911 108.125 394.911C107.443 394.911 106.762 394.461 106.401 393.66Z" fill="#015DA7"/>
<path d="M124.401 382.91C123.84 381.949 124.161 380.748 125.123 380.187C126.085 379.626 127.288 379.947 127.849 380.908C128.41 381.869 128.089 383.07 127.127 383.631C126.807 383.831 126.446 383.911 126.125 383.911C125.443 383.911 124.762 383.551 124.401 382.91Z" fill="#015DA7"/>
<path d="M141.401 372.91C140.84 371.949 141.161 370.748 142.123 370.187C143.085 369.626 144.288 369.947 144.849 370.908C145.41 371.869 145.089 373.11 144.127 373.631C143.807 373.831 143.486 373.911 143.125 373.911C142.443 373.911 141.762 373.551 141.401 372.91Z" fill="#015DA7"/>
<path d="M159.401 362.91C158.84 361.949 159.161 360.708 160.123 360.187C161.085 359.626 162.328 359.947 162.849 360.908C163.41 361.869 163.089 363.11 162.127 363.631C161.807 363.831 161.486 363.911 161.125 363.911C160.443 363.911 159.762 363.551 159.401 362.91Z" fill="#015DA7"/>
<path d="M176.47 352.91C175.769 351.949 176.17 350.708 177.372 350.187C178.575 349.626 180.078 349.947 180.78 350.908C181.481 351.869 181.08 353.11 179.878 353.631C179.477 353.791 179.076 353.911 178.625 353.911C177.773 353.911 176.921 353.551 176.47 352.91Z" fill="#015DA7"/>
<path d="M194.401 342.91C193.84 341.949 194.161 340.708 195.123 340.187C196.085 339.626 197.328 339.947 197.849 340.908C198.41 341.869 198.089 343.11 197.127 343.631C196.807 343.831 196.486 343.911 196.125 343.911C195.443 343.911 194.762 343.551 194.401 342.91Z" fill="#015DA7"/>
<path d="M196.591 344.069C196.063 344.069 195.536 343.867 195.17 343.462C194.805 343.097 194.562 342.57 194.562 342.044C194.562 341.517 194.562 341.801 194.562 341.638C194.562 341.517 194.643 341.395 194.683 341.274C194.724 341.152 194.805 341.031 194.886 340.909C194.967 340.788 195.049 340.707 195.13 340.585C195.211 340.504 195.333 340.423 195.455 340.342C195.576 340.261 195.698 340.22 195.82 340.139C195.942 340.099 196.063 340.058 196.185 340.018C196.835 339.896 197.565 340.099 198.012 340.585C198.377 340.95 198.621 341.476 198.621 342.003C198.621 342.53 198.418 343.057 198.012 343.421C197.646 343.786 197.119 344.029 196.591 344.029V344.069Z" fill="#015DA7"/>
<path d="M368.497 443.496C367.523 442.929 367.198 441.713 367.766 440.741C368.334 439.768 369.552 439.444 370.526 440.012C371.501 440.579 371.825 441.794 371.257 442.767C370.892 443.415 370.202 443.78 369.512 443.78C369.146 443.78 368.821 443.699 368.497 443.496ZM351.205 433.529C350.231 432.962 349.906 431.746 350.474 430.774C351.042 429.801 352.26 429.477 353.234 430.045C354.209 430.612 354.533 431.827 353.965 432.8C353.6 433.448 352.91 433.813 352.22 433.813C351.854 433.813 351.529 433.732 351.205 433.529ZM333.913 423.562C332.939 422.995 332.614 421.779 333.182 420.807C333.75 419.835 334.968 419.51 335.942 420.078C336.916 420.645 337.241 421.86 336.673 422.833C336.308 423.481 335.618 423.846 334.928 423.846C334.562 423.846 334.237 423.765 333.913 423.562ZM316.621 413.595C315.647 413.028 315.322 411.812 315.89 410.84C316.458 409.868 317.676 409.543 318.65 410.111C319.624 410.678 319.949 411.893 319.381 412.866C319.016 413.514 318.326 413.879 317.636 413.879C317.27 413.879 316.945 413.798 316.621 413.595ZM299.329 403.628C298.355 403.061 298.03 401.845 298.598 400.873C299.166 399.901 300.384 399.576 301.358 400.144C302.332 400.711 302.657 401.926 302.089 402.899C301.724 403.547 301.034 403.912 300.344 403.912C299.978 403.912 299.653 403.831 299.329 403.628ZM282.037 393.661C281.063 393.094 280.738 391.878 281.306 390.906C281.874 389.934 283.092 389.61 284.066 390.177C285.04 390.744 285.365 391.959 284.797 392.932C284.432 393.58 283.742 393.945 283.051 393.945C282.727 393.945 282.361 393.864 282.037 393.661ZM264.745 383.694C263.771 383.127 263.446 381.911 264.014 380.939C264.582 379.967 265.8 379.643 266.774 380.21C267.748 380.777 268.073 381.992 267.505 382.965C267.14 383.613 266.45 383.978 265.759 383.978C265.394 383.978 265.069 383.897 264.745 383.694ZM247.453 373.727C246.478 373.16 246.154 371.944 246.722 370.972C247.29 370 248.508 369.676 249.482 370.243C250.456 370.81 250.781 372.026 250.213 372.998C249.848 373.646 249.158 374.011 248.467 374.011C248.143 374.011 247.777 373.93 247.453 373.727ZM230.161 363.76C229.186 363.193 228.862 361.978 229.43 361.005C229.998 360.033 231.216 359.709 232.19 360.276C233.164 360.843 233.489 362.059 232.921 363.031C232.556 363.679 231.866 364.044 231.175 364.044C230.851 364.044 230.485 363.963 230.161 363.76ZM212.869 353.793C211.894 353.226 211.57 352.011 212.138 351.038C212.706 350.066 213.924 349.742 214.898 350.309C215.872 350.876 216.197 352.092 215.629 353.064C215.264 353.712 214.574 354.077 213.883 354.077C213.559 354.077 213.193 353.996 212.869 353.793Z" fill="#015DA7"/>
<path d="M386.801 453.706C386.679 453.706 386.517 453.706 386.395 453.706C386.273 453.706 386.152 453.625 386.03 453.584C385.908 453.544 385.786 453.463 385.664 453.382C385.543 453.301 385.462 453.22 385.34 453.139C385.218 453.058 385.177 452.936 385.096 452.815C385.015 452.693 384.974 452.572 384.893 452.45C384.853 452.329 384.812 452.207 384.771 452.085C384.771 451.964 384.771 451.842 384.771 451.68C384.771 451.518 384.771 451.437 384.771 451.275C384.771 451.154 384.853 451.032 384.893 450.91C384.934 450.789 385.015 450.667 385.096 450.546C385.177 450.424 385.259 450.343 385.34 450.222C385.421 450.141 385.543 450.06 385.664 449.979C385.786 449.898 385.908 449.857 386.03 449.776C386.152 449.735 386.273 449.695 386.395 449.654C386.639 449.614 386.923 449.614 387.166 449.654C387.288 449.654 387.41 449.735 387.532 449.776C387.653 449.817 387.775 449.898 387.897 449.979C388.019 450.06 388.1 450.141 388.222 450.222C388.303 450.303 388.384 450.424 388.465 450.546C388.546 450.667 388.587 450.789 388.668 450.91C388.709 451.032 388.749 451.154 388.79 451.275C388.79 451.397 388.831 451.518 388.831 451.68C388.831 451.842 388.831 451.964 388.79 452.085C388.79 452.207 388.709 452.329 388.668 452.45C388.628 452.572 388.546 452.693 388.465 452.815C388.384 452.936 388.303 453.017 388.222 453.139C388.141 453.26 388.019 453.301 387.897 453.382C387.775 453.463 387.653 453.503 387.532 453.584C387.41 453.625 387.288 453.666 387.166 453.706C387.045 453.706 386.923 453.706 386.76 453.706H386.801Z" fill="#015DA7"/>
<path d="M208.401 553.91C207.84 552.949 208.161 551.708 209.123 551.187C210.085 550.626 211.288 550.947 211.849 551.908C212.41 552.869 212.089 554.11 211.127 554.631C210.807 554.831 210.446 554.911 210.125 554.911C209.443 554.911 208.762 554.551 208.401 553.91Z" fill="#015DA7"/>
<path d="M226.401 543.91C225.84 542.949 226.161 541.708 227.123 541.187C228.085 540.626 229.288 540.947 229.849 541.908C230.41 542.869 230.089 544.07 229.127 544.631C228.807 544.831 228.486 544.911 228.125 544.911C227.443 544.911 226.762 544.551 226.401 543.91Z" fill="#015DA7"/>
<path d="M243.401 533.91C242.84 532.949 243.161 531.708 244.123 531.187C245.085 530.626 246.328 530.947 246.849 531.908C247.41 532.869 247.089 534.11 246.127 534.631C245.807 534.831 245.486 534.911 245.125 534.911C244.443 534.911 243.762 534.551 243.401 533.91Z" fill="#015DA7"/>
<path d="M261.401 522.91C260.84 521.949 261.161 520.748 262.123 520.187C263.085 519.626 264.328 519.947 264.849 520.908C265.41 521.869 265.089 523.07 264.127 523.631C263.807 523.831 263.486 523.911 263.125 523.911C262.443 523.911 261.762 523.551 261.401 522.91Z" fill="#015DA7"/>
<path d="M279.401 512.91C278.84 511.949 279.161 510.708 280.123 510.187C281.085 509.626 282.328 509.947 282.849 510.908C283.41 511.869 283.089 513.07 282.127 513.631C281.807 513.831 281.486 513.911 281.125 513.911C280.443 513.911 279.762 513.551 279.401 512.91Z" fill="#015DA7"/>
<path d="M296.401 502.91C295.84 501.949 296.161 500.708 297.123 500.187C298.085 499.626 299.328 499.947 299.849 500.908C300.41 501.869 300.089 503.11 299.127 503.631C298.807 503.831 298.486 503.911 298.125 503.911C297.443 503.911 296.762 503.551 296.401 502.91Z" fill="#015DA7"/>
<path d="M314.401 492.91C313.84 491.949 314.161 490.708 315.123 490.187C316.085 489.626 317.328 489.947 317.849 490.908C318.41 491.869 318.089 493.07 317.127 493.631C316.807 493.791 316.486 493.911 316.125 493.911C315.443 493.911 314.762 493.551 314.401 492.91Z" fill="#015DA7"/>
<path d="M331.47 482.91C330.769 481.949 331.17 480.708 332.372 480.187C333.575 479.626 335.078 479.947 335.78 480.908C336.481 481.869 336.08 483.11 334.878 483.631C334.477 483.831 334.076 483.911 333.625 483.911C332.773 483.911 331.921 483.551 331.47 482.91Z" fill="#015DA7"/>
<path d="M349.401 472.91C348.84 471.949 349.161 470.708 350.123 470.187C351.085 469.626 352.288 469.947 352.849 470.908C353.41 471.869 353.089 473.11 352.127 473.631C351.807 473.831 351.446 473.911 351.125 473.911C350.443 473.911 349.762 473.551 349.401 472.91Z" fill="#015DA7"/>
<path d="M367.401 462.66C366.84 461.458 367.161 459.957 368.123 459.256C369.085 458.555 370.288 458.956 370.849 460.157C371.41 461.358 371.089 462.91 370.127 463.561C369.807 463.811 369.486 463.911 369.125 463.911C368.443 463.911 367.762 463.461 367.401 462.66Z" fill="#015DA7"/>
<path d="M384.401 451.91C383.84 450.949 384.161 449.708 385.123 449.187C386.085 448.626 387.328 448.947 387.849 449.908C388.41 450.869 388.089 452.11 387.127 452.631C386.807 452.831 386.486 452.911 386.125 452.911C385.443 452.911 384.762 452.551 384.401 451.91Z" fill="#015DA7"/>
<path d="M193.066 564.911C192.551 564.911 192.036 564.715 191.679 564.321C191.6 564.243 191.521 564.125 191.442 564.007C191.363 563.889 191.323 563.771 191.283 563.653C191.244 563.535 191.204 563.417 191.165 563.299C191.165 563.181 191.125 563.024 191.125 562.906C191.125 562.788 191.125 562.631 191.165 562.513C191.165 562.395 191.244 562.277 191.283 562.159C191.323 562.041 191.402 561.923 191.442 561.805C191.521 561.688 191.6 561.609 191.679 561.491C191.759 561.412 191.877 561.334 191.996 561.255C192.115 561.177 192.234 561.137 192.353 561.059C192.472 561.019 192.59 560.98 192.709 560.941C192.947 560.901 193.224 560.901 193.501 560.941C193.62 560.941 193.739 561.019 193.858 561.059C193.976 561.098 194.095 561.177 194.214 561.255C194.333 561.334 194.412 561.412 194.531 561.491C194.61 561.57 194.689 561.688 194.769 561.805C194.848 561.923 194.887 562.041 194.967 562.159C195.006 562.277 195.046 562.395 195.085 562.513C195.085 562.631 195.125 562.788 195.125 562.906C195.125 563.024 195.125 563.181 195.085 563.299C195.085 563.417 195.006 563.535 194.967 563.653C194.927 563.771 194.848 563.889 194.769 564.007C194.689 564.125 194.61 564.204 194.531 564.321C194.175 564.675 193.66 564.911 193.145 564.911H193.066Z" fill="#015DA7"/>
<path d="M174.098 554.627C173.128 554.058 172.805 552.839 173.37 551.864C173.936 550.889 175.149 550.564 176.119 551.133C177.089 551.702 177.412 552.921 176.847 553.896C176.483 554.546 175.796 554.911 175.109 554.911C174.745 554.911 174.421 554.83 174.098 554.627ZM156.879 544.633C155.909 544.064 155.586 542.846 156.152 541.871C156.718 540.896 157.93 540.571 158.9 541.14C159.87 541.708 160.194 542.927 159.628 543.902C159.264 544.552 158.577 544.918 157.89 544.918C157.567 544.918 157.203 544.836 156.879 544.633ZM139.661 534.64C138.691 534.071 138.368 532.852 138.933 531.877C139.499 530.902 140.712 530.577 141.682 531.146C142.652 531.715 142.975 532.933 142.409 533.908C142.046 534.558 141.359 534.924 140.671 534.924C140.308 534.924 139.984 534.843 139.661 534.64ZM122.442 524.646C121.472 524.077 121.149 522.859 121.715 521.884C122.281 520.909 123.493 520.584 124.463 521.152C125.433 521.721 125.757 522.94 125.191 523.915C124.827 524.565 124.14 524.93 123.453 524.93C123.089 524.93 122.766 524.849 122.442 524.646ZM105.224 514.653C104.254 514.084 103.93 512.865 104.496 511.89C105.062 510.915 106.275 510.59 107.245 511.159C108.215 511.728 108.538 512.946 107.972 513.921C107.609 514.571 106.921 514.937 106.234 514.937C105.911 514.937 105.547 514.856 105.224 514.653ZM88.0052 504.659C87.0352 504.09 86.7118 502.871 87.2777 501.896C87.8436 500.922 89.0561 500.597 90.0262 501.165C90.9963 501.734 91.3196 502.953 90.7537 503.928C90.39 504.578 89.7029 504.943 89.0157 504.943C88.6519 504.943 88.3286 504.862 88.0052 504.659ZM70.7867 494.665C69.8166 494.097 69.4933 492.878 70.0591 491.903C70.625 490.928 71.8376 490.603 72.8076 491.172C73.7777 491.74 74.1011 492.959 73.5352 493.934C73.1714 494.584 72.4843 494.95 71.7972 494.95C71.4738 494.95 71.11 494.868 70.7867 494.665ZM53.5681 484.672C52.598 484.103 52.2747 482.884 52.8406 481.909C53.4064 480.934 54.619 480.609 55.5891 481.178C56.5591 481.747 56.8825 482.966 56.3166 483.941C55.9528 484.591 55.2657 484.956 54.5786 484.956C54.2148 484.956 53.8915 484.875 53.5681 484.672ZM36.3496 474.678C35.3795 474.11 35.0561 472.891 35.622 471.916C36.1879 470.941 37.4004 470.616 38.3705 471.185C39.3406 471.753 39.6639 472.972 39.0981 473.947C38.7343 474.597 38.0472 474.963 37.36 474.963C36.9963 474.963 36.6729 474.881 36.3496 474.678ZM19.131 464.685C18.1609 464.116 17.8376 462.897 18.4034 461.922C18.9693 460.947 20.1819 460.622 21.1519 461.191C22.122 461.76 22.4454 462.978 21.8795 463.953C21.5157 464.603 20.8286 464.969 20.1415 464.969C19.7777 464.969 19.4543 464.888 19.131 464.685Z" fill="#015DA7"/>
<path fill-rule="evenodd" clip-rule="evenodd" d="M226.574 473.911C228.35 486.919 228.886 491.181 229.111 497.922C229.196 500.931 229.027 504.245 224.742 507.699C221.473 510.318 209.776 516.697 199.348 521.794C187.003 527.811 186.326 530.931 175.531 533.633C170.543 534.886 162.961 531.627 159.832 529.454C156.901 527.421 158 520.569 161.185 518.117C170.092 511.376 192.781 489.259 198.051 477.421L226.546 473.911H226.574Z" fill="white" stroke="#1E4C6B" stroke-width="3" stroke-miterlimit="10" stroke-linejoin="bevel"/>
<path fill-rule="evenodd" clip-rule="evenodd" d="M224.964 406.131C223.694 410.625 224.456 423.574 219.433 433.742C214.411 443.91 206.538 452.224 205.014 456.83C203.01 462.897 204.534 464.049 208.174 465.706C212.266 467.56 219.687 467.363 223.751 464.498C229.253 460.65 242.996 445.061 245.733 442.309C248.47 439.556 256.23 433.236 259.983 431.158C264.159 428.855 263.369 423.265 262.156 420.007C260.547 415.709 257.415 410.991 254.48 407.76C252.364 405.429 249.26 401.946 247.595 401.047C245.93 400.149 238.509 403.997 235.066 403.884C231.652 403.772 225.952 402.705 224.964 406.103V406.131Z" fill="white" stroke="#1E4C6B" stroke-width="3" stroke-miterlimit="10" stroke-linejoin="bevel"/>
<path fill-rule="evenodd" clip-rule="evenodd" d="M177.293 251.588C177.915 230.674 187.247 229.911 198.247 229.911C209.248 229.911 231.164 242.771 231.786 262.441C232.747 293.897 226.045 312.607 220.276 349.207C231.022 362.433 242.786 378.458 252.203 396.97C257.604 407.568 250.874 414.125 241.316 417.517C231.729 420.908 227.544 417.884 220.531 410.931C207.268 397.789 199.294 385.608 184.702 368.086C181.422 364.157 177.745 357.657 177.321 352.852C175.257 329.875 176.275 286.238 177.321 251.56L177.293 251.588Z" fill="#71ADD2" stroke="#1E4C6B" stroke-width="3" stroke-miterlimit="10" stroke-linejoin="bevel"/>
<path fill-rule="evenodd" clip-rule="evenodd" d="M235.168 369.911L248.125 390.751L237.083 418.911L225.125 391.396L235.168 369.911Z" fill="#D2E6DF" stroke="#1E4C6B" stroke-width="3" stroke-miterlimit="10" stroke-linejoin="bevel"/>
<path fill-rule="evenodd" clip-rule="evenodd" d="M174.795 101.152C178.174 92.2977 189.589 84.9946 194.701 91.2544C201.175 99.2342 203.901 121.313 200.919 132.084C191.151 167.5 195.836 165.019 185.245 187.915C182.434 194.005 181.355 197.445 177.209 203.733C165.907 220.906 159.177 231.141 150.488 241.8C143.616 250.231 137.625 248.877 131.491 244.112C126.976 240.587 123.853 236.978 128.226 228.885C138.306 210.303 142.253 200.434 155.514 177.679C161.676 156.136 162.187 134.199 174.767 101.123L174.795 101.152Z" fill="#71ADD2" stroke="#1E4C6B" stroke-width="3" stroke-miterlimit="10" stroke-linejoin="bevel"/>
<path fill-rule="evenodd" clip-rule="evenodd" d="M209.849 255.849C212.067 245.057 239.422 242.422 250.284 244.632C261.118 246.841 273.459 253.526 273.118 264.545C272.834 274.233 271.355 288.934 269.393 296.837C263.336 321.396 255.829 327.6 247.497 357.003C246.246 361.45 242.436 380.117 241.867 385.244C238.341 418.613 231.801 446.316 228.389 474.189C226.91 486.313 215.479 490.024 203.28 488.636C192.275 487.389 192.275 479.43 192.19 470.677C191.82 434.844 192.958 391.929 197.422 354.595C201.688 319.045 205.27 293.098 209.82 255.821L209.849 255.849Z" fill="#71ADD2" stroke="#1E4C6B" stroke-width="3" stroke-miterlimit="10" stroke-linejoin="bevel"/>
<path fill-rule="evenodd" clip-rule="evenodd" d="M211.287 80.0161C230.412 87.5757 236.872 89.1835 252.67 99.6203C261.198 105.262 278.059 116.855 279.122 126.784C283.484 168.164 279.877 180.66 276.325 205.2C274.955 214.735 274.843 226.92 273.837 239.247C273.669 241.193 273.669 247.004 273.278 253.266C272.746 261.559 273.166 266.269 270.817 269.429C267.741 273.575 255.969 283.137 240.003 283.899C232.817 284.238 211.175 277.44 195.32 267.398C185.981 261.474 179.914 253.802 178.18 251.94C178.264 242.209 178.599 236.398 178.124 231.744C174.237 193.494 173.287 121.34 173.147 116.855C172.28 88.9015 197.39 74.5721 211.315 80.0725L211.287 80.0161Z" fill="#D2E6DF" stroke="#1E4C6B" stroke-width="3" stroke-miterlimit="10" stroke-linejoin="bevel"/>
<path fill-rule="evenodd" clip-rule="evenodd" d="M196.881 147.765C189.117 143.834 181.323 139.707 173.47 134.911C172.708 144.698 173.441 156.492 173.47 159.057C181.762 165.47 189.351 168.816 196.881 171.911C196.735 164.299 197.497 158.723 196.881 147.737V147.765Z" fill="white" stroke="#1E4C6B" stroke-width="3" stroke-miterlimit="10" stroke-linejoin="bevel"/>
<path fill-rule="evenodd" clip-rule="evenodd" d="M236.891 171.102C229.45 167.068 221.981 162.833 214.456 157.911C213.726 167.983 214.428 180.087 214.456 182.72C222.402 189.301 229.675 192.706 236.891 195.911C236.751 188.099 237.481 182.376 236.891 171.131V171.102Z" fill="white" stroke="#1E4C6B" stroke-width="3" stroke-miterlimit="10" stroke-linejoin="bevel"/>
<path fill-rule="evenodd" clip-rule="evenodd" d="M197.125 135.11C188.776 131.326 180.634 127.119 173.384 122.911C172.968 126.431 173.117 128.521 173.384 129.712C181.11 134.528 189.013 138.365 197.125 141.911C196.887 139.688 196.828 137.465 197.125 135.11Z" fill="white" stroke="#1E4C6B" stroke-width="3" stroke-miterlimit="10" stroke-linejoin="bevel"/>
<path fill-rule="evenodd" clip-rule="evenodd" d="M236.125 158.394C228.471 154.212 221.008 149.562 214.363 144.911C213.981 148.801 214.117 151.112 214.363 152.428C221.444 157.751 228.689 161.992 236.125 165.911C235.907 163.454 235.853 160.968 236.125 158.394Z" fill="white" stroke="#1E4C6B" stroke-width="3" stroke-miterlimit="10" stroke-linejoin="bevel"/>
<path fill-rule="evenodd" clip-rule="evenodd" d="M207.07 84.9401L197.125 96.7082C198.163 99.8966 199.95 103.143 201.362 104.65L197.759 108.592C201.881 114.766 203.726 118.36 206.695 120.911C206.09 109.578 205.657 98.3604 210.125 88.5343L207.041 84.9111L207.07 84.9401Z" fill="white" stroke="#1E4C6B" stroke-width="3" stroke-miterlimit="10" stroke-linejoin="bevel"/>
<path fill-rule="evenodd" clip-rule="evenodd" d="M204.409 98.9111C207.421 105.436 213.738 107.717 223.125 105.667C218.417 111.095 212.978 118.659 205.959 120.911C204.585 115.859 203.62 108.756 204.409 98.9111Z" fill="#71ADD2" stroke="#1E4C6B" stroke-width="3" stroke-miterlimit="10" stroke-linejoin="bevel"/>
<path fill-rule="evenodd" clip-rule="evenodd" d="M206.979 72.9111L205.125 99.1141C208.205 108.898 222.237 109.651 237.125 100.368L237.068 72.9111H206.979Z" fill="white" stroke="#1E4C6B" stroke-width="3" stroke-miterlimit="10" stroke-linejoin="bevel"/>
<path fill-rule="evenodd" clip-rule="evenodd" d="M242.78 46.8026C235.372 37.0939 214.248 22.614 193.645 40.1174C185.225 47.2741 185.08 59.1742 192.517 78.1478C195.382 85.4987 212.773 101.227 225.823 92.1839C243.735 79.7567 250.969 57.5654 242.751 46.8026H242.78Z" fill="white" stroke="#1E4C6B" stroke-width="3" stroke-miterlimit="10" stroke-linejoin="bevel"/>
<path fill-rule="evenodd" clip-rule="evenodd" d="M188.232 36.9636C186.416 41.3958 181.525 40.6335 185.885 48.1992C187.366 50.7682 193.346 54.7204 203.154 55.7085C210.783 56.4707 218.468 54.6075 222.213 54.918C229.646 55.5391 231.35 59.2655 232.552 68.1298C232.971 71.2351 236.157 74.7921 236.8 78.1515C237.331 80.9745 235.794 83.2047 236.8 85.0679C239.007 89.1048 243.786 77.4457 245.015 75.4131C250.94 65.6173 252.141 61.8627 252.812 55.8214C253.594 48.905 253.203 43.6824 248.201 35.7215C246.245 32.5879 245.043 33.0961 244.261 31.9104C243.646 30.9506 243.227 28.0711 240.572 25.8691C229.115 16.4403 222.576 17.7953 216.735 18.247C211.594 18.6422 201.114 21.3523 194.603 26.6596C192.088 28.6922 189.573 33.7454 188.26 36.9354L188.232 36.9636Z" fill="#71ADD2" stroke="#1E4C6B" stroke-width="3" stroke-miterlimit="10" stroke-linejoin="bevel"/>
<path fill-rule="evenodd" clip-rule="evenodd" d="M206.125 121.076C213.091 115.977 220.4 108.718 225.445 103.187C233.586 94.2856 236.997 86.9111 236.997 86.9111L241.125 93.9399C239.978 100.047 238.545 108.804 237.255 114.22L222.951 113.989L224.499 120.931C217.018 122.113 210.683 122.314 206.154 121.047L206.125 121.076Z" fill="white" stroke="#1E4C6B" stroke-width="3" stroke-miterlimit="10" stroke-linejoin="bevel"/>
<path fill-rule="evenodd" clip-rule="evenodd" d="M174.125 191.94C181.196 213.683 225.855 234.965 247.153 233.585C270.911 232.089 275.125 219.061 275.125 219.061C274.842 226.97 273.937 236.375 273.767 242.702C273.767 242.702 264.49 257.743 241.694 254.436C229.645 252.682 209.508 246.354 192.679 235.857C183.826 230.335 176.105 221.448 176.105 221.448C175.285 209.599 174.578 203.041 174.125 191.911V191.94Z" fill="white" stroke="#1E4C6B" stroke-width="3" stroke-miterlimit="10" stroke-linejoin="bevel"/>
<path fill-rule="evenodd" clip-rule="evenodd" d="M189.484 27.5435C205.595 18.2606 231.028 16.8541 247.956 26.6152C264.883 36.3763 263.616 51.6789 247.477 60.9899C238.323 66.2783 224.747 71.7355 212.467 70.8073C203.116 70.104 196.864 64.5062 189.54 60.2867C172.613 50.5256 173.373 36.8264 189.512 27.5435H189.484Z" fill="#D2E6DF" stroke="#1E4C6B" stroke-width="3" stroke-miterlimit="10" stroke-linejoin="bevel"/>
<path fill-rule="evenodd" clip-rule="evenodd" d="M250.71 18.1142C256.367 24.9338 259.465 37.0386 259.095 42.5795C258.811 47.0122 254.718 51.8712 249.318 55.0252C231.382 65.4819 214.101 60.5661 198.326 51.4733C182.551 42.3806 180.021 33.1173 190.225 20.1601C198.525 9.61816 209.695 5.38434 213.419 4.30457C216.659 3.36688 224.277 2.54284 227.005 3.08273C238.346 5.41275 243.832 9.84548 250.71 18.1142Z" fill="#D2E6DF" stroke="#1E4C6B" stroke-width="3" stroke-miterlimit="10" stroke-linejoin="bevel"/>
<path fill-rule="evenodd" clip-rule="evenodd" d="M240.402 6.91113L241.125 8.91113L236.125 7.50688L240.402 6.91113Z" fill="#D2E6DF" stroke="#1E4C6B" stroke-width="3" stroke-miterlimit="10" stroke-linejoin="bevel"/>
<path fill-rule="evenodd" clip-rule="evenodd" d="M201.754 55.9111L189.125 50.3683C189.125 35.9968 195.44 13.9397 230.426 1.91113C234.066 2.51113 237.394 3.76828 240.125 5.91113C205.48 16.8254 201.783 44.1111 201.754 55.9111Z" fill="white" stroke="#1E4C6B" stroke-width="3" stroke-miterlimit="10" stroke-linejoin="bevel"/>
<path fill-rule="evenodd" clip-rule="evenodd" d="M259.615 153.911C258.386 179.717 255.395 216.554 256.289 238.416C256.96 254.677 272.277 279.911 272.277 279.911C272.752 273.281 273.647 263.679 274.206 248.475C274.625 237.559 275.38 223.013 275.827 216.668C276.33 209.124 278.482 194.92 279.125 189.834L259.615 153.911Z" fill="#71ADD2" stroke="#1E4C6B" stroke-width="3" stroke-miterlimit="10" stroke-linejoin="bevel"/>
<path fill-rule="evenodd" clip-rule="evenodd" d="M295.06 276.636C295.263 279.984 295.844 290.644 294.276 296.755C292.708 302.867 289.398 305.657 290.269 310.736C291.14 315.815 296.279 310.569 299.27 309.369C302.261 308.169 307.459 306.578 309.492 301.025C311.524 295.5 314.108 292.653 312.744 286.598C311.408 280.515 309.637 278.31 309.143 273.789C308.649 269.269 304.758 267.315 301.332 268.069C297.906 268.822 294.392 265.948 295.031 276.636H295.06Z" fill="#D2E6DF" stroke="#1E4C6B" stroke-width="3" stroke-miterlimit="10" stroke-linejoin="bevel"/>
<path fill-rule="evenodd" clip-rule="evenodd" d="M291.166 269.997C289.313 272.791 288.871 277.81 288.345 282.03C287.82 286.25 288.29 288.332 289.175 293.721C290.06 299.082 290.696 299.88 292.743 297.97C294.098 296.687 294.319 294.006 293.96 289.758C293.766 287.533 295.509 287.619 297.168 282.173C298.828 276.755 300.21 269.027 297.915 268.343C295.619 267.658 292.798 267.516 291.166 269.997Z" fill="#D2E6DF" stroke="#1E4C6B" stroke-width="3" stroke-miterlimit="10" stroke-linejoin="bevel"/>
<path fill-rule="evenodd" clip-rule="evenodd" d="M256.56 170.038C248.978 159.263 251.943 128.75 259.246 119.757C263.415 114.61 270.493 112.347 276.397 119.163C297.073 142.946 306.167 169.642 316.239 189.07C318.337 193.114 320.995 203.069 319.848 211.496C316.799 233.696 317.022 237.598 311.119 265.397C309.72 271.93 308.937 276.794 300.963 275.776C293.996 274.871 288.456 270.799 288.344 264.04C288.092 249.73 289.211 230.67 290.163 209.092C276.593 196.451 268.703 187.289 256.56 170.01V170.038Z" fill="#71ADD2" stroke="#1E4C6B" stroke-width="3" stroke-miterlimit="10" stroke-linejoin="bevel"/>
<path fill-rule="evenodd" clip-rule="evenodd" d="M124.648 240.516C122.598 242.881 116.447 259.155 116.531 264.913C116.616 270.727 115.576 270.727 116.531 277.197C117.374 282.954 117.374 285.32 118.806 285.833C120.154 286.317 123.187 284.465 124.283 282.641C124.985 281.444 128.467 278.708 130.068 275.173C132.034 270.841 129.956 263.972 134 260.951C144.363 253.256 141.049 249.009 143.746 243.765C145.852 239.66 138.69 232.165 134.506 231.937C128.72 231.595 130.04 234.787 128.439 236.582C126.951 238.264 126.249 238.72 124.676 240.516H124.648Z" fill="#D2E6DF" stroke="#1E4C6B" stroke-width="3" stroke-miterlimit="10" stroke-linejoin="bevel"/>
<path fill-rule="evenodd" clip-rule="evenodd" d="M289.549 238.938L289.125 250.838C293.079 255.673 298.021 257.82 303.133 258.798C305.845 259.314 311.55 257.983 314.063 256.543L316.125 245.323C314.204 246.654 309.742 249.805 305.365 249.343C299.349 248.719 292.994 243.312 289.549 238.911V238.938Z" fill="white" stroke="#1E4C6B" stroke-width="3" stroke-miterlimit="10" stroke-linejoin="bevel"/>
<path fill-rule="evenodd" clip-rule="evenodd" d="M133.125 220.639C138.063 219.036 142.081 218.262 146.182 219.312C154.329 221.441 156.366 227.607 156.645 233.911L163.117 224.87C163.341 218.87 158.598 212.787 152.822 210.851C148.916 209.552 144.648 209.469 137.84 211.432L133.125 220.639Z" fill="white" stroke="#1E4C6B" stroke-width="3" stroke-miterlimit="10" stroke-linejoin="bevel"/>
<path fill-rule="evenodd" clip-rule="evenodd" d="M192.492 427.911C199.743 434.784 209.139 437.138 220.171 437.44C226.124 437.604 230.977 434.921 235.125 430.102L231.231 452.362C228.41 456.305 221.243 459.673 217.293 459.865C207.051 460.303 199.094 457.674 192.125 450.774L192.52 427.911H192.492Z" fill="white" stroke="#1E4C6B" stroke-width="3" stroke-miterlimit="10" stroke-linejoin="bevel"/>
</svg>
