<svg width="858" height="502" viewBox="0 0 858 502" fill="none" xmlns="http://www.w3.org/2000/svg">
<path d="M184.989 285.904C184.495 285.059 184.777 283.967 185.624 283.509C186.471 283.016 187.565 283.298 188.023 284.143C188.517 284.989 188.235 286.08 187.388 286.538C187.106 286.714 186.824 286.785 186.506 286.785C185.906 286.785 185.307 286.468 184.989 285.904ZM200.301 277.063C199.807 276.218 200.089 275.126 200.936 274.668C201.783 274.175 202.877 274.457 203.335 275.302C203.829 276.147 203.547 277.239 202.7 277.697C202.418 277.838 202.136 277.944 201.818 277.944C201.218 277.944 200.619 277.627 200.301 277.063ZM215.613 268.222C215.119 267.377 215.401 266.285 216.248 265.827C217.095 265.334 218.189 265.616 218.647 266.461C219.141 267.306 218.859 268.398 218.012 268.856C217.73 269.032 217.448 269.103 217.13 269.103C216.53 269.103 215.931 268.786 215.613 268.222ZM230.925 259.381C230.431 258.536 230.713 257.444 231.56 256.986C232.407 256.493 233.501 256.775 233.959 257.62C234.453 258.465 234.171 259.557 233.324 260.015C233.042 260.191 232.76 260.262 232.442 260.262C231.842 260.262 231.243 259.945 230.925 259.381ZM246.237 250.54C245.743 249.695 246.025 248.638 246.872 248.145C247.719 247.652 248.813 247.933 249.271 248.779C249.765 249.624 249.483 250.716 248.636 251.174C248.354 251.35 248.072 251.421 247.754 251.421C247.154 251.421 246.555 251.104 246.237 250.54ZM261.549 241.699C261.055 240.854 261.337 239.797 262.184 239.304C263.031 238.811 264.089 239.092 264.583 239.938C265.077 240.783 264.795 241.875 263.948 242.333C263.666 242.509 263.384 242.58 263.066 242.58C262.466 242.58 261.867 242.262 261.549 241.699ZM276.861 232.858C276.367 232.012 276.649 230.956 277.496 230.463C278.343 229.97 279.401 230.251 279.895 231.097C280.389 231.942 280.107 232.999 279.26 233.492C278.978 233.668 278.66 233.738 278.378 233.738C277.778 233.738 277.179 233.421 276.861 232.858ZM292.173 224.017C291.679 223.171 291.961 222.115 292.808 221.622C293.655 221.128 294.713 221.41 295.207 222.256C295.701 223.101 295.419 224.193 294.572 224.651C294.29 224.827 294.008 224.897 293.69 224.897C293.09 224.897 292.491 224.58 292.173 224.017ZM307.485 215.176C306.991 214.33 307.273 213.238 308.12 212.78C308.967 212.287 310.06 212.569 310.519 213.415C311.013 214.26 310.731 215.352 309.884 215.81C309.602 215.986 309.32 216.056 309.002 216.056C308.402 216.056 307.803 215.739 307.485 215.176ZM322.797 206.335C322.303 205.489 322.585 204.397 323.432 203.939C324.279 203.446 325.337 203.728 325.831 204.573C326.325 205.419 326.043 206.511 325.196 206.969C324.914 207.11 324.632 207.215 324.314 207.215C323.714 207.215 323.114 206.898 322.797 206.335ZM338.109 197.494C337.615 196.648 337.897 195.556 338.744 195.098C339.591 194.605 340.684 194.887 341.143 195.732C341.637 196.578 341.355 197.67 340.508 198.128C340.226 198.304 339.944 198.374 339.626 198.374C339.026 198.374 338.426 198.057 338.109 197.494ZM353.421 188.652C352.927 187.807 353.209 186.75 354.056 186.257C354.903 185.764 355.996 186.046 356.455 186.891C356.949 187.737 356.667 188.829 355.82 189.286C355.538 189.463 355.256 189.533 354.938 189.533C354.338 189.533 353.738 189.216 353.421 188.652ZM368.733 179.811C368.239 178.966 368.521 177.909 369.368 177.416C370.215 176.923 371.308 177.205 371.767 178.05C372.261 178.896 371.979 179.987 371.132 180.445C370.85 180.622 370.568 180.692 370.25 180.692C369.65 180.692 369.05 180.375 368.733 179.811ZM384.045 170.97C383.551 170.125 383.833 169.068 384.68 168.575C385.527 168.082 386.585 168.364 387.079 169.209C387.573 170.054 387.291 171.146 386.444 171.604C386.162 171.78 385.88 171.851 385.562 171.851C384.962 171.851 384.362 171.534 384.045 170.97ZM399.357 162.129C398.863 161.284 399.145 160.227 399.992 159.734C400.839 159.241 401.932 159.523 402.391 160.368C402.885 161.213 402.603 162.305 401.756 162.763C401.474 162.904 401.191 163.01 400.874 163.01C400.274 163.01 399.674 162.693 399.357 162.129ZM414.669 153.288C414.175 152.443 414.457 151.386 415.304 150.893C416.151 150.4 417.209 150.682 417.703 151.527C418.197 152.372 417.915 153.464 417.068 153.922C416.786 154.098 416.468 154.169 416.186 154.169C415.586 154.169 414.986 153.852 414.669 153.288ZM429.981 144.447C429.487 143.602 429.769 142.545 430.616 142.052C431.463 141.559 432.521 141.841 433.015 142.686C433.509 143.531 433.227 144.623 432.38 145.081C432.098 145.257 431.815 145.328 431.498 145.328C430.898 145.328 430.298 145.011 429.981 144.447ZM445.293 135.606C444.799 134.761 445.081 133.704 445.928 133.211C446.775 132.718 447.833 132.999 448.327 133.845C448.821 134.69 448.539 135.782 447.692 136.24C447.41 136.416 447.092 136.487 446.81 136.487C446.21 136.487 445.61 136.17 445.293 135.606ZM460.605 126.765C460.111 125.92 460.393 124.863 461.24 124.37C462.087 123.877 463.18 124.158 463.639 125.004C464.133 125.849 463.851 126.941 463.004 127.399C462.722 127.575 462.439 127.645 462.122 127.645C461.522 127.645 460.922 127.328 460.605 126.765ZM475.917 117.924C475.423 117.078 475.705 115.987 476.552 115.529C477.399 115.035 478.492 115.317 478.951 116.163C479.445 117.008 479.163 118.065 478.316 118.558C478.034 118.734 477.751 118.804 477.434 118.804C476.834 118.804 476.234 118.487 475.917 117.924ZM491.229 109.083C490.735 108.237 491.017 107.145 491.864 106.688C492.711 106.194 493.804 106.476 494.263 107.322C494.757 108.167 494.475 109.224 493.628 109.717C493.346 109.893 493.063 109.963 492.746 109.963C492.146 109.963 491.546 109.646 491.229 109.083ZM506.541 100.242C506.047 99.3963 506.329 98.3044 507.176 97.8465C508.022 97.3533 509.081 97.6351 509.575 98.4805C510.069 99.3258 509.787 100.383 508.94 100.876C508.658 101.052 508.375 101.122 508.058 101.122C507.458 101.122 506.858 100.805 506.541 100.242ZM521.853 91.4006C521.359 90.5552 521.641 89.4985 522.488 89.0054C523.335 88.5122 524.428 88.794 524.887 89.6394C525.381 90.4848 525.099 91.5767 524.252 92.0346C523.97 92.2107 523.687 92.2812 523.37 92.2812C522.77 92.2812 522.17 91.9641 521.853 91.4006ZM537.165 82.5947C536.671 81.7493 536.953 80.6574 537.8 80.1995C538.646 79.7064 539.705 79.9882 540.199 80.8335C540.693 81.6789 540.411 82.7356 539.564 83.2287C539.282 83.4048 538.964 83.4753 538.682 83.4753C538.082 83.4753 537.482 83.1583 537.165 82.5947ZM552.477 73.7536C551.983 72.9083 552.265 71.8163 553.112 71.3584C553.958 70.8653 555.017 71.1471 555.511 71.9925C556.005 72.8378 555.723 73.8945 554.876 74.3876C554.594 74.5285 554.311 74.6342 553.994 74.6342C553.394 74.6342 552.794 74.3172 552.477 73.7536ZM567.789 64.9125C567.295 64.0672 567.577 62.9753 568.424 62.5173C569.27 62.0242 570.329 62.306 570.823 63.1514C571.317 63.9967 571.034 65.0534 570.188 65.5466C569.905 65.6875 569.588 65.7931 569.306 65.7931C568.706 65.7931 568.106 65.4761 567.789 64.9125ZM583.101 56.0715C582.607 55.2261 582.889 54.1342 583.736 53.6763C584.582 53.1831 585.641 53.4649 586.135 54.3103C586.629 55.1557 586.346 56.2476 585.5 56.7055C585.217 56.8816 584.935 56.952 584.618 56.952C584.018 56.952 583.418 56.635 583.101 56.0715ZM598.413 47.2304C597.919 46.385 598.201 45.2931 599.048 44.8352C599.894 44.3421 600.988 44.6239 601.447 45.4692C601.941 46.3146 601.658 47.4065 600.812 47.8644C600.529 48.0405 600.247 48.111 599.93 48.111C599.33 48.111 598.73 47.794 598.413 47.2304ZM613.725 38.3893C613.231 37.5439 613.513 36.4872 614.36 35.9941C615.206 35.501 616.3 35.7828 616.759 36.6281C617.253 37.4735 616.97 38.5654 616.124 39.0233C615.841 39.1994 615.559 39.2699 615.242 39.2699C614.642 39.2699 614.042 38.9529 613.725 38.3893ZM629.037 29.5482C628.543 28.7029 628.825 27.6462 629.672 27.153C630.518 26.6599 631.612 26.9417 632.071 27.7871C632.565 28.6324 632.282 29.6891 631.436 30.1822C631.153 30.3231 630.871 30.4288 630.554 30.4288C629.954 30.4288 629.354 30.1118 629.037 29.5482ZM644.349 20.7071C643.855 19.8618 644.137 18.8051 644.984 18.312C645.83 17.8188 646.924 18.1006 647.383 18.946C647.877 19.7913 647.594 20.848 646.748 21.3412C646.465 21.4821 646.183 21.5877 645.866 21.5877C645.266 21.5877 644.666 21.2707 644.349 20.7071ZM659.66 11.9013C659.167 11.0559 659.449 9.964 660.296 9.50609C661.142 9.01297 662.236 9.29475 662.695 10.1401C663.189 10.9855 662.906 12.0774 662.06 12.5353C661.777 12.6762 661.495 12.7819 661.178 12.7819C660.578 12.7819 659.978 12.4649 659.66 11.9013ZM674.973 3.06021C674.479 2.21484 674.761 1.15814 675.608 0.665014C676.454 0.171886 677.513 0.453673 678.007 1.29904C678.501 2.1444 678.218 3.23632 677.372 3.69423C677.089 3.87035 676.807 3.94079 676.49 3.94079C675.89 3.94079 675.29 3.62378 674.973 3.06021Z" fill="#005EA7"/>
<path d="M2.76562 406.721L523.443 106.617L688.806 201.932L168.128 502L2.76562 406.721Z" fill="#D2E6DF"/>
<path d="M841.325 81.9255C840.479 81.4323 840.196 80.3756 840.69 79.5303C841.184 78.6849 842.243 78.4031 843.089 78.8963C843.936 79.3894 844.218 80.4461 843.725 81.2915C843.407 81.855 842.807 82.172 842.207 82.172C841.89 82.172 841.608 82.1016 841.325 81.9255ZM826.296 73.2605C825.449 72.7674 825.167 71.7107 825.661 70.8653C826.154 70.02 827.213 69.7382 828.06 70.2313C828.906 70.7244 829.189 71.7811 828.695 72.6265C828.377 73.1901 827.777 73.5071 827.178 73.5071C826.86 73.5071 826.578 73.4366 826.296 73.2605ZM811.266 64.5955C810.419 64.1024 810.137 63.0457 810.631 62.2004C811.125 61.355 812.183 61.0732 813.03 61.5663C813.877 62.0595 814.159 63.1162 813.665 63.9615C813.347 64.5251 812.748 64.8421 812.148 64.8421C811.83 64.8421 811.548 64.7717 811.266 64.5955ZM796.236 55.9306C795.389 55.4375 795.107 54.3808 795.601 53.5354C796.095 52.69 797.153 52.4082 798 52.9014C798.847 53.3945 799.129 54.4512 798.635 55.2966C798.318 55.8601 797.718 56.1771 797.118 56.1771C796.801 56.1771 796.518 56.1067 796.236 55.9306ZM781.206 47.2656C780.36 46.7725 780.077 45.7158 780.571 44.8704C781.065 44.0251 782.124 43.7433 782.97 44.2364C783.817 44.7295 784.099 45.7862 783.606 46.6316C783.288 47.1952 782.688 47.5122 782.088 47.5122C781.771 47.5122 781.489 47.4417 781.206 47.2656ZM766.177 38.6007C765.33 38.1075 765.048 37.0508 765.542 36.2055C766.036 35.3601 767.094 35.0783 767.941 35.5714C768.788 36.0646 769.07 37.1213 768.576 37.9666C768.258 38.5302 767.659 38.8472 767.059 38.8472C766.777 38.8472 766.459 38.7768 766.177 38.6007ZM751.147 29.9357C750.3 29.4426 750.018 28.3859 750.512 27.5405C751.006 26.6951 752.064 26.4134 752.911 26.9065C753.758 27.3996 754.04 28.4563 753.546 29.3017C753.229 29.8653 752.629 30.1823 752.029 30.1823C751.711 30.1823 751.429 30.1118 751.147 29.9357ZM736.117 21.2707C735.271 20.7776 734.988 19.7209 735.482 18.8755C735.976 18.0302 737.035 17.7484 737.881 18.2415C738.728 18.7346 739.01 19.7914 738.516 20.6367C738.199 21.2003 737.599 21.5173 736.999 21.5173C736.717 21.5173 736.4 21.4469 736.117 21.2707ZM721.088 12.6058C720.241 12.1126 719.959 11.0559 720.452 10.2106C720.946 9.36522 722.005 9.08343 722.852 9.57656C723.698 10.0697 723.981 11.1264 723.487 11.9718C723.169 12.5353 722.569 12.8523 721.97 12.8523C721.687 12.8523 721.37 12.7819 721.088 12.6058ZM706.058 3.94081C705.211 3.44768 704.929 2.39098 705.423 1.54562C705.917 0.700255 706.975 0.418468 707.822 0.911595C708.669 1.40472 708.951 2.46143 708.457 3.30679C708.139 3.87036 707.54 4.18737 706.94 4.18737C706.658 4.18737 706.34 4.11693 706.058 3.94081Z" fill="#005EA7"/>
<path d="M171.23 309.609L691.908 9.50586L857.235 104.82L336.557 404.924L171.23 309.609Z" fill="#D2E6DF"/>
<path d="M719.959 68.893V40.0098L616.762 99.5021L641.6 114.085L719.959 68.893Z" fill="white" stroke="#005EA7" stroke-width="3" stroke-linejoin="bevel"/>
<path d="M629.321 139.974L668.977 136.768L778.454 73.824V102.742L673.952 162.974C655.747 173.471 639.8 175.197 626.604 167.448L588.289 144.87C575.482 137.332 577.987 124.581 577.987 102.249L629.321 139.974Z" fill="white" stroke="#005EA7" stroke-width="3" stroke-linejoin="bevel"/>
<path d="M2.76418 392.702C2.65833 392.702 2.55249 392.702 2.41137 392.667C2.30552 392.667 2.19968 392.596 2.09384 392.561C1.98799 392.526 1.88215 392.455 1.77631 392.385C1.67046 392.314 1.5999 392.244 1.49406 392.173C1.17653 391.856 0.964844 391.399 0.964844 390.941C0.964844 390.483 0.964844 390.694 0.964844 390.588C0.964844 390.483 1.03541 390.377 1.07069 390.271C1.10597 390.166 1.17653 390.06 1.24709 389.954C1.31765 389.849 1.38822 389.778 1.45878 389.673C1.77631 389.356 2.23496 389.144 2.69362 389.144C3.15227 389.144 3.61092 389.32 3.92845 389.673C3.99902 389.743 4.06958 389.849 4.14014 389.954C4.2107 390.06 4.24598 390.166 4.31654 390.271C4.35183 390.377 4.38711 390.483 4.42239 390.588C4.42239 390.694 4.42239 390.835 4.42239 390.941C4.42239 391.399 4.24598 391.856 3.89317 392.173C3.82261 392.244 3.71677 392.314 3.61092 392.385C3.50508 392.455 3.39924 392.49 3.29339 392.561C3.18755 392.596 3.08171 392.631 2.97586 392.667C2.87002 392.667 2.76418 392.702 2.62305 392.702H2.76418Z" fill="#005EA7"/>
<path d="M16.559 383.015C16.065 382.17 16.3473 381.078 17.194 380.62C18.0408 380.127 19.1345 380.409 19.5931 381.254C20.0871 382.1 19.8048 383.191 18.9581 383.649C18.6758 383.826 18.3936 383.896 18.0761 383.896C17.4763 383.896 16.8765 383.579 16.559 383.015ZM31.8709 374.174C31.377 373.329 31.6593 372.237 32.506 371.779C33.3528 371.286 34.4465 371.568 34.9051 372.413C35.3991 373.258 35.1168 374.35 34.2701 374.808C33.9878 374.949 33.7056 375.055 33.388 375.055C32.7883 375.055 32.1885 374.738 31.8709 374.174ZM47.1829 365.333C46.689 364.488 46.9712 363.396 47.818 362.938C48.6647 362.445 49.7584 362.727 50.2171 363.572C50.711 364.417 50.4288 365.509 49.582 365.967C49.2998 366.143 49.0175 366.214 48.7 366.214C48.1002 366.214 47.5005 365.897 47.1829 365.333ZM62.4949 356.492C62.001 355.647 62.2832 354.555 63.13 354.097C63.9767 353.604 65.0704 353.886 65.5291 354.731C66.023 355.576 65.7408 356.668 64.894 357.126C64.6118 357.302 64.3295 357.373 64.012 357.373C63.4122 357.373 62.8124 357.056 62.4949 356.492ZM77.8069 347.651C77.3129 346.806 77.5952 345.749 78.4419 345.256C79.2887 344.763 80.3824 345.045 80.8411 345.89C81.335 346.735 81.0527 347.827 80.206 348.285C79.9237 348.461 79.6415 348.532 79.324 348.532C78.7242 348.532 78.1244 348.215 77.8069 347.651ZM93.1189 338.81C92.6249 337.965 92.9072 336.908 93.7539 336.415C94.6007 335.922 95.6591 336.203 96.153 337.049C96.647 337.894 96.3647 338.986 95.518 339.444C95.2357 339.62 94.9535 339.691 94.6359 339.691C94.0362 339.691 93.4364 339.374 93.1189 338.81ZM108.431 329.969C107.937 329.124 108.219 328.067 109.066 327.574C109.913 327.081 110.971 327.362 111.465 328.208C111.959 329.053 111.677 330.11 110.83 330.603C110.548 330.779 110.23 330.849 109.948 330.849C109.348 330.849 108.748 330.532 108.431 329.969ZM123.743 321.128C123.249 320.282 123.531 319.226 124.378 318.733C125.225 318.239 126.283 318.521 126.777 319.367C127.271 320.212 126.989 321.304 126.142 321.762C125.86 321.938 125.577 322.008 125.26 322.008C124.66 322.008 124.06 321.691 123.743 321.128ZM139.055 312.287C138.561 311.441 138.843 310.349 139.69 309.892C140.537 309.398 141.63 309.68 142.089 310.526C142.583 311.371 142.301 312.463 141.454 312.921C141.172 313.097 140.889 313.167 140.572 313.167C139.972 313.167 139.372 312.85 139.055 312.287ZM154.367 303.446C153.873 302.6 154.155 301.508 155.002 301.05C155.849 300.557 156.907 300.839 157.401 301.684C157.895 302.53 157.613 303.622 156.766 304.08C156.484 304.221 156.201 304.326 155.884 304.326C155.284 304.326 154.684 304.009 154.367 303.446ZM169.679 294.605C169.185 293.759 169.467 292.667 170.314 292.209C171.161 291.716 172.254 291.998 172.713 292.843C173.207 293.689 172.925 294.781 172.078 295.239C171.796 295.415 171.513 295.485 171.196 295.485C170.596 295.485 169.996 295.168 169.679 294.605ZM184.991 285.763C184.497 284.918 184.779 283.861 185.626 283.368C186.473 282.875 187.566 283.157 188.025 284.002C188.519 284.848 188.237 285.94 187.39 286.397C187.108 286.574 186.825 286.644 186.508 286.644C185.908 286.644 185.308 286.327 184.991 285.763ZM200.303 276.922C199.809 276.077 200.091 275.02 200.938 274.527C201.785 274.034 202.878 274.316 203.337 275.161C203.831 276.007 203.549 277.099 202.702 277.556C202.42 277.733 202.137 277.803 201.82 277.803C201.22 277.803 200.62 277.486 200.303 276.922ZM215.615 268.081C215.121 267.236 215.403 266.179 216.25 265.686C217.096 265.193 218.155 265.475 218.649 266.32C219.143 267.165 218.861 268.257 218.014 268.715C217.732 268.891 217.449 268.962 217.132 268.962C216.532 268.962 215.932 268.645 215.615 268.081ZM230.927 259.24C230.433 258.395 230.715 257.338 231.562 256.845C232.408 256.352 233.502 256.634 233.961 257.479C234.455 258.324 234.173 259.416 233.326 259.874C233.044 260.015 232.761 260.121 232.444 260.121C231.844 260.121 231.244 259.804 230.927 259.24ZM246.239 250.399C245.745 249.554 246.027 248.497 246.874 248.004C247.72 247.511 248.779 247.793 249.273 248.638C249.767 249.483 249.485 250.575 248.638 251.033C248.356 251.209 248.038 251.28 247.756 251.28C247.156 251.28 246.556 250.963 246.239 250.399ZM261.551 241.558C261.057 240.713 261.339 239.656 262.186 239.163C263.032 238.67 264.091 238.952 264.585 239.797C265.079 240.642 264.796 241.734 263.95 242.192C263.667 242.368 263.385 242.439 263.068 242.439C262.468 242.439 261.868 242.122 261.551 241.558ZM276.863 232.717C276.369 231.872 276.651 230.815 277.498 230.322C278.344 229.829 279.403 230.11 279.897 230.956C280.391 231.801 280.108 232.893 279.262 233.351C278.979 233.527 278.662 233.598 278.38 233.598C277.78 233.598 277.18 233.281 276.863 232.717ZM292.175 223.876C291.681 223.031 291.963 221.974 292.81 221.481C293.656 220.988 294.75 221.269 295.209 222.115C295.703 222.96 295.42 224.052 294.574 224.51C294.291 224.686 294.009 224.756 293.692 224.756C293.092 224.756 292.492 224.439 292.175 223.876ZM307.487 215.035C306.993 214.189 307.275 213.098 308.122 212.64C308.968 212.147 310.062 212.428 310.521 213.274C311.015 214.119 310.732 215.176 309.886 215.669C309.603 215.845 309.321 215.915 309.004 215.915C308.404 215.915 307.804 215.598 307.487 215.035ZM322.799 206.194C322.305 205.348 322.587 204.256 323.434 203.799C324.28 203.305 325.374 203.587 325.833 204.433C326.327 205.278 326.044 206.335 325.198 206.828C324.915 207.004 324.633 207.074 324.316 207.074C323.716 207.074 323.116 206.757 322.799 206.194ZM338.111 197.353C337.617 196.507 337.899 195.415 338.746 194.957C339.592 194.464 340.651 194.746 341.145 195.591C341.639 196.437 341.356 197.494 340.51 197.987C340.227 198.163 339.945 198.233 339.628 198.233C339.028 198.233 338.428 197.916 338.111 197.353ZM353.423 188.512C352.929 187.666 353.211 186.61 354.058 186.116C354.904 185.623 355.998 185.905 356.457 186.75C356.951 187.596 356.668 188.688 355.822 189.146C355.539 189.322 355.257 189.392 354.94 189.392C354.34 189.392 353.74 189.075 353.423 188.512ZM368.734 179.706C368.241 178.86 368.523 177.768 369.37 177.311C370.216 176.817 371.275 177.099 371.769 177.945C372.263 178.79 371.98 179.847 371.134 180.34C370.851 180.516 370.534 180.586 370.252 180.586C369.652 180.586 369.052 180.269 368.734 179.706ZM384.046 170.865C383.553 170.019 383.835 168.927 384.682 168.469C385.528 167.976 386.587 168.258 387.081 169.103C387.575 169.949 387.292 171.006 386.446 171.499C386.163 171.64 385.881 171.745 385.564 171.745C384.964 171.745 384.364 171.428 384.046 170.865ZM399.358 162.024C398.865 161.178 399.147 160.086 399.994 159.628C400.84 159.135 401.899 159.417 402.393 160.262C402.887 161.108 402.604 162.164 401.758 162.658C401.475 162.798 401.158 162.904 400.876 162.904C400.276 162.904 399.676 162.587 399.358 162.024ZM414.67 153.182C414.176 152.337 414.459 151.245 415.306 150.787C416.152 150.294 417.211 150.576 417.705 151.421C418.199 152.267 417.916 153.359 417.07 153.817C416.787 153.993 416.505 154.063 416.188 154.063C415.588 154.063 414.988 153.746 414.67 153.182ZM429.982 144.341C429.488 143.496 429.771 142.404 430.617 141.946C431.464 141.453 432.558 141.735 433.017 142.58C433.511 143.426 433.228 144.518 432.382 144.975C432.099 145.152 431.817 145.222 431.499 145.222C430.9 145.222 430.3 144.905 429.982 144.341ZM445.294 135.5C444.8 134.655 445.083 133.598 445.929 133.105C446.776 132.612 447.87 132.894 448.329 133.739C448.823 134.585 448.54 135.676 447.693 136.134C447.411 136.31 447.129 136.381 446.811 136.381C446.212 136.381 445.612 136.064 445.294 135.5ZM460.606 126.659C460.112 125.814 460.395 124.757 461.241 124.264C462.088 123.771 463.182 124.053 463.641 124.898C464.134 125.743 463.852 126.8 463.005 127.293C462.723 127.434 462.441 127.54 462.123 127.54C461.524 127.54 460.924 127.223 460.606 126.659ZM475.918 117.818C475.424 116.973 475.707 115.916 476.553 115.423C477.4 114.93 478.494 115.212 478.953 116.057C479.446 116.902 479.164 117.959 478.317 118.452C478.035 118.593 477.753 118.699 477.435 118.699C476.836 118.699 476.236 118.382 475.918 117.818ZM491.23 109.012C490.736 108.167 491.019 107.075 491.865 106.617C492.712 106.124 493.806 106.406 494.264 107.251C494.758 108.097 494.476 109.188 493.629 109.646C493.347 109.787 493.065 109.893 492.747 109.893C492.148 109.893 491.548 109.576 491.23 109.012ZM506.542 100.171C506.048 99.3259 506.331 98.2692 507.177 97.776C508.024 97.2829 509.083 97.5647 509.576 98.4101C510.07 99.2554 509.788 100.347 508.941 100.805C508.659 100.981 508.377 101.052 508.059 101.052C507.46 101.052 506.86 100.735 506.542 100.171Z" fill="#005EA7"/>
<path d="M523.442 92.5982C522.983 92.5982 522.524 92.4221 522.207 92.0698C521.889 91.7528 521.678 91.2949 521.678 90.837C521.678 90.3791 521.678 90.6257 521.678 90.4848C521.678 90.3791 521.748 90.2735 521.784 90.1678C521.819 90.0621 521.889 89.9564 521.96 89.8508C522.031 89.7451 522.101 89.6747 522.172 89.569C522.242 89.4985 522.348 89.4281 522.454 89.3576C522.56 89.2872 522.666 89.252 522.771 89.1815C522.877 89.1463 522.983 89.1111 523.089 89.0759C523.653 88.9702 524.289 89.1463 524.677 89.569C524.994 89.886 525.206 90.3439 525.206 90.8018C525.206 91.2597 525.029 91.7176 524.677 92.0346C524.359 92.3516 523.9 92.563 523.442 92.563V92.5982Z" fill="#005EA7"/>
<path d="M672.893 179.036C672.046 178.543 671.764 177.487 672.258 176.641C672.752 175.796 673.81 175.514 674.657 176.007C675.504 176.5 675.786 177.557 675.292 178.402C674.974 178.966 674.375 179.283 673.775 179.283C673.457 179.283 673.175 179.213 672.893 179.036ZM657.863 170.372C657.016 169.878 656.734 168.822 657.228 167.976C657.722 167.131 658.78 166.849 659.627 167.342C660.474 167.835 660.756 168.892 660.262 169.737C659.945 170.301 659.345 170.618 658.745 170.618C658.428 170.618 658.145 170.548 657.863 170.372ZM642.833 161.707C641.987 161.213 641.704 160.157 642.198 159.311C642.692 158.466 643.751 158.184 644.597 158.677C645.444 159.17 645.726 160.227 645.232 161.073C644.915 161.636 644.315 161.953 643.715 161.953C643.398 161.953 643.116 161.883 642.833 161.707ZM627.804 153.042C626.957 152.548 626.675 151.492 627.169 150.646C627.662 149.801 628.721 149.519 629.568 150.012C630.414 150.506 630.697 151.562 630.203 152.408C629.885 152.971 629.285 153.288 628.686 153.288C628.368 153.288 628.086 153.218 627.804 153.042ZM612.774 144.377C611.927 143.884 611.645 142.827 612.139 141.981C612.633 141.136 613.691 140.854 614.538 141.347C615.385 141.841 615.667 142.897 615.173 143.743C614.855 144.306 614.256 144.623 613.656 144.623C613.338 144.623 613.056 144.553 612.774 144.377ZM597.744 135.712C596.897 135.219 596.615 134.162 597.109 133.316C597.603 132.471 598.661 132.189 599.508 132.682C600.355 133.176 600.637 134.232 600.143 135.078C599.826 135.641 599.226 135.958 598.626 135.958C598.344 135.958 598.026 135.888 597.744 135.712ZM582.714 127.047C581.868 126.554 581.585 125.497 582.079 124.652C582.573 123.806 583.632 123.524 584.478 124.017C585.325 124.511 585.607 125.567 585.113 126.413C584.796 126.976 584.196 127.293 583.596 127.293C583.279 127.293 582.997 127.223 582.714 127.047ZM567.685 118.382C566.838 117.889 566.556 116.832 567.05 115.987C567.544 115.141 568.602 114.859 569.449 115.353C570.295 115.846 570.578 116.902 570.084 117.748C569.766 118.311 569.166 118.628 568.567 118.628C568.284 118.628 567.967 118.558 567.685 118.382ZM552.655 109.717C551.808 109.224 551.526 108.167 552.02 107.322C552.514 106.476 553.572 106.194 554.419 106.688C555.266 107.181 555.548 108.237 555.054 109.083C554.737 109.646 554.137 109.963 553.537 109.963C553.255 109.963 552.937 109.893 552.655 109.717ZM537.625 101.052C536.778 100.559 536.496 99.502 536.99 98.6566C537.484 97.8113 538.542 97.5295 539.389 98.0226C540.236 98.5157 540.518 99.5724 540.024 100.418C539.707 100.981 539.107 101.298 538.507 101.298C538.225 101.298 537.907 101.228 537.625 101.052Z" fill="#005EA7"/>
<path d="M688.804 187.913C688.698 187.913 688.557 187.913 688.451 187.913C688.345 187.913 688.24 187.842 688.134 187.807C688.028 187.772 687.922 187.701 687.816 187.631C687.71 187.561 687.64 187.49 687.534 187.42C687.428 187.349 687.393 187.244 687.322 187.138C687.252 187.032 687.216 186.927 687.146 186.821C687.111 186.715 687.075 186.61 687.04 186.504C687.04 186.398 687.04 186.293 687.04 186.152C687.04 186.011 687.04 185.94 687.04 185.799C687.04 185.694 687.111 185.588 687.146 185.482C687.181 185.377 687.252 185.271 687.322 185.165C687.393 185.06 687.463 184.989 687.534 184.884C687.605 184.813 687.71 184.743 687.816 184.672C687.922 184.602 688.028 184.567 688.134 184.496C688.24 184.461 688.345 184.426 688.451 184.39C688.663 184.355 688.91 184.355 689.122 184.39C689.227 184.39 689.333 184.461 689.439 184.496C689.545 184.531 689.651 184.602 689.757 184.672C689.863 184.743 689.933 184.813 690.039 184.884C690.109 184.954 690.18 185.06 690.251 185.165C690.321 185.271 690.356 185.377 690.427 185.482C690.462 185.588 690.498 185.694 690.533 185.799C690.533 185.905 690.568 186.011 690.568 186.152C690.568 186.293 690.568 186.398 690.533 186.504C690.533 186.61 690.462 186.715 690.427 186.821C690.392 186.927 690.321 187.032 690.251 187.138C690.18 187.244 690.109 187.314 690.039 187.42C689.968 187.525 689.863 187.561 689.757 187.631C689.651 187.701 689.545 187.737 689.439 187.807C689.333 187.842 689.227 187.878 689.122 187.913C689.016 187.913 688.91 187.913 688.769 187.913H688.804Z" fill="#005EA7"/>
<path d="M181.886 478.33C181.392 477.485 181.674 476.393 182.521 475.935C183.368 475.442 184.426 475.723 184.92 476.569C185.414 477.414 185.132 478.506 184.285 478.964C184.003 479.14 183.685 479.211 183.403 479.211C182.803 479.211 182.204 478.893 181.886 478.33ZM197.198 469.489C196.704 468.643 196.986 467.552 197.833 467.094C198.68 466.601 199.738 466.882 200.232 467.728C200.726 468.573 200.444 469.63 199.597 470.123C199.315 470.299 199.033 470.369 198.715 470.369C198.115 470.369 197.516 470.052 197.198 469.489ZM212.51 460.648C212.016 459.802 212.298 458.71 213.145 458.253C213.992 457.759 215.086 458.041 215.544 458.887C216.038 459.732 215.756 460.824 214.909 461.282C214.627 461.458 214.345 461.528 214.027 461.528C213.427 461.528 212.828 461.211 212.51 460.648ZM227.822 451.807C227.328 450.961 227.61 449.905 228.457 449.411C229.304 448.918 230.398 449.2 230.856 450.046C231.35 450.891 231.068 451.948 230.221 452.441C229.939 452.617 229.657 452.687 229.339 452.687C228.739 452.687 228.14 452.37 227.822 451.807ZM243.134 443.001C242.64 442.155 242.922 441.064 243.769 440.606C244.616 440.112 245.71 440.394 246.168 441.24C246.662 442.085 246.38 443.142 245.533 443.635C245.251 443.811 244.969 443.881 244.651 443.881C244.051 443.881 243.452 443.564 243.134 443.001ZM258.446 434.16C257.952 433.314 258.234 432.222 259.081 431.765C259.928 431.271 261.022 431.553 261.48 432.399C261.974 433.244 261.692 434.336 260.845 434.794C260.563 434.97 260.281 435.04 259.963 435.04C259.363 435.04 258.764 434.723 258.446 434.16ZM273.758 425.319C273.264 424.473 273.546 423.381 274.393 422.923C275.24 422.43 276.334 422.712 276.792 423.557C277.286 424.403 277.004 425.46 276.157 425.953C275.875 426.094 275.593 426.199 275.275 426.199C274.675 426.199 274.076 425.882 273.758 425.319ZM289.07 416.478C288.576 415.632 288.858 414.54 289.705 414.082C290.552 413.589 291.61 413.871 292.104 414.716C292.598 415.562 292.316 416.654 291.469 417.112C291.187 417.288 290.905 417.358 290.587 417.358C289.987 417.358 289.388 417.041 289.07 416.478ZM304.382 407.637C303.888 406.791 304.17 405.699 305.017 405.241C305.864 404.748 306.922 405.03 307.416 405.875C307.91 406.721 307.628 407.813 306.781 408.271C306.499 408.447 306.181 408.517 305.899 408.517C305.299 408.517 304.699 408.2 304.382 407.637ZM319.694 398.795C319.2 397.95 319.482 396.893 320.329 396.4C321.176 395.907 322.234 396.189 322.728 397.034C323.222 397.88 322.94 398.972 322.093 399.429C321.811 399.606 321.529 399.676 321.211 399.676C320.611 399.676 320.011 399.359 319.694 398.795ZM335.006 389.954C334.512 389.109 334.794 388.017 335.641 387.559C336.488 387.066 337.581 387.348 338.04 388.193C338.534 389.039 338.252 390.13 337.405 390.588C337.123 390.764 336.841 390.835 336.523 390.835C335.923 390.835 335.323 390.518 335.006 389.954ZM350.318 381.149C349.824 380.303 350.106 379.211 350.953 378.753C351.8 378.26 352.858 378.542 353.352 379.387C353.846 380.233 353.564 381.325 352.717 381.783C352.435 381.923 352.153 382.029 351.835 382.029C351.235 382.029 350.635 381.712 350.318 381.149ZM365.63 372.307C365.136 371.462 365.418 370.37 366.265 369.912C367.112 369.419 368.205 369.701 368.664 370.546C369.158 371.392 368.876 372.484 368.029 372.941C367.747 373.118 367.465 373.188 367.147 373.188C366.547 373.188 365.947 372.871 365.63 372.307ZM380.942 363.466C380.448 362.621 380.73 361.529 381.577 361.071C382.424 360.578 383.517 360.86 383.976 361.705C384.47 362.551 384.188 363.642 383.341 364.1C383.059 364.276 382.776 364.347 382.459 364.347C381.859 364.347 381.259 364.03 380.942 363.466ZM396.254 354.625C395.76 353.78 396.042 352.723 396.889 352.23C397.736 351.737 398.829 352.019 399.288 352.864C399.782 353.709 399.5 354.801 398.653 355.259C398.371 355.435 398.088 355.506 397.771 355.506C397.171 355.506 396.571 355.189 396.254 354.625ZM411.566 345.784C411.072 344.939 411.354 343.847 412.201 343.389C413.048 342.896 414.106 343.178 414.6 344.023C415.094 344.868 414.812 345.96 413.965 346.418C413.683 346.594 413.4 346.665 413.083 346.665C412.483 346.665 411.883 346.348 411.566 345.784ZM426.878 336.943C426.384 336.098 426.666 335.006 427.513 334.548C428.36 334.055 429.453 334.337 429.912 335.182C430.406 336.027 430.124 337.084 429.277 337.577C428.995 337.753 428.712 337.824 428.395 337.824C427.795 337.824 427.195 337.507 426.878 336.943ZM442.19 328.102C441.696 327.257 441.978 326.165 442.825 325.707C443.672 325.214 444.73 325.495 445.224 326.341C445.718 327.186 445.436 328.278 444.589 328.736C444.307 328.912 444.024 328.983 443.707 328.983C443.107 328.983 442.507 328.666 442.19 328.102ZM457.502 319.261C457.008 318.416 457.29 317.359 458.137 316.866C458.984 316.373 460.042 316.654 460.536 317.5C461.03 318.345 460.748 319.402 459.901 319.895C459.619 320.071 459.336 320.142 459.019 320.142C458.419 320.142 457.819 319.825 457.502 319.261ZM472.814 310.42C472.32 309.574 472.602 308.483 473.449 308.025C474.296 307.532 475.354 307.813 475.848 308.659C476.342 309.504 476.06 310.596 475.213 311.054C474.931 311.23 474.648 311.3 474.331 311.3C473.731 311.3 473.131 310.983 472.814 310.42ZM488.126 301.579C487.632 300.733 487.914 299.641 488.761 299.184C489.608 298.69 490.701 298.972 491.16 299.818C491.654 300.663 491.372 301.755 490.525 302.213C490.243 302.354 489.96 302.459 489.643 302.459C489.043 302.459 488.443 302.142 488.126 301.579ZM503.438 292.738C502.944 291.892 503.226 290.836 504.073 290.343C504.919 289.849 506.013 290.131 506.472 290.977C506.966 291.822 506.684 292.914 505.837 293.372C505.555 293.548 505.272 293.618 504.955 293.618C504.355 293.618 503.755 293.301 503.438 292.738ZM518.75 283.897C518.256 283.051 518.538 281.995 519.385 281.501C520.231 281.008 521.325 281.29 521.784 282.135C522.278 282.981 521.996 284.073 521.149 284.531C520.867 284.707 520.584 284.777 520.267 284.777C519.667 284.777 519.067 284.46 518.75 283.897ZM534.062 275.056C533.568 274.21 533.85 273.153 534.697 272.66C535.543 272.167 536.637 272.449 537.096 273.294C537.59 274.14 537.307 275.232 536.461 275.69C536.178 275.866 535.896 275.936 535.579 275.936C534.979 275.936 534.379 275.619 534.062 275.056ZM549.374 266.214C548.88 265.369 549.162 264.277 550.009 263.819C550.855 263.326 551.949 263.608 552.408 264.453C552.902 265.299 552.619 266.355 551.773 266.848C551.49 267.025 551.208 267.095 550.891 267.095C550.291 267.095 549.691 266.778 549.374 266.214ZM564.686 257.373C564.192 256.528 564.474 255.471 565.321 254.978C566.167 254.485 567.226 254.767 567.72 255.612C568.214 256.458 567.931 257.514 567.085 258.007C566.802 258.184 566.485 258.254 566.203 258.254C565.603 258.254 565.003 257.937 564.686 257.373ZM579.998 248.532C579.504 247.687 579.786 246.63 580.633 246.137C581.479 245.644 582.538 245.926 583.032 246.771C583.526 247.616 583.243 248.708 582.397 249.166C582.114 249.342 581.832 249.413 581.515 249.413C580.915 249.413 580.315 249.096 579.998 248.532ZM595.31 239.691C594.816 238.846 595.098 237.789 595.945 237.296C596.791 236.803 597.85 237.085 598.344 237.93C598.838 238.775 598.555 239.867 597.709 240.325C597.426 240.501 597.109 240.572 596.827 240.572C596.227 240.572 595.627 240.255 595.31 239.691ZM610.622 230.85C610.128 230.005 610.41 228.948 611.257 228.455C612.103 227.962 613.162 228.244 613.656 229.089C614.15 229.934 613.867 231.026 613.021 231.484C612.738 231.66 612.456 231.731 612.139 231.731C611.539 231.731 610.939 231.414 610.622 230.85ZM625.934 222.009C625.44 221.164 625.722 220.072 626.569 219.614C627.415 219.121 628.509 219.403 628.968 220.248C629.462 221.093 629.179 222.15 628.333 222.643C628.05 222.819 627.768 222.89 627.451 222.89C626.851 222.89 626.251 222.573 625.934 222.009ZM641.245 213.168C640.752 212.323 641.034 211.231 641.881 210.773C642.727 210.28 643.821 210.561 644.28 211.407C644.774 212.252 644.491 213.309 643.645 213.802C643.362 213.978 643.08 214.049 642.763 214.049C642.163 214.049 641.563 213.732 641.245 213.168ZM656.557 204.327C656.064 203.482 656.346 202.39 657.193 201.932C658.039 201.439 659.133 201.72 659.592 202.566C660.086 203.411 659.803 204.468 658.957 204.961C658.674 205.137 658.392 205.207 658.075 205.207C657.475 205.207 656.875 204.89 656.557 204.327ZM671.869 195.486C671.376 194.64 671.658 193.549 672.505 193.091C673.351 192.598 674.445 192.879 674.904 193.725C675.398 194.57 675.115 195.662 674.269 196.12C673.986 196.296 673.704 196.366 673.387 196.366C672.787 196.366 672.187 196.049 671.869 195.486Z" fill="#005EA7"/>
<path d="M168.127 488.016C167.668 488.016 167.209 487.84 166.892 487.488C166.821 487.418 166.751 487.312 166.68 487.206C166.61 487.101 166.574 486.995 166.539 486.889C166.504 486.784 166.469 486.678 166.433 486.572C166.433 486.467 166.398 486.326 166.398 486.22C166.398 486.114 166.398 485.973 166.433 485.868C166.433 485.762 166.504 485.656 166.539 485.551C166.574 485.445 166.645 485.339 166.68 485.234C166.751 485.128 166.821 485.058 166.892 484.952C166.962 484.882 167.068 484.811 167.174 484.741C167.28 484.67 167.386 484.635 167.492 484.565C167.598 484.529 167.703 484.494 167.809 484.459C168.021 484.424 168.268 484.424 168.515 484.459C168.621 484.459 168.727 484.529 168.832 484.565C168.938 484.6 169.044 484.67 169.15 484.741C169.256 484.811 169.326 484.882 169.432 484.952C169.503 485.022 169.573 485.128 169.644 485.234C169.714 485.339 169.75 485.445 169.82 485.551C169.855 485.656 169.891 485.762 169.926 485.868C169.926 485.973 169.961 486.114 169.961 486.22C169.961 486.326 169.961 486.467 169.926 486.572C169.926 486.678 169.855 486.784 169.82 486.889C169.785 486.995 169.714 487.101 169.644 487.206C169.573 487.312 169.503 487.382 169.432 487.488C169.115 487.805 168.656 488.016 168.197 488.016H168.127Z" fill="#005EA7"/>
<path d="M152.215 479.14C151.368 478.647 151.086 477.59 151.579 476.745C152.073 475.9 153.132 475.618 153.979 476.111C154.825 476.604 155.108 477.661 154.614 478.506C154.296 479.07 153.696 479.387 153.097 479.387C152.779 479.387 152.497 479.316 152.215 479.14ZM137.185 470.475C136.338 469.982 136.056 468.925 136.55 468.08C137.044 467.235 138.102 466.953 138.949 467.446C139.796 467.939 140.078 468.996 139.584 469.841C139.266 470.405 138.667 470.722 138.067 470.722C137.785 470.722 137.467 470.651 137.185 470.475ZM122.155 461.81C121.308 461.317 121.026 460.26 121.52 459.415C122.014 458.57 123.072 458.288 123.919 458.781C124.766 459.274 125.048 460.331 124.554 461.176C124.237 461.74 123.637 462.057 123.037 462.057C122.72 462.057 122.437 461.986 122.155 461.81ZM107.125 453.145C106.279 452.652 105.996 451.595 106.49 450.75C106.984 449.905 108.043 449.623 108.889 450.116C109.736 450.609 110.018 451.666 109.524 452.511C109.207 453.075 108.607 453.392 108.007 453.392C107.69 453.392 107.408 453.321 107.125 453.145ZM92.0956 444.48C91.2489 443.987 90.9666 442.93 91.4605 442.085C91.9545 441.24 93.0129 440.958 93.8597 441.451C94.7064 441.944 94.9887 443.001 94.4947 443.846C94.1772 444.41 93.5774 444.727 92.9776 444.727C92.6954 444.727 92.3779 444.656 92.0956 444.48ZM77.0659 435.815C76.2191 435.322 75.9369 434.265 76.4308 433.42C76.9248 432.575 77.9832 432.293 78.8299 432.786C79.6767 433.279 79.9589 434.336 79.465 435.181C79.1475 435.745 78.5477 436.062 77.9479 436.062C77.6304 436.062 77.3481 435.991 77.0659 435.815ZM62.0361 427.15C61.1894 426.657 60.9072 425.6 61.4011 424.755C61.895 423.91 62.9535 423.628 63.8002 424.121C64.6469 424.614 64.9292 425.671 64.4353 426.516C64.1177 427.08 63.518 427.397 62.9182 427.397C62.6359 427.397 62.3184 427.326 62.0361 427.15ZM47.0064 418.485C46.1597 417.992 45.8774 416.936 46.3714 416.09C46.8653 415.245 47.9237 414.963 48.7705 415.456C49.6172 415.949 49.8995 417.006 49.4055 417.851C49.088 418.415 48.4882 418.732 47.8884 418.732C47.5709 418.732 47.2887 418.661 47.0064 418.485ZM31.9767 409.82C31.1299 409.327 30.8477 408.271 31.3416 407.425C31.8356 406.58 32.894 406.298 33.7407 406.791C34.5875 407.284 34.8697 408.341 34.3758 409.186C34.0583 409.75 33.4585 410.067 32.8587 410.067C32.5412 410.067 32.2589 409.996 31.9767 409.82ZM16.947 401.155C16.1002 400.662 15.818 399.606 16.3119 398.76C16.8058 397.915 17.8643 397.633 18.711 398.126C19.5578 398.619 19.84 399.676 19.3461 400.521C19.0285 401.085 18.4288 401.402 17.829 401.402C17.5115 401.402 17.2292 401.332 16.947 401.155Z" fill="#005EA7"/>
<path d="M350.352 381.219C349.858 380.373 350.141 379.281 350.987 378.824C351.834 378.33 352.893 378.612 353.387 379.458C353.881 380.303 353.598 381.395 352.752 381.853C352.469 382.029 352.152 382.099 351.87 382.099C351.27 382.099 350.67 381.782 350.352 381.219ZM365.664 372.378C365.17 371.532 365.453 370.44 366.299 369.983C367.146 369.489 368.205 369.771 368.699 370.617C369.192 371.462 368.91 372.519 368.064 373.012C367.781 373.188 367.499 373.258 367.181 373.258C366.582 373.258 365.982 372.941 365.664 372.378ZM380.976 363.537C380.482 362.691 380.765 361.599 381.611 361.141C382.458 360.648 383.552 360.93 384.011 361.775C384.504 362.621 384.222 363.713 383.376 364.171C383.093 364.347 382.811 364.417 382.493 364.417C381.894 364.417 381.294 364.1 380.976 363.537ZM396.288 354.696C395.794 353.85 396.077 352.793 396.923 352.3C397.77 351.807 398.864 352.089 399.323 352.934C399.816 353.78 399.534 354.836 398.687 355.33C398.405 355.506 398.123 355.576 397.805 355.576C397.206 355.576 396.606 355.259 396.288 354.696ZM411.6 345.89C411.106 345.044 411.389 343.952 412.235 343.495C413.082 343.001 414.176 343.283 414.635 344.129C415.128 344.974 414.846 346.031 413.999 346.524C413.717 346.7 413.435 346.77 413.117 346.77C412.518 346.77 411.918 346.453 411.6 345.89ZM426.912 337.049C426.418 336.203 426.701 335.111 427.547 334.653C428.394 334.16 429.488 334.442 429.947 335.287C430.44 336.133 430.158 337.225 429.311 337.683C429.029 337.859 428.747 337.929 428.429 337.929C427.83 337.929 427.23 337.612 426.912 337.049ZM442.224 328.208C441.73 327.362 442.013 326.27 442.859 325.812C443.706 325.319 444.8 325.601 445.258 326.446C445.752 327.292 445.47 328.348 444.623 328.842C444.341 328.982 444.059 329.088 443.741 329.088C443.142 329.088 442.542 328.771 442.224 328.208ZM457.536 319.366C457.042 318.521 457.325 317.429 458.171 316.971C459.018 316.478 460.077 316.76 460.57 317.605C461.064 318.451 460.782 319.543 459.935 320C459.653 320.177 459.371 320.247 459.053 320.247C458.454 320.247 457.854 319.93 457.536 319.366ZM472.848 310.525C472.354 309.68 472.637 308.588 473.483 308.13C474.33 307.637 475.388 307.919 475.882 308.764C476.376 309.61 476.094 310.701 475.247 311.159C474.965 311.335 474.648 311.406 474.365 311.406C473.766 311.406 473.166 311.089 472.848 310.525ZM488.16 301.684C487.666 300.839 487.949 299.782 488.795 299.289C489.642 298.796 490.7 299.078 491.194 299.923C491.688 300.768 491.406 301.86 490.559 302.318C490.277 302.494 489.995 302.565 489.677 302.565C489.078 302.565 488.478 302.248 488.16 301.684ZM503.472 292.843C502.978 291.998 503.261 290.906 504.107 290.448C504.954 289.955 506.048 290.237 506.506 291.082C507 291.927 506.718 293.019 505.871 293.477C505.589 293.653 505.307 293.724 504.989 293.724C504.39 293.724 503.79 293.407 503.472 292.843ZM518.784 284.037C518.29 283.192 518.573 282.1 519.419 281.642C520.266 281.149 521.324 281.431 521.818 282.276C522.312 283.122 522.03 284.213 521.183 284.671C520.901 284.812 520.619 284.918 520.301 284.918C519.702 284.918 519.102 284.601 518.784 284.037ZM534.096 275.196C533.602 274.351 533.885 273.259 534.731 272.801C535.578 272.308 536.672 272.59 537.13 273.435C537.624 274.28 537.342 275.372 536.495 275.83C536.213 276.006 535.931 276.077 535.613 276.077C535.014 276.077 534.414 275.76 534.096 275.196ZM549.408 266.355C548.914 265.51 549.196 264.418 550.043 263.96C550.89 263.467 551.984 263.749 552.442 264.594C552.936 265.439 552.654 266.531 551.807 266.989C551.525 267.165 551.243 267.236 550.925 267.236C550.325 267.236 549.726 266.919 549.408 266.355ZM564.72 257.514C564.226 256.669 564.508 255.612 565.355 255.119C566.202 254.626 567.296 254.908 567.754 255.753C568.248 256.598 567.966 257.69 567.119 258.148C566.837 258.324 566.555 258.395 566.237 258.395C565.637 258.395 565.038 258.078 564.72 257.514ZM580.032 248.673C579.538 247.828 579.82 246.736 580.667 246.278C581.514 245.785 582.572 246.066 583.066 246.912C583.56 247.757 583.278 248.849 582.431 249.307C582.149 249.483 581.867 249.554 581.549 249.554C580.949 249.554 580.35 249.237 580.032 248.673ZM595.344 239.832C594.85 238.987 595.132 237.895 595.979 237.437C596.826 236.944 597.92 237.225 598.378 238.071C598.872 238.916 598.59 239.973 597.743 240.466C597.461 240.642 597.179 240.713 596.861 240.713C596.261 240.713 595.662 240.396 595.344 239.832ZM610.656 230.991C610.162 230.146 610.444 229.054 611.291 228.596C612.138 228.103 613.196 228.384 613.69 229.23C614.184 230.075 613.902 231.167 613.055 231.625C612.773 231.801 612.491 231.871 612.173 231.871C611.573 231.871 610.974 231.554 610.656 230.991ZM625.968 222.15C625.474 221.304 625.756 220.248 626.603 219.755C627.45 219.261 628.508 219.543 629.002 220.389C629.496 221.234 629.214 222.291 628.367 222.784C628.085 222.96 627.803 223.03 627.485 223.03C626.885 223.03 626.286 222.713 625.968 222.15ZM641.28 213.309C640.786 212.463 641.068 211.371 641.915 210.914C642.762 210.42 643.82 210.702 644.314 211.548C644.808 212.393 644.526 213.485 643.679 213.943C643.397 214.119 643.115 214.189 642.797 214.189C642.197 214.189 641.598 213.872 641.28 213.309ZM656.592 204.468C656.098 203.622 656.38 202.53 657.227 202.072C658.074 201.579 659.168 201.861 659.626 202.706C660.12 203.552 659.838 204.644 658.991 205.102C658.709 205.243 658.427 205.348 658.109 205.348C657.509 205.348 656.91 205.031 656.592 204.468ZM671.904 195.627C671.41 194.781 671.692 193.724 672.539 193.231C673.386 192.738 674.479 193.02 674.938 193.865C675.432 194.711 675.15 195.803 674.303 196.261C674.021 196.437 673.739 196.507 673.421 196.507C672.821 196.507 672.222 196.19 671.904 195.627ZM687.216 186.785C686.722 185.94 687.004 184.883 687.851 184.39C688.698 183.897 689.791 184.179 690.25 185.024C690.744 185.87 690.462 186.962 689.615 187.419C689.333 187.596 689.051 187.666 688.733 187.666C688.133 187.666 687.534 187.349 687.216 186.785ZM702.528 177.944C702.034 177.099 702.316 176.042 703.163 175.549C704.01 175.056 705.103 175.338 705.562 176.183C706.056 177.029 705.774 178.12 704.927 178.578C704.645 178.755 704.363 178.825 704.045 178.825C703.445 178.825 702.845 178.508 702.528 177.944ZM717.84 169.103C717.346 168.258 717.628 167.166 718.475 166.708C719.322 166.215 720.415 166.497 720.874 167.342C721.368 168.187 721.086 169.244 720.239 169.737C719.957 169.913 719.675 169.984 719.357 169.984C718.757 169.984 718.157 169.667 717.84 169.103ZM733.152 160.262C732.658 159.417 732.94 158.36 733.787 157.867C734.634 157.374 735.692 157.656 736.186 158.501C736.68 159.346 736.398 160.403 735.551 160.896C735.269 161.072 734.951 161.143 734.669 161.143C734.069 161.143 733.469 160.826 733.152 160.262ZM748.464 151.421C747.97 150.576 748.252 149.519 749.099 149.026C749.946 148.533 751.004 148.815 751.498 149.66C751.992 150.505 751.71 151.597 750.863 152.055C750.581 152.231 750.298 152.302 749.981 152.302C749.381 152.302 748.781 151.985 748.464 151.421ZM763.776 142.58C763.282 141.735 763.564 140.678 764.411 140.185C765.258 139.692 766.316 139.974 766.81 140.819C767.304 141.664 767.022 142.756 766.175 143.214C765.893 143.39 765.575 143.461 765.293 143.461C764.693 143.461 764.093 143.144 763.776 142.58ZM779.088 133.739C778.594 132.894 778.876 131.837 779.723 131.344C780.57 130.851 781.628 131.132 782.122 131.978C782.616 132.823 782.334 133.915 781.487 134.373C781.205 134.549 780.922 134.62 780.605 134.62C780.005 134.62 779.405 134.303 779.088 133.739ZM794.4 124.898C793.906 124.053 794.188 122.961 795.035 122.503C795.882 122.01 796.975 122.291 797.434 123.137C797.928 123.982 797.646 125.039 796.799 125.532C796.517 125.708 796.234 125.778 795.917 125.778C795.317 125.778 794.717 125.461 794.4 124.898ZM809.712 116.057C809.218 115.211 809.5 114.12 810.347 113.662C811.194 113.168 812.287 113.45 812.746 114.296C813.24 115.141 812.958 116.198 812.111 116.691C811.829 116.867 811.546 116.937 811.229 116.937C810.629 116.937 810.029 116.62 809.712 116.057ZM825.024 107.216C824.53 106.37 824.812 105.278 825.659 104.821C826.506 104.327 827.599 104.609 828.058 105.455C828.552 106.3 828.27 107.357 827.423 107.85C827.141 108.026 826.858 108.096 826.541 108.096C825.941 108.096 825.341 107.779 825.024 107.216ZM840.336 98.3747C839.842 97.5293 840.124 96.4374 840.971 95.9795C841.818 95.4863 842.911 95.7681 843.37 96.6135C843.864 97.4588 843.582 98.5508 842.735 99.0087C842.453 99.1848 842.17 99.2552 841.853 99.2552C841.253 99.2552 840.653 98.9382 840.336 98.3747Z" fill="#005EA7"/>
<path d="M673.949 163.08C655.744 173.577 639.797 175.303 626.602 167.553L576.715 134.232L577.985 102.249L626.602 138.635C639.797 146.384 655.744 144.658 673.949 134.162V163.08Z" fill="#71ADD2" stroke="#005EA7" stroke-width="3" stroke-linejoin="bevel"/>
<path d="M629.32 159.804L601.13 176.042L543.093 141.981L465.474 186.715L523.512 220.776L495.322 237.014L428.959 198.092C421.408 193.654 422.714 186.363 430.934 181.608L533.673 122.362C542.352 117.36 554.877 117.149 562.039 121.34L628.402 160.262L629.284 159.769L629.32 159.804Z" fill="#D2E6DF" stroke="#005EA7" stroke-width="3" stroke-linejoin="bevel"/>
<path d="M543.06 170.865V141.981L465.477 186.715L490.314 201.298L543.06 170.865Z" fill="white" stroke="#005EA7" stroke-width="3" stroke-linejoin="bevel"/>
<path d="M719.956 40.0094L616.759 99.5018L653.311 120.953L756.931 61.2139L778.417 73.8239L673.915 134.056C655.71 144.553 639.763 146.278 626.567 138.529L585.853 114.648C573.046 107.11 575.727 98.1281 594.391 87.3849L698.435 27.3994L719.921 40.0094H719.956Z" fill="#D2E6DF" stroke="#005EA7" stroke-width="3" stroke-linejoin="bevel"/>
<path d="M543.059 141.981V170.865L601.131 204.961V176.042L543.059 141.981Z" fill="#71ADD2" stroke="#005EA7" stroke-width="3" stroke-linejoin="bevel"/>
<path d="M601.129 176.042L628.436 160.298V189.216L601.129 204.961V176.042Z" fill="white" stroke="#005EA7" stroke-width="3" stroke-linejoin="bevel"/>
<path d="M424.02 190.519V219.438L495.323 265.933V237.014L424.02 190.519Z" fill="#71ADD2" stroke="#005EA7" stroke-width="3" stroke-linejoin="bevel"/>
<path d="M472.777 250.012L445.046 266.003L414.14 247.863L336.522 292.597L367.428 310.737L339.238 326.975L259.68 280.304L287.869 264.066L314.648 279.775L392.266 235.042L365.488 219.332L393.218 203.341L472.777 250.012Z" fill="#D2E6DF" stroke="#005EA7" stroke-width="3" stroke-linejoin="bevel"/>
<path d="M365.488 219.332L392.267 235.042L365.488 250.012V219.332Z" fill="#71ADD2" stroke="#005EA7" stroke-width="3" stroke-linejoin="bevel"/>
<path d="M495.324 237.014V265.933L523.514 249.695V220.776L495.324 237.014Z" fill="white" stroke="#005EA7" stroke-width="3" stroke-linejoin="bevel"/>
<path d="M336.523 292.632L414.142 247.863V276.781L361.361 307.215L336.523 292.632Z" fill="white" stroke="#005EA7" stroke-width="3" stroke-linejoin="bevel"/>
<path d="M414.141 247.863V276.781L445.047 294.922V266.038L414.141 247.863Z" fill="#71ADD2" stroke="#005EA7" stroke-width="3" stroke-linejoin="bevel"/>
<path d="M445.047 266.038V294.922L472.778 278.93V250.012L445.047 266.038Z" fill="white" stroke="#005EA7" stroke-width="3" stroke-linejoin="bevel"/>
<path d="M259.715 280.339L339.274 327.01V355.893L259.715 309.222V280.339Z" fill="#71ADD2" stroke="#005EA7" stroke-width="3" stroke-linejoin="bevel"/>
<path d="M171.233 295.626C171.127 295.626 171.021 295.626 170.88 295.591C170.774 295.591 170.668 295.52 170.563 295.485C170.457 295.45 170.351 295.379 170.245 295.309C170.139 295.238 170.069 295.168 169.963 295.098C169.645 294.781 169.434 294.323 169.434 293.865C169.434 293.407 169.434 293.618 169.434 293.513C169.434 293.407 169.504 293.301 169.539 293.195C169.575 293.09 169.645 292.984 169.716 292.878C169.786 292.773 169.857 292.702 169.928 292.597C170.245 292.28 170.704 292.068 171.162 292.068C171.621 292.068 172.08 292.244 172.397 292.597C172.468 292.667 172.538 292.773 172.609 292.878C172.679 292.984 172.715 293.09 172.785 293.195C172.821 293.301 172.856 293.407 172.891 293.513C172.891 293.618 172.891 293.759 172.891 293.865C172.891 294.323 172.715 294.781 172.362 295.098C172.291 295.168 172.186 295.238 172.08 295.309C171.974 295.379 171.868 295.415 171.762 295.485C171.656 295.52 171.55 295.555 171.445 295.591C171.339 295.591 171.233 295.626 171.092 295.626H171.233Z" fill="#005EA7"/>
<path d="M320.646 382.029C319.799 381.536 319.517 380.479 320.011 379.634C320.505 378.788 321.563 378.507 322.41 379C323.257 379.493 323.539 380.55 323.045 381.395C322.727 381.959 322.128 382.276 321.528 382.276C321.21 382.276 320.928 382.205 320.646 382.029ZM305.616 373.364C304.769 372.871 304.487 371.814 304.981 370.969C305.475 370.123 306.533 369.842 307.38 370.335C308.227 370.828 308.509 371.885 308.015 372.73C307.698 373.294 307.098 373.611 306.498 373.611C306.216 373.611 305.898 373.54 305.616 373.364ZM290.586 364.699C289.739 364.206 289.457 363.149 289.951 362.304C290.445 361.459 291.504 361.177 292.35 361.67C293.197 362.163 293.479 363.22 292.985 364.065C292.668 364.629 292.068 364.946 291.468 364.946C291.151 364.946 290.868 364.875 290.586 364.699ZM275.557 356.034C274.71 355.541 274.428 354.484 274.921 353.639C275.415 352.794 276.474 352.512 277.321 353.005C278.167 353.498 278.45 354.555 277.956 355.4C277.638 355.964 277.038 356.281 276.439 356.281C276.121 356.281 275.839 356.21 275.557 356.034ZM260.527 347.369C259.68 346.876 259.398 345.819 259.892 344.974C260.386 344.129 261.444 343.847 262.291 344.34C263.138 344.833 263.42 345.89 262.926 346.735C262.608 347.299 262.009 347.616 261.409 347.616C261.127 347.616 260.809 347.545 260.527 347.369ZM245.497 338.704C244.65 338.211 244.368 337.154 244.862 336.309C245.356 335.464 246.414 335.182 247.261 335.675C248.108 336.168 248.39 337.225 247.896 338.07C247.579 338.634 246.979 338.951 246.379 338.951C246.062 338.951 245.779 338.88 245.497 338.704ZM230.467 330.039C229.621 329.546 229.338 328.489 229.832 327.644C230.326 326.799 231.385 326.517 232.231 327.01C233.078 327.503 233.36 328.56 232.866 329.405C232.549 329.969 231.949 330.286 231.349 330.286C231.067 330.286 230.75 330.215 230.467 330.039ZM215.438 321.374C214.591 320.881 214.309 319.824 214.803 318.979C215.296 318.134 216.355 317.852 217.202 318.345C218.048 318.838 218.331 319.895 217.837 320.74C217.519 321.304 216.919 321.621 216.32 321.621C216.002 321.621 215.72 321.55 215.438 321.374ZM200.408 312.709C199.561 312.216 199.279 311.159 199.773 310.314C200.267 309.469 201.325 309.187 202.172 309.68C203.019 310.173 203.301 311.23 202.807 312.075C202.489 312.639 201.89 312.956 201.29 312.956C200.972 312.956 200.69 312.885 200.408 312.709ZM185.378 304.044C184.531 303.551 184.249 302.494 184.743 301.649C185.237 300.804 186.295 300.522 187.142 301.015C187.989 301.508 188.271 302.565 187.777 303.41C187.46 303.974 186.86 304.291 186.26 304.291C185.943 304.291 185.66 304.22 185.378 304.044Z" fill="#005EA7"/>
<path d="M367.428 310.772V339.655L339.273 355.893V327.01L367.428 310.772Z" fill="white" stroke="#005EA7" stroke-width="3" stroke-linejoin="bevel"/>
<path d="M201.609 313.801L212.582 400.451L247.263 380.444L236.291 293.794L201.609 313.801Z" fill="#D2E6DF" stroke="#005EA7" stroke-width="3" stroke-linejoin="bevel"/>
<path d="M201.609 313.801L212.617 400.451V429.369L201.609 342.72V313.801Z" fill="#D2E6DF" stroke="#005EA7" stroke-width="3" stroke-linejoin="bevel"/>
<path d="M152.215 342.297V371.215L163.187 457.865V428.947L152.215 342.297Z" fill="#D2E6DF" stroke="#005EA7" stroke-width="3" stroke-linejoin="bevel"/>
<path d="M247.298 380.444V409.362L212.617 429.369V400.451L247.298 380.444Z" fill="white" stroke="#005EA7" stroke-width="3" stroke-linejoin="bevel"/>
<path d="M152.215 342.297L163.187 428.947L197.869 408.94L186.896 322.29L152.215 342.297Z" fill="#D2E6DF" stroke="#005EA7" stroke-width="3" stroke-linejoin="bevel"/>
<path d="M336.557 390.94C336.098 390.94 335.64 390.764 335.322 390.412C335.251 390.342 335.181 390.236 335.11 390.13C335.04 390.025 335.005 389.919 334.969 389.813C334.934 389.708 334.899 389.602 334.863 389.496C334.863 389.391 334.828 389.25 334.828 389.144C334.828 389.038 334.828 388.897 334.863 388.792C334.863 388.686 334.934 388.58 334.969 388.475C335.005 388.369 335.075 388.263 335.11 388.158C335.181 388.052 335.251 387.982 335.322 387.876C335.393 387.806 335.498 387.735 335.604 387.665C335.71 387.594 335.816 387.559 335.922 387.489C336.028 387.453 336.134 387.418 336.239 387.383C336.451 387.348 336.698 387.348 336.945 387.383C337.051 387.383 337.157 387.453 337.263 387.489C337.368 387.524 337.474 387.594 337.58 387.665C337.686 387.735 337.756 387.806 337.862 387.876C337.933 387.946 338.003 388.052 338.074 388.158C338.145 388.263 338.18 388.369 338.25 388.475C338.286 388.58 338.321 388.686 338.356 388.792C338.356 388.897 338.392 389.038 338.392 389.144C338.392 389.25 338.392 389.391 338.356 389.496C338.356 389.602 338.286 389.708 338.25 389.813C338.215 389.919 338.145 390.025 338.074 390.13C338.003 390.236 337.933 390.306 337.862 390.412C337.545 390.729 337.086 390.94 336.627 390.94H336.557Z" fill="#005EA7"/>
<path d="M197.869 408.94V437.858L163.188 457.865V428.947L197.869 408.94Z" fill="white" stroke="#005EA7" stroke-width="3" stroke-linejoin="bevel"/>
</svg>
